%FSLAX45Y45*%
G04 Gerber Fmt 4.5, Leading zero omitted, Abs format (unit mm)*
G04 Created by KiCad (PCBNEW (5.1.10)-1) date 2022-07-03 20:17:23*
%MOMM*%
%LPD*%
G01*
G04 APERTURE LIST*
%TA.AperFunction,Profile*%
%ADD10C,0.050000*%
%TD*%
%ADD11C,0.200000*%
%ADD12C,0.300000*%
G04 APERTURE END LIST*
D10*
X13716000Y-3175000D02*
X13716000Y-14859000D01*
X13622000Y-3175000D02*
X13716000Y-3175000D01*
X4391000Y-14859000D02*
X4388000Y-3175000D01*
X4445000Y-14859000D02*
X4391000Y-14859000D01*
X13716000Y-14859000D02*
X4445000Y-14859000D01*
X4388000Y-3175000D02*
X13622000Y-3175000D01*
D11*
X7338500Y-10457500D02*
X7448500Y-10567500D01*
X7448500Y-10457500D02*
X7338500Y-10567500D01*
X12899000Y-11699800D02*
X13009000Y-11809800D01*
X13009000Y-11699800D02*
X12899000Y-11809800D01*
X12265000Y-7398000D02*
G75*
G03*
X12265000Y-7398000I-60000J0D01*
G01*
X13015000Y-7398000D02*
G75*
G03*
X13015000Y-7398000I-60000J0D01*
G01*
X7393500Y-3752500D02*
X7393500Y-3912500D01*
X7313500Y-3832500D02*
X7473500Y-3832500D01*
X12954000Y-14174800D02*
X12954000Y-14334800D01*
X12874000Y-14254800D02*
X13034000Y-14254800D01*
D12*
X4671928Y-15327214D02*
X4671928Y-15027214D01*
X4743357Y-15027214D01*
X4786214Y-15041500D01*
X4814786Y-15070071D01*
X4829071Y-15098643D01*
X4843357Y-15155786D01*
X4843357Y-15198643D01*
X4829071Y-15255786D01*
X4814786Y-15284357D01*
X4786214Y-15312929D01*
X4743357Y-15327214D01*
X4671928Y-15327214D01*
X4971928Y-15327214D02*
X4971928Y-15127214D01*
X4971928Y-15184357D02*
X4986214Y-15155786D01*
X5000500Y-15141500D01*
X5029071Y-15127214D01*
X5057643Y-15127214D01*
X5157643Y-15327214D02*
X5157643Y-15127214D01*
X5157643Y-15027214D02*
X5143357Y-15041500D01*
X5157643Y-15055786D01*
X5171928Y-15041500D01*
X5157643Y-15027214D01*
X5157643Y-15055786D01*
X5343357Y-15327214D02*
X5314786Y-15312929D01*
X5300500Y-15284357D01*
X5300500Y-15027214D01*
X5500500Y-15327214D02*
X5471928Y-15312929D01*
X5457643Y-15284357D01*
X5457643Y-15027214D01*
X5843357Y-15327214D02*
X5843357Y-15027214D01*
X5943357Y-15241500D01*
X6043357Y-15027214D01*
X6043357Y-15327214D01*
X6314786Y-15327214D02*
X6314786Y-15170071D01*
X6300500Y-15141500D01*
X6271928Y-15127214D01*
X6214786Y-15127214D01*
X6186214Y-15141500D01*
X6314786Y-15312929D02*
X6286214Y-15327214D01*
X6214786Y-15327214D01*
X6186214Y-15312929D01*
X6171928Y-15284357D01*
X6171928Y-15255786D01*
X6186214Y-15227214D01*
X6214786Y-15212929D01*
X6286214Y-15212929D01*
X6314786Y-15198643D01*
X6457643Y-15127214D02*
X6457643Y-15427214D01*
X6457643Y-15141500D02*
X6486214Y-15127214D01*
X6543357Y-15127214D01*
X6571928Y-15141500D01*
X6586214Y-15155786D01*
X6600500Y-15184357D01*
X6600500Y-15270071D01*
X6586214Y-15298643D01*
X6571928Y-15312929D01*
X6543357Y-15327214D01*
X6486214Y-15327214D01*
X6457643Y-15312929D01*
X6729071Y-15298643D02*
X6743357Y-15312929D01*
X6729071Y-15327214D01*
X6714786Y-15312929D01*
X6729071Y-15298643D01*
X6729071Y-15327214D01*
X6729071Y-15141500D02*
X6743357Y-15155786D01*
X6729071Y-15170071D01*
X6714786Y-15155786D01*
X6729071Y-15141500D01*
X6729071Y-15170071D01*
X4275500Y-15766500D02*
X4385500Y-15876500D01*
X4385500Y-15766500D02*
X4275500Y-15876500D01*
X4829071Y-15957214D02*
X4657643Y-15957214D01*
X4743357Y-15957214D02*
X4743357Y-15657214D01*
X4714786Y-15700071D01*
X4686214Y-15728643D01*
X4657643Y-15742929D01*
X4957643Y-15928643D02*
X4971928Y-15942929D01*
X4957643Y-15957214D01*
X4943357Y-15942929D01*
X4957643Y-15928643D01*
X4957643Y-15957214D01*
X5257643Y-15957214D02*
X5086214Y-15957214D01*
X5171928Y-15957214D02*
X5171928Y-15657214D01*
X5143357Y-15700071D01*
X5114786Y-15728643D01*
X5086214Y-15742929D01*
X5443357Y-15657214D02*
X5471928Y-15657214D01*
X5500500Y-15671500D01*
X5514786Y-15685786D01*
X5529071Y-15714357D01*
X5543357Y-15771500D01*
X5543357Y-15842929D01*
X5529071Y-15900071D01*
X5514786Y-15928643D01*
X5500500Y-15942929D01*
X5471928Y-15957214D01*
X5443357Y-15957214D01*
X5414786Y-15942929D01*
X5400500Y-15928643D01*
X5386214Y-15900071D01*
X5371928Y-15842929D01*
X5371928Y-15771500D01*
X5386214Y-15714357D01*
X5400500Y-15685786D01*
X5414786Y-15671500D01*
X5443357Y-15657214D01*
X5729071Y-15657214D02*
X5757643Y-15657214D01*
X5786214Y-15671500D01*
X5800500Y-15685786D01*
X5814786Y-15714357D01*
X5829071Y-15771500D01*
X5829071Y-15842929D01*
X5814786Y-15900071D01*
X5800500Y-15928643D01*
X5786214Y-15942929D01*
X5757643Y-15957214D01*
X5729071Y-15957214D01*
X5700500Y-15942929D01*
X5686214Y-15928643D01*
X5671928Y-15900071D01*
X5657643Y-15842929D01*
X5657643Y-15771500D01*
X5671928Y-15714357D01*
X5686214Y-15685786D01*
X5700500Y-15671500D01*
X5729071Y-15657214D01*
X5957643Y-15957214D02*
X5957643Y-15757214D01*
X5957643Y-15785786D02*
X5971928Y-15771500D01*
X6000500Y-15757214D01*
X6043357Y-15757214D01*
X6071928Y-15771500D01*
X6086214Y-15800071D01*
X6086214Y-15957214D01*
X6086214Y-15800071D02*
X6100500Y-15771500D01*
X6129071Y-15757214D01*
X6171928Y-15757214D01*
X6200500Y-15771500D01*
X6214786Y-15800071D01*
X6214786Y-15957214D01*
X6357643Y-15957214D02*
X6357643Y-15757214D01*
X6357643Y-15785786D02*
X6371928Y-15771500D01*
X6400500Y-15757214D01*
X6443357Y-15757214D01*
X6471928Y-15771500D01*
X6486214Y-15800071D01*
X6486214Y-15957214D01*
X6486214Y-15800071D02*
X6500500Y-15771500D01*
X6529071Y-15757214D01*
X6571928Y-15757214D01*
X6600500Y-15771500D01*
X6614786Y-15800071D01*
X6614786Y-15957214D01*
X7200500Y-15642929D02*
X6943357Y-16028643D01*
X7586214Y-15657214D02*
X7614786Y-15657214D01*
X7643357Y-15671500D01*
X7657643Y-15685786D01*
X7671928Y-15714357D01*
X7686214Y-15771500D01*
X7686214Y-15842929D01*
X7671928Y-15900071D01*
X7657643Y-15928643D01*
X7643357Y-15942929D01*
X7614786Y-15957214D01*
X7586214Y-15957214D01*
X7557643Y-15942929D01*
X7543357Y-15928643D01*
X7529071Y-15900071D01*
X7514786Y-15842929D01*
X7514786Y-15771500D01*
X7529071Y-15714357D01*
X7543357Y-15685786D01*
X7557643Y-15671500D01*
X7586214Y-15657214D01*
X7814786Y-15928643D02*
X7829071Y-15942929D01*
X7814786Y-15957214D01*
X7800500Y-15942929D01*
X7814786Y-15928643D01*
X7814786Y-15957214D01*
X8014786Y-15657214D02*
X8043357Y-15657214D01*
X8071928Y-15671500D01*
X8086214Y-15685786D01*
X8100500Y-15714357D01*
X8114786Y-15771500D01*
X8114786Y-15842929D01*
X8100500Y-15900071D01*
X8086214Y-15928643D01*
X8071928Y-15942929D01*
X8043357Y-15957214D01*
X8014786Y-15957214D01*
X7986214Y-15942929D01*
X7971928Y-15928643D01*
X7957643Y-15900071D01*
X7943357Y-15842929D01*
X7943357Y-15771500D01*
X7957643Y-15714357D01*
X7971928Y-15685786D01*
X7986214Y-15671500D01*
X8014786Y-15657214D01*
X8371928Y-15757214D02*
X8371928Y-15957214D01*
X8300500Y-15642929D02*
X8229071Y-15857214D01*
X8414786Y-15857214D01*
X8500500Y-15657214D02*
X8686214Y-15657214D01*
X8586214Y-15771500D01*
X8629071Y-15771500D01*
X8657643Y-15785786D01*
X8671928Y-15800071D01*
X8686214Y-15828643D01*
X8686214Y-15900071D01*
X8671928Y-15928643D01*
X8657643Y-15942929D01*
X8629071Y-15957214D01*
X8543357Y-15957214D01*
X8514786Y-15942929D01*
X8500500Y-15928643D01*
X8786214Y-15657214D02*
X8971928Y-15657214D01*
X8871928Y-15771500D01*
X8914786Y-15771500D01*
X8943357Y-15785786D01*
X8957643Y-15800071D01*
X8971928Y-15828643D01*
X8971928Y-15900071D01*
X8957643Y-15928643D01*
X8943357Y-15942929D01*
X8914786Y-15957214D01*
X8829071Y-15957214D01*
X8800500Y-15942929D01*
X8786214Y-15928643D01*
X9086214Y-15657214D02*
X9086214Y-15714357D01*
X9200500Y-15657214D02*
X9200500Y-15714357D01*
X9643357Y-16071500D02*
X9629071Y-16057214D01*
X9600500Y-16014357D01*
X9586214Y-15985786D01*
X9571928Y-15942929D01*
X9557643Y-15871500D01*
X9557643Y-15814357D01*
X9571928Y-15742929D01*
X9586214Y-15700071D01*
X9600500Y-15671500D01*
X9629071Y-15628643D01*
X9643357Y-15614357D01*
X9743357Y-15685786D02*
X9757643Y-15671500D01*
X9786214Y-15657214D01*
X9857643Y-15657214D01*
X9886214Y-15671500D01*
X9900500Y-15685786D01*
X9914786Y-15714357D01*
X9914786Y-15742929D01*
X9900500Y-15785786D01*
X9729071Y-15957214D01*
X9914786Y-15957214D01*
X10271928Y-15957214D02*
X10271928Y-15657214D01*
X10400500Y-15957214D02*
X10400500Y-15800071D01*
X10386214Y-15771500D01*
X10357643Y-15757214D01*
X10314786Y-15757214D01*
X10286214Y-15771500D01*
X10271928Y-15785786D01*
X10586214Y-15957214D02*
X10557643Y-15942929D01*
X10543357Y-15928643D01*
X10529071Y-15900071D01*
X10529071Y-15814357D01*
X10543357Y-15785786D01*
X10557643Y-15771500D01*
X10586214Y-15757214D01*
X10629071Y-15757214D01*
X10657643Y-15771500D01*
X10671928Y-15785786D01*
X10686214Y-15814357D01*
X10686214Y-15900071D01*
X10671928Y-15928643D01*
X10657643Y-15942929D01*
X10629071Y-15957214D01*
X10586214Y-15957214D01*
X10857643Y-15957214D02*
X10829071Y-15942929D01*
X10814786Y-15914357D01*
X10814786Y-15657214D01*
X11086214Y-15942929D02*
X11057643Y-15957214D01*
X11000500Y-15957214D01*
X10971928Y-15942929D01*
X10957643Y-15914357D01*
X10957643Y-15800071D01*
X10971928Y-15771500D01*
X11000500Y-15757214D01*
X11057643Y-15757214D01*
X11086214Y-15771500D01*
X11100500Y-15800071D01*
X11100500Y-15828643D01*
X10957643Y-15857214D01*
X11214786Y-15942929D02*
X11243357Y-15957214D01*
X11300500Y-15957214D01*
X11329071Y-15942929D01*
X11343357Y-15914357D01*
X11343357Y-15900071D01*
X11329071Y-15871500D01*
X11300500Y-15857214D01*
X11257643Y-15857214D01*
X11229071Y-15842929D01*
X11214786Y-15814357D01*
X11214786Y-15800071D01*
X11229071Y-15771500D01*
X11257643Y-15757214D01*
X11300500Y-15757214D01*
X11329071Y-15771500D01*
X11443357Y-16071500D02*
X11457643Y-16057214D01*
X11486214Y-16014357D01*
X11500500Y-15985786D01*
X11514786Y-15942929D01*
X11529071Y-15871500D01*
X11529071Y-15814357D01*
X11514786Y-15742929D01*
X11500500Y-15700071D01*
X11486214Y-15671500D01*
X11457643Y-15628643D01*
X11443357Y-15614357D01*
X11986214Y-16071500D02*
X11971928Y-16057214D01*
X11943357Y-16014357D01*
X11929071Y-15985786D01*
X11914786Y-15942929D01*
X11900500Y-15871500D01*
X11900500Y-15814357D01*
X11914786Y-15742929D01*
X11929071Y-15700071D01*
X11943357Y-15671500D01*
X11971928Y-15628643D01*
X11986214Y-15614357D01*
X12100500Y-15757214D02*
X12100500Y-15957214D01*
X12100500Y-15785786D02*
X12114786Y-15771500D01*
X12143357Y-15757214D01*
X12186214Y-15757214D01*
X12214786Y-15771500D01*
X12229071Y-15800071D01*
X12229071Y-15957214D01*
X12414786Y-15957214D02*
X12386214Y-15942929D01*
X12371928Y-15928643D01*
X12357643Y-15900071D01*
X12357643Y-15814357D01*
X12371928Y-15785786D01*
X12386214Y-15771500D01*
X12414786Y-15757214D01*
X12457643Y-15757214D01*
X12486214Y-15771500D01*
X12500500Y-15785786D01*
X12514786Y-15814357D01*
X12514786Y-15900071D01*
X12500500Y-15928643D01*
X12486214Y-15942929D01*
X12457643Y-15957214D01*
X12414786Y-15957214D01*
X12600500Y-15757214D02*
X12714786Y-15757214D01*
X12643357Y-15657214D02*
X12643357Y-15914357D01*
X12657643Y-15942929D01*
X12686214Y-15957214D01*
X12714786Y-15957214D01*
X13043357Y-15757214D02*
X13043357Y-16057214D01*
X13043357Y-15771500D02*
X13071928Y-15757214D01*
X13129071Y-15757214D01*
X13157643Y-15771500D01*
X13171928Y-15785786D01*
X13186214Y-15814357D01*
X13186214Y-15900071D01*
X13171928Y-15928643D01*
X13157643Y-15942929D01*
X13129071Y-15957214D01*
X13071928Y-15957214D01*
X13043357Y-15942929D01*
X13357643Y-15957214D02*
X13329071Y-15942929D01*
X13314786Y-15914357D01*
X13314786Y-15657214D01*
X13600500Y-15957214D02*
X13600500Y-15800071D01*
X13586214Y-15771500D01*
X13557643Y-15757214D01*
X13500500Y-15757214D01*
X13471928Y-15771500D01*
X13600500Y-15942929D02*
X13571928Y-15957214D01*
X13500500Y-15957214D01*
X13471928Y-15942929D01*
X13457643Y-15914357D01*
X13457643Y-15885786D01*
X13471928Y-15857214D01*
X13500500Y-15842929D01*
X13571928Y-15842929D01*
X13600500Y-15828643D01*
X13700500Y-15757214D02*
X13814786Y-15757214D01*
X13743357Y-15657214D02*
X13743357Y-15914357D01*
X13757643Y-15942929D01*
X13786214Y-15957214D01*
X13814786Y-15957214D01*
X14029071Y-15942929D02*
X14000500Y-15957214D01*
X13943357Y-15957214D01*
X13914786Y-15942929D01*
X13900500Y-15914357D01*
X13900500Y-15800071D01*
X13914786Y-15771500D01*
X13943357Y-15757214D01*
X14000500Y-15757214D01*
X14029071Y-15771500D01*
X14043357Y-15800071D01*
X14043357Y-15828643D01*
X13900500Y-15857214D01*
X14300500Y-15957214D02*
X14300500Y-15657214D01*
X14300500Y-15942929D02*
X14271928Y-15957214D01*
X14214786Y-15957214D01*
X14186214Y-15942929D01*
X14171928Y-15928643D01*
X14157643Y-15900071D01*
X14157643Y-15814357D01*
X14171928Y-15785786D01*
X14186214Y-15771500D01*
X14214786Y-15757214D01*
X14271928Y-15757214D01*
X14300500Y-15771500D01*
X14414786Y-16071500D02*
X14429071Y-16057214D01*
X14457643Y-16014357D01*
X14471928Y-15985786D01*
X14486214Y-15942929D01*
X14500500Y-15871500D01*
X14500500Y-15814357D01*
X14486214Y-15742929D01*
X14471928Y-15700071D01*
X14457643Y-15671500D01*
X14429071Y-15628643D01*
X14414786Y-15614357D01*
X4385500Y-16217500D02*
G75*
G03*
X4385500Y-16217500I-60000J0D01*
G01*
X4829071Y-16353214D02*
X4657643Y-16353214D01*
X4743357Y-16353214D02*
X4743357Y-16053214D01*
X4714786Y-16096071D01*
X4686214Y-16124643D01*
X4657643Y-16138929D01*
X4957643Y-16324643D02*
X4971928Y-16338929D01*
X4957643Y-16353214D01*
X4943357Y-16338929D01*
X4957643Y-16324643D01*
X4957643Y-16353214D01*
X5086214Y-16081786D02*
X5100500Y-16067500D01*
X5129071Y-16053214D01*
X5200500Y-16053214D01*
X5229071Y-16067500D01*
X5243357Y-16081786D01*
X5257643Y-16110357D01*
X5257643Y-16138929D01*
X5243357Y-16181786D01*
X5071928Y-16353214D01*
X5257643Y-16353214D01*
X5443357Y-16053214D02*
X5471928Y-16053214D01*
X5500500Y-16067500D01*
X5514786Y-16081786D01*
X5529071Y-16110357D01*
X5543357Y-16167500D01*
X5543357Y-16238929D01*
X5529071Y-16296071D01*
X5514786Y-16324643D01*
X5500500Y-16338929D01*
X5471928Y-16353214D01*
X5443357Y-16353214D01*
X5414786Y-16338929D01*
X5400500Y-16324643D01*
X5386214Y-16296071D01*
X5371928Y-16238929D01*
X5371928Y-16167500D01*
X5386214Y-16110357D01*
X5400500Y-16081786D01*
X5414786Y-16067500D01*
X5443357Y-16053214D01*
X5729071Y-16053214D02*
X5757643Y-16053214D01*
X5786214Y-16067500D01*
X5800500Y-16081786D01*
X5814786Y-16110357D01*
X5829071Y-16167500D01*
X5829071Y-16238929D01*
X5814786Y-16296071D01*
X5800500Y-16324643D01*
X5786214Y-16338929D01*
X5757643Y-16353214D01*
X5729071Y-16353214D01*
X5700500Y-16338929D01*
X5686214Y-16324643D01*
X5671928Y-16296071D01*
X5657643Y-16238929D01*
X5657643Y-16167500D01*
X5671928Y-16110357D01*
X5686214Y-16081786D01*
X5700500Y-16067500D01*
X5729071Y-16053214D01*
X5957643Y-16353214D02*
X5957643Y-16153214D01*
X5957643Y-16181786D02*
X5971928Y-16167500D01*
X6000500Y-16153214D01*
X6043357Y-16153214D01*
X6071928Y-16167500D01*
X6086214Y-16196071D01*
X6086214Y-16353214D01*
X6086214Y-16196071D02*
X6100500Y-16167500D01*
X6129071Y-16153214D01*
X6171928Y-16153214D01*
X6200500Y-16167500D01*
X6214786Y-16196071D01*
X6214786Y-16353214D01*
X6357643Y-16353214D02*
X6357643Y-16153214D01*
X6357643Y-16181786D02*
X6371928Y-16167500D01*
X6400500Y-16153214D01*
X6443357Y-16153214D01*
X6471928Y-16167500D01*
X6486214Y-16196071D01*
X6486214Y-16353214D01*
X6486214Y-16196071D02*
X6500500Y-16167500D01*
X6529071Y-16153214D01*
X6571928Y-16153214D01*
X6600500Y-16167500D01*
X6614786Y-16196071D01*
X6614786Y-16353214D01*
X7200500Y-16038929D02*
X6943357Y-16424643D01*
X7586214Y-16053214D02*
X7614786Y-16053214D01*
X7643357Y-16067500D01*
X7657643Y-16081786D01*
X7671928Y-16110357D01*
X7686214Y-16167500D01*
X7686214Y-16238929D01*
X7671928Y-16296071D01*
X7657643Y-16324643D01*
X7643357Y-16338929D01*
X7614786Y-16353214D01*
X7586214Y-16353214D01*
X7557643Y-16338929D01*
X7543357Y-16324643D01*
X7529071Y-16296071D01*
X7514786Y-16238929D01*
X7514786Y-16167500D01*
X7529071Y-16110357D01*
X7543357Y-16081786D01*
X7557643Y-16067500D01*
X7586214Y-16053214D01*
X7814786Y-16324643D02*
X7829071Y-16338929D01*
X7814786Y-16353214D01*
X7800500Y-16338929D01*
X7814786Y-16324643D01*
X7814786Y-16353214D01*
X8014786Y-16053214D02*
X8043357Y-16053214D01*
X8071928Y-16067500D01*
X8086214Y-16081786D01*
X8100500Y-16110357D01*
X8114786Y-16167500D01*
X8114786Y-16238929D01*
X8100500Y-16296071D01*
X8086214Y-16324643D01*
X8071928Y-16338929D01*
X8043357Y-16353214D01*
X8014786Y-16353214D01*
X7986214Y-16338929D01*
X7971928Y-16324643D01*
X7957643Y-16296071D01*
X7943357Y-16238929D01*
X7943357Y-16167500D01*
X7957643Y-16110357D01*
X7971928Y-16081786D01*
X7986214Y-16067500D01*
X8014786Y-16053214D01*
X8371928Y-16153214D02*
X8371928Y-16353214D01*
X8300500Y-16038929D02*
X8229071Y-16253214D01*
X8414786Y-16253214D01*
X8500500Y-16053214D02*
X8700500Y-16053214D01*
X8571928Y-16353214D01*
X8800500Y-16081786D02*
X8814786Y-16067500D01*
X8843357Y-16053214D01*
X8914786Y-16053214D01*
X8943357Y-16067500D01*
X8957643Y-16081786D01*
X8971928Y-16110357D01*
X8971928Y-16138929D01*
X8957643Y-16181786D01*
X8786214Y-16353214D01*
X8971928Y-16353214D01*
X9086214Y-16053214D02*
X9086214Y-16110357D01*
X9200500Y-16053214D02*
X9200500Y-16110357D01*
X9643357Y-16467500D02*
X9629071Y-16453214D01*
X9600500Y-16410357D01*
X9586214Y-16381786D01*
X9571928Y-16338929D01*
X9557643Y-16267500D01*
X9557643Y-16210357D01*
X9571928Y-16138929D01*
X9586214Y-16096071D01*
X9600500Y-16067500D01*
X9629071Y-16024643D01*
X9643357Y-16010357D01*
X9743357Y-16081786D02*
X9757643Y-16067500D01*
X9786214Y-16053214D01*
X9857643Y-16053214D01*
X9886214Y-16067500D01*
X9900500Y-16081786D01*
X9914786Y-16110357D01*
X9914786Y-16138929D01*
X9900500Y-16181786D01*
X9729071Y-16353214D01*
X9914786Y-16353214D01*
X10271928Y-16353214D02*
X10271928Y-16053214D01*
X10400500Y-16353214D02*
X10400500Y-16196071D01*
X10386214Y-16167500D01*
X10357643Y-16153214D01*
X10314786Y-16153214D01*
X10286214Y-16167500D01*
X10271928Y-16181786D01*
X10586214Y-16353214D02*
X10557643Y-16338929D01*
X10543357Y-16324643D01*
X10529071Y-16296071D01*
X10529071Y-16210357D01*
X10543357Y-16181786D01*
X10557643Y-16167500D01*
X10586214Y-16153214D01*
X10629071Y-16153214D01*
X10657643Y-16167500D01*
X10671928Y-16181786D01*
X10686214Y-16210357D01*
X10686214Y-16296071D01*
X10671928Y-16324643D01*
X10657643Y-16338929D01*
X10629071Y-16353214D01*
X10586214Y-16353214D01*
X10857643Y-16353214D02*
X10829071Y-16338929D01*
X10814786Y-16310357D01*
X10814786Y-16053214D01*
X11086214Y-16338929D02*
X11057643Y-16353214D01*
X11000500Y-16353214D01*
X10971928Y-16338929D01*
X10957643Y-16310357D01*
X10957643Y-16196071D01*
X10971928Y-16167500D01*
X11000500Y-16153214D01*
X11057643Y-16153214D01*
X11086214Y-16167500D01*
X11100500Y-16196071D01*
X11100500Y-16224643D01*
X10957643Y-16253214D01*
X11214786Y-16338929D02*
X11243357Y-16353214D01*
X11300500Y-16353214D01*
X11329071Y-16338929D01*
X11343357Y-16310357D01*
X11343357Y-16296071D01*
X11329071Y-16267500D01*
X11300500Y-16253214D01*
X11257643Y-16253214D01*
X11229071Y-16238929D01*
X11214786Y-16210357D01*
X11214786Y-16196071D01*
X11229071Y-16167500D01*
X11257643Y-16153214D01*
X11300500Y-16153214D01*
X11329071Y-16167500D01*
X11443357Y-16467500D02*
X11457643Y-16453214D01*
X11486214Y-16410357D01*
X11500500Y-16381786D01*
X11514786Y-16338929D01*
X11529071Y-16267500D01*
X11529071Y-16210357D01*
X11514786Y-16138929D01*
X11500500Y-16096071D01*
X11486214Y-16067500D01*
X11457643Y-16024643D01*
X11443357Y-16010357D01*
X11986214Y-16467500D02*
X11971928Y-16453214D01*
X11943357Y-16410357D01*
X11929071Y-16381786D01*
X11914786Y-16338929D01*
X11900500Y-16267500D01*
X11900500Y-16210357D01*
X11914786Y-16138929D01*
X11929071Y-16096071D01*
X11943357Y-16067500D01*
X11971928Y-16024643D01*
X11986214Y-16010357D01*
X12100500Y-16153214D02*
X12100500Y-16353214D01*
X12100500Y-16181786D02*
X12114786Y-16167500D01*
X12143357Y-16153214D01*
X12186214Y-16153214D01*
X12214786Y-16167500D01*
X12229071Y-16196071D01*
X12229071Y-16353214D01*
X12414786Y-16353214D02*
X12386214Y-16338929D01*
X12371928Y-16324643D01*
X12357643Y-16296071D01*
X12357643Y-16210357D01*
X12371928Y-16181786D01*
X12386214Y-16167500D01*
X12414786Y-16153214D01*
X12457643Y-16153214D01*
X12486214Y-16167500D01*
X12500500Y-16181786D01*
X12514786Y-16210357D01*
X12514786Y-16296071D01*
X12500500Y-16324643D01*
X12486214Y-16338929D01*
X12457643Y-16353214D01*
X12414786Y-16353214D01*
X12600500Y-16153214D02*
X12714786Y-16153214D01*
X12643357Y-16053214D02*
X12643357Y-16310357D01*
X12657643Y-16338929D01*
X12686214Y-16353214D01*
X12714786Y-16353214D01*
X13043357Y-16153214D02*
X13043357Y-16453214D01*
X13043357Y-16167500D02*
X13071928Y-16153214D01*
X13129071Y-16153214D01*
X13157643Y-16167500D01*
X13171928Y-16181786D01*
X13186214Y-16210357D01*
X13186214Y-16296071D01*
X13171928Y-16324643D01*
X13157643Y-16338929D01*
X13129071Y-16353214D01*
X13071928Y-16353214D01*
X13043357Y-16338929D01*
X13357643Y-16353214D02*
X13329071Y-16338929D01*
X13314786Y-16310357D01*
X13314786Y-16053214D01*
X13600500Y-16353214D02*
X13600500Y-16196071D01*
X13586214Y-16167500D01*
X13557643Y-16153214D01*
X13500500Y-16153214D01*
X13471928Y-16167500D01*
X13600500Y-16338929D02*
X13571928Y-16353214D01*
X13500500Y-16353214D01*
X13471928Y-16338929D01*
X13457643Y-16310357D01*
X13457643Y-16281786D01*
X13471928Y-16253214D01*
X13500500Y-16238929D01*
X13571928Y-16238929D01*
X13600500Y-16224643D01*
X13700500Y-16153214D02*
X13814786Y-16153214D01*
X13743357Y-16053214D02*
X13743357Y-16310357D01*
X13757643Y-16338929D01*
X13786214Y-16353214D01*
X13814786Y-16353214D01*
X14029071Y-16338929D02*
X14000500Y-16353214D01*
X13943357Y-16353214D01*
X13914786Y-16338929D01*
X13900500Y-16310357D01*
X13900500Y-16196071D01*
X13914786Y-16167500D01*
X13943357Y-16153214D01*
X14000500Y-16153214D01*
X14029071Y-16167500D01*
X14043357Y-16196071D01*
X14043357Y-16224643D01*
X13900500Y-16253214D01*
X14300500Y-16353214D02*
X14300500Y-16053214D01*
X14300500Y-16338929D02*
X14271928Y-16353214D01*
X14214786Y-16353214D01*
X14186214Y-16338929D01*
X14171928Y-16324643D01*
X14157643Y-16296071D01*
X14157643Y-16210357D01*
X14171928Y-16181786D01*
X14186214Y-16167500D01*
X14214786Y-16153214D01*
X14271928Y-16153214D01*
X14300500Y-16167500D01*
X14414786Y-16467500D02*
X14429071Y-16453214D01*
X14457643Y-16410357D01*
X14471928Y-16381786D01*
X14486214Y-16338929D01*
X14500500Y-16267500D01*
X14500500Y-16210357D01*
X14486214Y-16138929D01*
X14471928Y-16096071D01*
X14457643Y-16067500D01*
X14429071Y-16024643D01*
X14414786Y-16010357D01*
X4305500Y-16533500D02*
X4305500Y-16693500D01*
X4225500Y-16613500D02*
X4385500Y-16613500D01*
X4829071Y-16749214D02*
X4657643Y-16749214D01*
X4743357Y-16749214D02*
X4743357Y-16449214D01*
X4714786Y-16492071D01*
X4686214Y-16520643D01*
X4657643Y-16534929D01*
X4957643Y-16720643D02*
X4971928Y-16734929D01*
X4957643Y-16749214D01*
X4943357Y-16734929D01*
X4957643Y-16720643D01*
X4957643Y-16749214D01*
X5229071Y-16449214D02*
X5171928Y-16449214D01*
X5143357Y-16463500D01*
X5129071Y-16477786D01*
X5100500Y-16520643D01*
X5086214Y-16577786D01*
X5086214Y-16692071D01*
X5100500Y-16720643D01*
X5114786Y-16734929D01*
X5143357Y-16749214D01*
X5200500Y-16749214D01*
X5229071Y-16734929D01*
X5243357Y-16720643D01*
X5257643Y-16692071D01*
X5257643Y-16620643D01*
X5243357Y-16592071D01*
X5229071Y-16577786D01*
X5200500Y-16563500D01*
X5143357Y-16563500D01*
X5114786Y-16577786D01*
X5100500Y-16592071D01*
X5086214Y-16620643D01*
X5443357Y-16449214D02*
X5471928Y-16449214D01*
X5500500Y-16463500D01*
X5514786Y-16477786D01*
X5529071Y-16506357D01*
X5543357Y-16563500D01*
X5543357Y-16634929D01*
X5529071Y-16692071D01*
X5514786Y-16720643D01*
X5500500Y-16734929D01*
X5471928Y-16749214D01*
X5443357Y-16749214D01*
X5414786Y-16734929D01*
X5400500Y-16720643D01*
X5386214Y-16692071D01*
X5371928Y-16634929D01*
X5371928Y-16563500D01*
X5386214Y-16506357D01*
X5400500Y-16477786D01*
X5414786Y-16463500D01*
X5443357Y-16449214D01*
X5729071Y-16449214D02*
X5757643Y-16449214D01*
X5786214Y-16463500D01*
X5800500Y-16477786D01*
X5814786Y-16506357D01*
X5829071Y-16563500D01*
X5829071Y-16634929D01*
X5814786Y-16692071D01*
X5800500Y-16720643D01*
X5786214Y-16734929D01*
X5757643Y-16749214D01*
X5729071Y-16749214D01*
X5700500Y-16734929D01*
X5686214Y-16720643D01*
X5671928Y-16692071D01*
X5657643Y-16634929D01*
X5657643Y-16563500D01*
X5671928Y-16506357D01*
X5686214Y-16477786D01*
X5700500Y-16463500D01*
X5729071Y-16449214D01*
X5957643Y-16749214D02*
X5957643Y-16549214D01*
X5957643Y-16577786D02*
X5971928Y-16563500D01*
X6000500Y-16549214D01*
X6043357Y-16549214D01*
X6071928Y-16563500D01*
X6086214Y-16592071D01*
X6086214Y-16749214D01*
X6086214Y-16592071D02*
X6100500Y-16563500D01*
X6129071Y-16549214D01*
X6171928Y-16549214D01*
X6200500Y-16563500D01*
X6214786Y-16592071D01*
X6214786Y-16749214D01*
X6357643Y-16749214D02*
X6357643Y-16549214D01*
X6357643Y-16577786D02*
X6371928Y-16563500D01*
X6400500Y-16549214D01*
X6443357Y-16549214D01*
X6471928Y-16563500D01*
X6486214Y-16592071D01*
X6486214Y-16749214D01*
X6486214Y-16592071D02*
X6500500Y-16563500D01*
X6529071Y-16549214D01*
X6571928Y-16549214D01*
X6600500Y-16563500D01*
X6614786Y-16592071D01*
X6614786Y-16749214D01*
X7200500Y-16434929D02*
X6943357Y-16820643D01*
X7586214Y-16449214D02*
X7614786Y-16449214D01*
X7643357Y-16463500D01*
X7657643Y-16477786D01*
X7671928Y-16506357D01*
X7686214Y-16563500D01*
X7686214Y-16634929D01*
X7671928Y-16692071D01*
X7657643Y-16720643D01*
X7643357Y-16734929D01*
X7614786Y-16749214D01*
X7586214Y-16749214D01*
X7557643Y-16734929D01*
X7543357Y-16720643D01*
X7529071Y-16692071D01*
X7514786Y-16634929D01*
X7514786Y-16563500D01*
X7529071Y-16506357D01*
X7543357Y-16477786D01*
X7557643Y-16463500D01*
X7586214Y-16449214D01*
X7814786Y-16720643D02*
X7829071Y-16734929D01*
X7814786Y-16749214D01*
X7800500Y-16734929D01*
X7814786Y-16720643D01*
X7814786Y-16749214D01*
X8014786Y-16449214D02*
X8043357Y-16449214D01*
X8071928Y-16463500D01*
X8086214Y-16477786D01*
X8100500Y-16506357D01*
X8114786Y-16563500D01*
X8114786Y-16634929D01*
X8100500Y-16692071D01*
X8086214Y-16720643D01*
X8071928Y-16734929D01*
X8043357Y-16749214D01*
X8014786Y-16749214D01*
X7986214Y-16734929D01*
X7971928Y-16720643D01*
X7957643Y-16692071D01*
X7943357Y-16634929D01*
X7943357Y-16563500D01*
X7957643Y-16506357D01*
X7971928Y-16477786D01*
X7986214Y-16463500D01*
X8014786Y-16449214D01*
X8371928Y-16449214D02*
X8314786Y-16449214D01*
X8286214Y-16463500D01*
X8271928Y-16477786D01*
X8243357Y-16520643D01*
X8229071Y-16577786D01*
X8229071Y-16692071D01*
X8243357Y-16720643D01*
X8257643Y-16734929D01*
X8286214Y-16749214D01*
X8343357Y-16749214D01*
X8371928Y-16734929D01*
X8386214Y-16720643D01*
X8400500Y-16692071D01*
X8400500Y-16620643D01*
X8386214Y-16592071D01*
X8371928Y-16577786D01*
X8343357Y-16563500D01*
X8286214Y-16563500D01*
X8257643Y-16577786D01*
X8243357Y-16592071D01*
X8229071Y-16620643D01*
X8500500Y-16449214D02*
X8686214Y-16449214D01*
X8586214Y-16563500D01*
X8629071Y-16563500D01*
X8657643Y-16577786D01*
X8671928Y-16592071D01*
X8686214Y-16620643D01*
X8686214Y-16692071D01*
X8671928Y-16720643D01*
X8657643Y-16734929D01*
X8629071Y-16749214D01*
X8543357Y-16749214D01*
X8514786Y-16734929D01*
X8500500Y-16720643D01*
X8871928Y-16449214D02*
X8900500Y-16449214D01*
X8929071Y-16463500D01*
X8943357Y-16477786D01*
X8957643Y-16506357D01*
X8971928Y-16563500D01*
X8971928Y-16634929D01*
X8957643Y-16692071D01*
X8943357Y-16720643D01*
X8929071Y-16734929D01*
X8900500Y-16749214D01*
X8871928Y-16749214D01*
X8843357Y-16734929D01*
X8829071Y-16720643D01*
X8814786Y-16692071D01*
X8800500Y-16634929D01*
X8800500Y-16563500D01*
X8814786Y-16506357D01*
X8829071Y-16477786D01*
X8843357Y-16463500D01*
X8871928Y-16449214D01*
X9086214Y-16449214D02*
X9086214Y-16506357D01*
X9200500Y-16449214D02*
X9200500Y-16506357D01*
X9643357Y-16863500D02*
X9629071Y-16849214D01*
X9600500Y-16806357D01*
X9586214Y-16777786D01*
X9571928Y-16734929D01*
X9557643Y-16663500D01*
X9557643Y-16606357D01*
X9571928Y-16534929D01*
X9586214Y-16492071D01*
X9600500Y-16463500D01*
X9629071Y-16420643D01*
X9643357Y-16406357D01*
X9743357Y-16477786D02*
X9757643Y-16463500D01*
X9786214Y-16449214D01*
X9857643Y-16449214D01*
X9886214Y-16463500D01*
X9900500Y-16477786D01*
X9914786Y-16506357D01*
X9914786Y-16534929D01*
X9900500Y-16577786D01*
X9729071Y-16749214D01*
X9914786Y-16749214D01*
X10271928Y-16749214D02*
X10271928Y-16449214D01*
X10400500Y-16749214D02*
X10400500Y-16592071D01*
X10386214Y-16563500D01*
X10357643Y-16549214D01*
X10314786Y-16549214D01*
X10286214Y-16563500D01*
X10271928Y-16577786D01*
X10586214Y-16749214D02*
X10557643Y-16734929D01*
X10543357Y-16720643D01*
X10529071Y-16692071D01*
X10529071Y-16606357D01*
X10543357Y-16577786D01*
X10557643Y-16563500D01*
X10586214Y-16549214D01*
X10629071Y-16549214D01*
X10657643Y-16563500D01*
X10671928Y-16577786D01*
X10686214Y-16606357D01*
X10686214Y-16692071D01*
X10671928Y-16720643D01*
X10657643Y-16734929D01*
X10629071Y-16749214D01*
X10586214Y-16749214D01*
X10857643Y-16749214D02*
X10829071Y-16734929D01*
X10814786Y-16706357D01*
X10814786Y-16449214D01*
X11086214Y-16734929D02*
X11057643Y-16749214D01*
X11000500Y-16749214D01*
X10971928Y-16734929D01*
X10957643Y-16706357D01*
X10957643Y-16592071D01*
X10971928Y-16563500D01*
X11000500Y-16549214D01*
X11057643Y-16549214D01*
X11086214Y-16563500D01*
X11100500Y-16592071D01*
X11100500Y-16620643D01*
X10957643Y-16649214D01*
X11214786Y-16734929D02*
X11243357Y-16749214D01*
X11300500Y-16749214D01*
X11329071Y-16734929D01*
X11343357Y-16706357D01*
X11343357Y-16692071D01*
X11329071Y-16663500D01*
X11300500Y-16649214D01*
X11257643Y-16649214D01*
X11229071Y-16634929D01*
X11214786Y-16606357D01*
X11214786Y-16592071D01*
X11229071Y-16563500D01*
X11257643Y-16549214D01*
X11300500Y-16549214D01*
X11329071Y-16563500D01*
X11443357Y-16863500D02*
X11457643Y-16849214D01*
X11486214Y-16806357D01*
X11500500Y-16777786D01*
X11514786Y-16734929D01*
X11529071Y-16663500D01*
X11529071Y-16606357D01*
X11514786Y-16534929D01*
X11500500Y-16492071D01*
X11486214Y-16463500D01*
X11457643Y-16420643D01*
X11443357Y-16406357D01*
X11986214Y-16863500D02*
X11971928Y-16849214D01*
X11943357Y-16806357D01*
X11929071Y-16777786D01*
X11914786Y-16734929D01*
X11900500Y-16663500D01*
X11900500Y-16606357D01*
X11914786Y-16534929D01*
X11929071Y-16492071D01*
X11943357Y-16463500D01*
X11971928Y-16420643D01*
X11986214Y-16406357D01*
X12100500Y-16549214D02*
X12100500Y-16749214D01*
X12100500Y-16577786D02*
X12114786Y-16563500D01*
X12143357Y-16549214D01*
X12186214Y-16549214D01*
X12214786Y-16563500D01*
X12229071Y-16592071D01*
X12229071Y-16749214D01*
X12414786Y-16749214D02*
X12386214Y-16734929D01*
X12371928Y-16720643D01*
X12357643Y-16692071D01*
X12357643Y-16606357D01*
X12371928Y-16577786D01*
X12386214Y-16563500D01*
X12414786Y-16549214D01*
X12457643Y-16549214D01*
X12486214Y-16563500D01*
X12500500Y-16577786D01*
X12514786Y-16606357D01*
X12514786Y-16692071D01*
X12500500Y-16720643D01*
X12486214Y-16734929D01*
X12457643Y-16749214D01*
X12414786Y-16749214D01*
X12600500Y-16549214D02*
X12714786Y-16549214D01*
X12643357Y-16449214D02*
X12643357Y-16706357D01*
X12657643Y-16734929D01*
X12686214Y-16749214D01*
X12714786Y-16749214D01*
X13043357Y-16549214D02*
X13043357Y-16849214D01*
X13043357Y-16563500D02*
X13071928Y-16549214D01*
X13129071Y-16549214D01*
X13157643Y-16563500D01*
X13171928Y-16577786D01*
X13186214Y-16606357D01*
X13186214Y-16692071D01*
X13171928Y-16720643D01*
X13157643Y-16734929D01*
X13129071Y-16749214D01*
X13071928Y-16749214D01*
X13043357Y-16734929D01*
X13357643Y-16749214D02*
X13329071Y-16734929D01*
X13314786Y-16706357D01*
X13314786Y-16449214D01*
X13600500Y-16749214D02*
X13600500Y-16592071D01*
X13586214Y-16563500D01*
X13557643Y-16549214D01*
X13500500Y-16549214D01*
X13471928Y-16563500D01*
X13600500Y-16734929D02*
X13571928Y-16749214D01*
X13500500Y-16749214D01*
X13471928Y-16734929D01*
X13457643Y-16706357D01*
X13457643Y-16677786D01*
X13471928Y-16649214D01*
X13500500Y-16634929D01*
X13571928Y-16634929D01*
X13600500Y-16620643D01*
X13700500Y-16549214D02*
X13814786Y-16549214D01*
X13743357Y-16449214D02*
X13743357Y-16706357D01*
X13757643Y-16734929D01*
X13786214Y-16749214D01*
X13814786Y-16749214D01*
X14029071Y-16734929D02*
X14000500Y-16749214D01*
X13943357Y-16749214D01*
X13914786Y-16734929D01*
X13900500Y-16706357D01*
X13900500Y-16592071D01*
X13914786Y-16563500D01*
X13943357Y-16549214D01*
X14000500Y-16549214D01*
X14029071Y-16563500D01*
X14043357Y-16592071D01*
X14043357Y-16620643D01*
X13900500Y-16649214D01*
X14300500Y-16749214D02*
X14300500Y-16449214D01*
X14300500Y-16734929D02*
X14271928Y-16749214D01*
X14214786Y-16749214D01*
X14186214Y-16734929D01*
X14171928Y-16720643D01*
X14157643Y-16692071D01*
X14157643Y-16606357D01*
X14171928Y-16577786D01*
X14186214Y-16563500D01*
X14214786Y-16549214D01*
X14271928Y-16549214D01*
X14300500Y-16563500D01*
X14414786Y-16863500D02*
X14429071Y-16849214D01*
X14457643Y-16806357D01*
X14471928Y-16777786D01*
X14486214Y-16734929D01*
X14500500Y-16663500D01*
X14500500Y-16606357D01*
X14486214Y-16534929D01*
X14471928Y-16492071D01*
X14457643Y-16463500D01*
X14429071Y-16420643D01*
X14414786Y-16406357D01*
M02*
