%TF.GenerationSoftware,KiCad,Pcbnew,(5.1.10)-1*%
%TF.CreationDate,2022-07-03T20:16:09+06:00*%
%TF.ProjectId,CM3_IO_Board,434d335f-494f-45f4-926f-6172642e6b69,rev?*%
%TF.SameCoordinates,Original*%
%TF.FileFunction,Legend,Top*%
%TF.FilePolarity,Positive*%
%FSLAX46Y46*%
G04 Gerber Fmt 4.6, Leading zero omitted, Abs format (unit mm)*
G04 Created by KiCad (PCBNEW (5.1.10)-1) date 2022-07-03 20:16:09*
%MOMM*%
%LPD*%
G01*
G04 APERTURE LIST*
%ADD10C,0.150000*%
%ADD11C,0.010000*%
%ADD12C,0.120000*%
%ADD13C,0.100000*%
%ADD14C,0.250000*%
%ADD15C,0.254000*%
%ADD16R,2.000000X0.600000*%
%ADD17R,3.200000X2.300000*%
%ADD18C,1.600000*%
%ADD19C,1.100000*%
%ADD20R,2.000000X0.350000*%
%ADD21R,4.600000X4.500000*%
%ADD22R,1.700000X1.700000*%
%ADD23O,1.700000X1.700000*%
%ADD24R,4.400000X2.300000*%
%ADD25R,4.000000X2.300000*%
%ADD26R,1.350000X0.400000*%
%ADD27O,0.950000X1.250000*%
%ADD28R,1.550000X1.500000*%
%ADD29R,1.550000X1.200000*%
%ADD30O,1.550000X0.890000*%
%ADD31R,3.000000X3.000000*%
%ADD32C,3.000000*%
%ADD33R,1.200000X0.700000*%
%ADD34R,1.200000X1.000000*%
%ADD35R,0.800000X1.000000*%
%ADD36R,2.800000X1.000000*%
%ADD37R,1.900000X1.300000*%
%ADD38R,1.500000X1.600000*%
%ADD39R,3.600000X1.500000*%
%ADD40R,0.900000X0.800000*%
%ADD41R,0.400000X1.200000*%
%ADD42R,1.700000X2.500000*%
%ADD43C,1.500000*%
%ADD44C,5.000000*%
%ADD45C,2.900000*%
G04 APERTURE END LIST*
D10*
X96380788Y-74005761D02*
X96630788Y-72005761D01*
X97106979Y-72005761D01*
X97380788Y-72101000D01*
X97547455Y-72291476D01*
X97618883Y-72481952D01*
X97666502Y-72862904D01*
X97630788Y-73148619D01*
X97487931Y-73529571D01*
X97368883Y-73720047D01*
X97154598Y-73910523D01*
X96856979Y-74005761D01*
X96380788Y-74005761D01*
X98511741Y-72958142D02*
X99178407Y-72958142D01*
X99333169Y-74005761D02*
X98380788Y-74005761D01*
X98630788Y-72005761D01*
X99583169Y-72005761D01*
X100106979Y-73910523D02*
X100380788Y-74005761D01*
X100856979Y-74005761D01*
X101059360Y-73910523D01*
X101166502Y-73815285D01*
X101285550Y-73624809D01*
X101309360Y-73434333D01*
X101237931Y-73243857D01*
X101154598Y-73148619D01*
X100976026Y-73053380D01*
X100606979Y-72958142D01*
X100428407Y-72862904D01*
X100345074Y-72767666D01*
X100273645Y-72577190D01*
X100297455Y-72386714D01*
X100416502Y-72196238D01*
X100523645Y-72101000D01*
X100726026Y-72005761D01*
X101202217Y-72005761D01*
X101476026Y-72101000D01*
X102095074Y-74005761D02*
X102345074Y-72005761D01*
X104333169Y-72101000D02*
X104154598Y-72005761D01*
X103868883Y-72005761D01*
X103571264Y-72101000D01*
X103356979Y-72291476D01*
X103237931Y-72481952D01*
X103095074Y-72862904D01*
X103059360Y-73148619D01*
X103106979Y-73529571D01*
X103178407Y-73720047D01*
X103345074Y-73910523D01*
X103618883Y-74005761D01*
X103809360Y-74005761D01*
X104106979Y-73910523D01*
X104214122Y-73815285D01*
X104297455Y-73148619D01*
X103916502Y-73148619D01*
X105047455Y-74005761D02*
X105297455Y-72005761D01*
X106190312Y-74005761D01*
X106440312Y-72005761D01*
X107273645Y-72958142D02*
X107940312Y-72958142D01*
X108095074Y-74005761D02*
X107142693Y-74005761D01*
X107392693Y-72005761D01*
X108345074Y-72005761D01*
X108952217Y-74005761D02*
X109202217Y-72005761D01*
X109678407Y-72005761D01*
X109952217Y-72101000D01*
X110118883Y-72291476D01*
X110190312Y-72481952D01*
X110237931Y-72862904D01*
X110202217Y-73148619D01*
X110059360Y-73529571D01*
X109940312Y-73720047D01*
X109726026Y-73910523D01*
X109428407Y-74005761D01*
X108952217Y-74005761D01*
X103368883Y-76108142D02*
X103642693Y-76203380D01*
X103726026Y-76298619D01*
X103797455Y-76489095D01*
X103761741Y-76774809D01*
X103642693Y-76965285D01*
X103535550Y-77060523D01*
X103333169Y-77155761D01*
X102571264Y-77155761D01*
X102821264Y-75155761D01*
X103487931Y-75155761D01*
X103666502Y-75251000D01*
X103749836Y-75346238D01*
X103821264Y-75536714D01*
X103797455Y-75727190D01*
X103678407Y-75917666D01*
X103571264Y-76012904D01*
X103368883Y-76108142D01*
X102702217Y-76108142D01*
X105071264Y-76203380D02*
X104952217Y-77155761D01*
X104535550Y-75155761D02*
X105071264Y-76203380D01*
X105868883Y-75155761D01*
X118816380Y-134690952D02*
X118816380Y-135167142D01*
X117816380Y-135167142D01*
X117816380Y-134500476D02*
X117816380Y-133929047D01*
X118816380Y-134214761D02*
X117816380Y-134214761D01*
X118292571Y-133595714D02*
X118292571Y-133262380D01*
X118816380Y-133119523D02*
X118816380Y-133595714D01*
X117816380Y-133595714D01*
X117816380Y-133119523D01*
X118816380Y-131929047D02*
X117816380Y-131929047D01*
X118530666Y-131595714D01*
X117816380Y-131262380D01*
X118816380Y-131262380D01*
X117816380Y-130595714D02*
X117816380Y-130405238D01*
X117864000Y-130310000D01*
X117959238Y-130214761D01*
X118149714Y-130167142D01*
X118483047Y-130167142D01*
X118673523Y-130214761D01*
X118768761Y-130310000D01*
X118816380Y-130405238D01*
X118816380Y-130595714D01*
X118768761Y-130690952D01*
X118673523Y-130786190D01*
X118483047Y-130833809D01*
X118149714Y-130833809D01*
X117959238Y-130786190D01*
X117864000Y-130690952D01*
X117816380Y-130595714D01*
X118816380Y-129738571D02*
X117816380Y-129738571D01*
X117816380Y-129500476D01*
X117864000Y-129357619D01*
X117959238Y-129262380D01*
X118054476Y-129214761D01*
X118244952Y-129167142D01*
X118387809Y-129167142D01*
X118578285Y-129214761D01*
X118673523Y-129262380D01*
X118768761Y-129357619D01*
X118816380Y-129500476D01*
X118816380Y-129738571D01*
X117816380Y-128738571D02*
X118625904Y-128738571D01*
X118721142Y-128690952D01*
X118768761Y-128643333D01*
X118816380Y-128548095D01*
X118816380Y-128357619D01*
X118768761Y-128262380D01*
X118721142Y-128214761D01*
X118625904Y-128167142D01*
X117816380Y-128167142D01*
X118816380Y-127214761D02*
X118816380Y-127690952D01*
X117816380Y-127690952D01*
X118292571Y-126881428D02*
X118292571Y-126548095D01*
X118816380Y-126405238D02*
X118816380Y-126881428D01*
X117816380Y-126881428D01*
X117816380Y-126405238D01*
X52014380Y-96940476D02*
X52014380Y-97511904D01*
X52014380Y-97226190D02*
X51014380Y-97226190D01*
X51157238Y-97321428D01*
X51252476Y-97416666D01*
X51300095Y-97511904D01*
X51109619Y-96559523D02*
X51062000Y-96511904D01*
X51014380Y-96416666D01*
X51014380Y-96178571D01*
X51062000Y-96083333D01*
X51109619Y-96035714D01*
X51204857Y-95988095D01*
X51300095Y-95988095D01*
X51442952Y-96035714D01*
X52014380Y-96607142D01*
X52014380Y-95988095D01*
X52014380Y-95559523D02*
X51014380Y-95559523D01*
X51728666Y-95226190D01*
X51014380Y-94892857D01*
X52014380Y-94892857D01*
X52014380Y-94416666D02*
X51014380Y-94416666D01*
X51490571Y-94416666D02*
X51490571Y-93845238D01*
X52014380Y-93845238D02*
X51014380Y-93845238D01*
X51347714Y-93464285D02*
X51347714Y-92940476D01*
X52014380Y-93464285D01*
X52014380Y-92940476D01*
X86257238Y-56348380D02*
X86257238Y-57062666D01*
X86209619Y-57205523D01*
X86114380Y-57300761D01*
X85971523Y-57348380D01*
X85876285Y-57348380D01*
X86638190Y-56348380D02*
X87257238Y-56348380D01*
X86923904Y-56729333D01*
X87066761Y-56729333D01*
X87162000Y-56776952D01*
X87209619Y-56824571D01*
X87257238Y-56919809D01*
X87257238Y-57157904D01*
X87209619Y-57253142D01*
X87162000Y-57300761D01*
X87066761Y-57348380D01*
X86781047Y-57348380D01*
X86685809Y-57300761D01*
X86638190Y-57253142D01*
X88447714Y-57348380D02*
X88447714Y-56348380D01*
X88828666Y-56348380D01*
X88923904Y-56396000D01*
X88971523Y-56443619D01*
X89019142Y-56538857D01*
X89019142Y-56681714D01*
X88971523Y-56776952D01*
X88923904Y-56824571D01*
X88828666Y-56872190D01*
X88447714Y-56872190D01*
X89447714Y-57348380D02*
X89447714Y-56348380D01*
X89923904Y-57348380D02*
X89923904Y-56348380D01*
X90495333Y-57348380D01*
X90495333Y-56348380D01*
X91162000Y-56348380D02*
X91352476Y-56348380D01*
X91447714Y-56396000D01*
X91542952Y-56491238D01*
X91590571Y-56681714D01*
X91590571Y-57015047D01*
X91542952Y-57205523D01*
X91447714Y-57300761D01*
X91352476Y-57348380D01*
X91162000Y-57348380D01*
X91066761Y-57300761D01*
X90971523Y-57205523D01*
X90923904Y-57015047D01*
X90923904Y-56681714D01*
X90971523Y-56491238D01*
X91066761Y-56396000D01*
X91162000Y-56348380D01*
X92019142Y-56348380D02*
X92019142Y-57157904D01*
X92066761Y-57253142D01*
X92114380Y-57300761D01*
X92209619Y-57348380D01*
X92400095Y-57348380D01*
X92495333Y-57300761D01*
X92542952Y-57253142D01*
X92590571Y-57157904D01*
X92590571Y-56348380D01*
X92923904Y-56348380D02*
X93495333Y-56348380D01*
X93209619Y-57348380D02*
X93209619Y-56348380D01*
X85344190Y-65492380D02*
X85153714Y-65492380D01*
X85058476Y-65540000D01*
X85010857Y-65587619D01*
X84915619Y-65730476D01*
X84868000Y-65920952D01*
X84868000Y-66301904D01*
X84915619Y-66397142D01*
X84963238Y-66444761D01*
X85058476Y-66492380D01*
X85248952Y-66492380D01*
X85344190Y-66444761D01*
X85391809Y-66397142D01*
X85439428Y-66301904D01*
X85439428Y-66063809D01*
X85391809Y-65968571D01*
X85344190Y-65920952D01*
X85248952Y-65873333D01*
X85058476Y-65873333D01*
X84963238Y-65920952D01*
X84915619Y-65968571D01*
X84868000Y-66063809D01*
X85868000Y-66397142D02*
X85915619Y-66444761D01*
X85868000Y-66492380D01*
X85820380Y-66444761D01*
X85868000Y-66397142D01*
X85868000Y-66492380D01*
X85868000Y-65873333D02*
X85915619Y-65920952D01*
X85868000Y-65968571D01*
X85820380Y-65920952D01*
X85868000Y-65873333D01*
X85868000Y-65968571D01*
X86344190Y-66492380D02*
X86344190Y-65492380D01*
X86915619Y-66492380D01*
X86915619Y-65492380D01*
X88106095Y-65444761D02*
X87248952Y-66730476D01*
X88391809Y-66206666D02*
X88868000Y-66206666D01*
X88296571Y-66492380D02*
X88629904Y-65492380D01*
X88963238Y-66492380D01*
X85455619Y-64222380D02*
X84979428Y-64222380D01*
X84931809Y-64698571D01*
X84979428Y-64650952D01*
X85074666Y-64603333D01*
X85312761Y-64603333D01*
X85408000Y-64650952D01*
X85455619Y-64698571D01*
X85503238Y-64793809D01*
X85503238Y-65031904D01*
X85455619Y-65127142D01*
X85408000Y-65174761D01*
X85312761Y-65222380D01*
X85074666Y-65222380D01*
X84979428Y-65174761D01*
X84931809Y-65127142D01*
X85931809Y-65127142D02*
X85979428Y-65174761D01*
X85931809Y-65222380D01*
X85884190Y-65174761D01*
X85931809Y-65127142D01*
X85931809Y-65222380D01*
X85931809Y-64603333D02*
X85979428Y-64650952D01*
X85931809Y-64698571D01*
X85884190Y-64650952D01*
X85931809Y-64603333D01*
X85931809Y-64698571D01*
X86360380Y-65174761D02*
X86503238Y-65222380D01*
X86741333Y-65222380D01*
X86836571Y-65174761D01*
X86884190Y-65127142D01*
X86931809Y-65031904D01*
X86931809Y-64936666D01*
X86884190Y-64841428D01*
X86836571Y-64793809D01*
X86741333Y-64746190D01*
X86550857Y-64698571D01*
X86455619Y-64650952D01*
X86408000Y-64603333D01*
X86360380Y-64508095D01*
X86360380Y-64412857D01*
X86408000Y-64317619D01*
X86455619Y-64270000D01*
X86550857Y-64222380D01*
X86788952Y-64222380D01*
X86931809Y-64270000D01*
X87360380Y-65222380D02*
X87360380Y-64222380D01*
X87741333Y-64222380D01*
X87836571Y-64270000D01*
X87884190Y-64317619D01*
X87931809Y-64412857D01*
X87931809Y-64555714D01*
X87884190Y-64650952D01*
X87836571Y-64698571D01*
X87741333Y-64746190D01*
X87360380Y-64746190D01*
X88360380Y-65222380D02*
X88360380Y-64222380D01*
X89027047Y-64222380D02*
X89122285Y-64222380D01*
X89217523Y-64270000D01*
X89265142Y-64317619D01*
X89312761Y-64412857D01*
X89360380Y-64603333D01*
X89360380Y-64841428D01*
X89312761Y-65031904D01*
X89265142Y-65127142D01*
X89217523Y-65174761D01*
X89122285Y-65222380D01*
X89027047Y-65222380D01*
X88931809Y-65174761D01*
X88884190Y-65127142D01*
X88836571Y-65031904D01*
X88788952Y-64841428D01*
X88788952Y-64603333D01*
X88836571Y-64412857D01*
X88884190Y-64317619D01*
X88931809Y-64270000D01*
X89027047Y-64222380D01*
X89550857Y-65317619D02*
X90312761Y-65317619D01*
X90503238Y-65174761D02*
X90646095Y-65222380D01*
X90884190Y-65222380D01*
X90979428Y-65174761D01*
X91027047Y-65127142D01*
X91074666Y-65031904D01*
X91074666Y-64936666D01*
X91027047Y-64841428D01*
X90979428Y-64793809D01*
X90884190Y-64746190D01*
X90693714Y-64698571D01*
X90598476Y-64650952D01*
X90550857Y-64603333D01*
X90503238Y-64508095D01*
X90503238Y-64412857D01*
X90550857Y-64317619D01*
X90598476Y-64270000D01*
X90693714Y-64222380D01*
X90931809Y-64222380D01*
X91074666Y-64270000D01*
X92074666Y-65127142D02*
X92027047Y-65174761D01*
X91884190Y-65222380D01*
X91788952Y-65222380D01*
X91646095Y-65174761D01*
X91550857Y-65079523D01*
X91503238Y-64984285D01*
X91455619Y-64793809D01*
X91455619Y-64650952D01*
X91503238Y-64460476D01*
X91550857Y-64365238D01*
X91646095Y-64270000D01*
X91788952Y-64222380D01*
X91884190Y-64222380D01*
X92027047Y-64270000D01*
X92074666Y-64317619D01*
X92979428Y-65222380D02*
X92503238Y-65222380D01*
X92503238Y-64222380D01*
X93312761Y-65222380D02*
X93312761Y-64222380D01*
X93884190Y-65222380D02*
X93455619Y-64650952D01*
X93884190Y-64222380D02*
X93312761Y-64793809D01*
X85479428Y-63031714D02*
X85479428Y-63698380D01*
X85241333Y-62650761D02*
X85003238Y-63365047D01*
X85622285Y-63365047D01*
X86003238Y-63603142D02*
X86050857Y-63650761D01*
X86003238Y-63698380D01*
X85955619Y-63650761D01*
X86003238Y-63603142D01*
X86003238Y-63698380D01*
X86003238Y-63079333D02*
X86050857Y-63126952D01*
X86003238Y-63174571D01*
X85955619Y-63126952D01*
X86003238Y-63079333D01*
X86003238Y-63174571D01*
X86431809Y-63650761D02*
X86574666Y-63698380D01*
X86812761Y-63698380D01*
X86908000Y-63650761D01*
X86955619Y-63603142D01*
X87003238Y-63507904D01*
X87003238Y-63412666D01*
X86955619Y-63317428D01*
X86908000Y-63269809D01*
X86812761Y-63222190D01*
X86622285Y-63174571D01*
X86527047Y-63126952D01*
X86479428Y-63079333D01*
X86431809Y-62984095D01*
X86431809Y-62888857D01*
X86479428Y-62793619D01*
X86527047Y-62746000D01*
X86622285Y-62698380D01*
X86860380Y-62698380D01*
X87003238Y-62746000D01*
X87431809Y-63698380D02*
X87431809Y-62698380D01*
X87812761Y-62698380D01*
X87908000Y-62746000D01*
X87955619Y-62793619D01*
X88003238Y-62888857D01*
X88003238Y-63031714D01*
X87955619Y-63126952D01*
X87908000Y-63174571D01*
X87812761Y-63222190D01*
X87431809Y-63222190D01*
X88431809Y-63698380D02*
X88431809Y-62698380D01*
X89098476Y-62698380D02*
X89193714Y-62698380D01*
X89288952Y-62746000D01*
X89336571Y-62793619D01*
X89384190Y-62888857D01*
X89431809Y-63079333D01*
X89431809Y-63317428D01*
X89384190Y-63507904D01*
X89336571Y-63603142D01*
X89288952Y-63650761D01*
X89193714Y-63698380D01*
X89098476Y-63698380D01*
X89003238Y-63650761D01*
X88955619Y-63603142D01*
X88908000Y-63507904D01*
X88860380Y-63317428D01*
X88860380Y-63079333D01*
X88908000Y-62888857D01*
X88955619Y-62793619D01*
X89003238Y-62746000D01*
X89098476Y-62698380D01*
X89622285Y-63793619D02*
X90384190Y-63793619D01*
X90622285Y-63698380D02*
X90622285Y-62698380D01*
X90955619Y-63412666D01*
X91288952Y-62698380D01*
X91288952Y-63698380D01*
X91955619Y-62698380D02*
X92146095Y-62698380D01*
X92241333Y-62746000D01*
X92336571Y-62841238D01*
X92384190Y-63031714D01*
X92384190Y-63365047D01*
X92336571Y-63555523D01*
X92241333Y-63650761D01*
X92146095Y-63698380D01*
X91955619Y-63698380D01*
X91860380Y-63650761D01*
X91765142Y-63555523D01*
X91717523Y-63365047D01*
X91717523Y-63031714D01*
X91765142Y-62841238D01*
X91860380Y-62746000D01*
X91955619Y-62698380D01*
X92765142Y-63650761D02*
X92908000Y-63698380D01*
X93146095Y-63698380D01*
X93241333Y-63650761D01*
X93288952Y-63603142D01*
X93336571Y-63507904D01*
X93336571Y-63412666D01*
X93288952Y-63317428D01*
X93241333Y-63269809D01*
X93146095Y-63222190D01*
X92955619Y-63174571D01*
X92860380Y-63126952D01*
X92812761Y-63079333D01*
X92765142Y-62984095D01*
X92765142Y-62888857D01*
X92812761Y-62793619D01*
X92860380Y-62746000D01*
X92955619Y-62698380D01*
X93193714Y-62698380D01*
X93336571Y-62746000D01*
X93765142Y-63698380D02*
X93765142Y-62698380D01*
X84955619Y-61174380D02*
X85574666Y-61174380D01*
X85241333Y-61555333D01*
X85384190Y-61555333D01*
X85479428Y-61602952D01*
X85527047Y-61650571D01*
X85574666Y-61745809D01*
X85574666Y-61983904D01*
X85527047Y-62079142D01*
X85479428Y-62126761D01*
X85384190Y-62174380D01*
X85098476Y-62174380D01*
X85003238Y-62126761D01*
X84955619Y-62079142D01*
X86003238Y-62079142D02*
X86050857Y-62126761D01*
X86003238Y-62174380D01*
X85955619Y-62126761D01*
X86003238Y-62079142D01*
X86003238Y-62174380D01*
X86003238Y-61555333D02*
X86050857Y-61602952D01*
X86003238Y-61650571D01*
X85955619Y-61602952D01*
X86003238Y-61555333D01*
X86003238Y-61650571D01*
X86431809Y-62126761D02*
X86574666Y-62174380D01*
X86812761Y-62174380D01*
X86908000Y-62126761D01*
X86955619Y-62079142D01*
X87003238Y-61983904D01*
X87003238Y-61888666D01*
X86955619Y-61793428D01*
X86908000Y-61745809D01*
X86812761Y-61698190D01*
X86622285Y-61650571D01*
X86527047Y-61602952D01*
X86479428Y-61555333D01*
X86431809Y-61460095D01*
X86431809Y-61364857D01*
X86479428Y-61269619D01*
X86527047Y-61222000D01*
X86622285Y-61174380D01*
X86860380Y-61174380D01*
X87003238Y-61222000D01*
X87431809Y-62174380D02*
X87431809Y-61174380D01*
X87812761Y-61174380D01*
X87908000Y-61222000D01*
X87955619Y-61269619D01*
X88003238Y-61364857D01*
X88003238Y-61507714D01*
X87955619Y-61602952D01*
X87908000Y-61650571D01*
X87812761Y-61698190D01*
X87431809Y-61698190D01*
X88431809Y-62174380D02*
X88431809Y-61174380D01*
X89098476Y-61174380D02*
X89193714Y-61174380D01*
X89288952Y-61222000D01*
X89336571Y-61269619D01*
X89384190Y-61364857D01*
X89431809Y-61555333D01*
X89431809Y-61793428D01*
X89384190Y-61983904D01*
X89336571Y-62079142D01*
X89288952Y-62126761D01*
X89193714Y-62174380D01*
X89098476Y-62174380D01*
X89003238Y-62126761D01*
X88955619Y-62079142D01*
X88908000Y-61983904D01*
X88860380Y-61793428D01*
X88860380Y-61555333D01*
X88908000Y-61364857D01*
X88955619Y-61269619D01*
X89003238Y-61222000D01*
X89098476Y-61174380D01*
X89622285Y-62269619D02*
X90384190Y-62269619D01*
X90622285Y-62174380D02*
X90622285Y-61174380D01*
X90955619Y-61888666D01*
X91288952Y-61174380D01*
X91288952Y-62174380D01*
X91765142Y-62174380D02*
X91765142Y-61174380D01*
X92193714Y-62126761D02*
X92336571Y-62174380D01*
X92574666Y-62174380D01*
X92669904Y-62126761D01*
X92717523Y-62079142D01*
X92765142Y-61983904D01*
X92765142Y-61888666D01*
X92717523Y-61793428D01*
X92669904Y-61745809D01*
X92574666Y-61698190D01*
X92384190Y-61650571D01*
X92288952Y-61602952D01*
X92241333Y-61555333D01*
X92193714Y-61460095D01*
X92193714Y-61364857D01*
X92241333Y-61269619D01*
X92288952Y-61222000D01*
X92384190Y-61174380D01*
X92622285Y-61174380D01*
X92765142Y-61222000D01*
X93384190Y-61174380D02*
X93574666Y-61174380D01*
X93669904Y-61222000D01*
X93765142Y-61317238D01*
X93812761Y-61507714D01*
X93812761Y-61841047D01*
X93765142Y-62031523D01*
X93669904Y-62126761D01*
X93574666Y-62174380D01*
X93384190Y-62174380D01*
X93288952Y-62126761D01*
X93193714Y-62031523D01*
X93146095Y-61841047D01*
X93146095Y-61507714D01*
X93193714Y-61317238D01*
X93288952Y-61222000D01*
X93384190Y-61174380D01*
X84987428Y-59745619D02*
X85035047Y-59698000D01*
X85130285Y-59650380D01*
X85368380Y-59650380D01*
X85463619Y-59698000D01*
X85511238Y-59745619D01*
X85558857Y-59840857D01*
X85558857Y-59936095D01*
X85511238Y-60078952D01*
X84939809Y-60650380D01*
X85558857Y-60650380D01*
X85987428Y-60555142D02*
X86035047Y-60602761D01*
X85987428Y-60650380D01*
X85939809Y-60602761D01*
X85987428Y-60555142D01*
X85987428Y-60650380D01*
X85987428Y-60031333D02*
X86035047Y-60078952D01*
X85987428Y-60126571D01*
X85939809Y-60078952D01*
X85987428Y-60031333D01*
X85987428Y-60126571D01*
X86416000Y-60602761D02*
X86558857Y-60650380D01*
X86796952Y-60650380D01*
X86892190Y-60602761D01*
X86939809Y-60555142D01*
X86987428Y-60459904D01*
X86987428Y-60364666D01*
X86939809Y-60269428D01*
X86892190Y-60221809D01*
X86796952Y-60174190D01*
X86606476Y-60126571D01*
X86511238Y-60078952D01*
X86463619Y-60031333D01*
X86416000Y-59936095D01*
X86416000Y-59840857D01*
X86463619Y-59745619D01*
X86511238Y-59698000D01*
X86606476Y-59650380D01*
X86844571Y-59650380D01*
X86987428Y-59698000D01*
X87416000Y-60650380D02*
X87416000Y-59650380D01*
X87796952Y-59650380D01*
X87892190Y-59698000D01*
X87939809Y-59745619D01*
X87987428Y-59840857D01*
X87987428Y-59983714D01*
X87939809Y-60078952D01*
X87892190Y-60126571D01*
X87796952Y-60174190D01*
X87416000Y-60174190D01*
X88416000Y-60650380D02*
X88416000Y-59650380D01*
X89082666Y-59650380D02*
X89177904Y-59650380D01*
X89273142Y-59698000D01*
X89320761Y-59745619D01*
X89368380Y-59840857D01*
X89416000Y-60031333D01*
X89416000Y-60269428D01*
X89368380Y-60459904D01*
X89320761Y-60555142D01*
X89273142Y-60602761D01*
X89177904Y-60650380D01*
X89082666Y-60650380D01*
X88987428Y-60602761D01*
X88939809Y-60555142D01*
X88892190Y-60459904D01*
X88844571Y-60269428D01*
X88844571Y-60031333D01*
X88892190Y-59840857D01*
X88939809Y-59745619D01*
X88987428Y-59698000D01*
X89082666Y-59650380D01*
X89606476Y-60745619D02*
X90368380Y-60745619D01*
X91177904Y-60555142D02*
X91130285Y-60602761D01*
X90987428Y-60650380D01*
X90892190Y-60650380D01*
X90749333Y-60602761D01*
X90654095Y-60507523D01*
X90606476Y-60412285D01*
X90558857Y-60221809D01*
X90558857Y-60078952D01*
X90606476Y-59888476D01*
X90654095Y-59793238D01*
X90749333Y-59698000D01*
X90892190Y-59650380D01*
X90987428Y-59650380D01*
X91130285Y-59698000D01*
X91177904Y-59745619D01*
X91606476Y-60126571D02*
X91939809Y-60126571D01*
X92082666Y-60650380D02*
X91606476Y-60650380D01*
X91606476Y-59650380D01*
X92082666Y-59650380D01*
X92701714Y-59650380D02*
X92796952Y-59650380D01*
X92892190Y-59698000D01*
X92939809Y-59745619D01*
X92987428Y-59840857D01*
X93035047Y-60031333D01*
X93035047Y-60269428D01*
X92987428Y-60459904D01*
X92939809Y-60555142D01*
X92892190Y-60602761D01*
X92796952Y-60650380D01*
X92701714Y-60650380D01*
X92606476Y-60602761D01*
X92558857Y-60555142D01*
X92511238Y-60459904D01*
X92463619Y-60269428D01*
X92463619Y-60031333D01*
X92511238Y-59840857D01*
X92558857Y-59745619D01*
X92606476Y-59698000D01*
X92701714Y-59650380D01*
X93225523Y-60745619D02*
X93987428Y-60745619D01*
X94225523Y-60650380D02*
X94225523Y-59650380D01*
X94796952Y-60650380D01*
X94796952Y-59650380D01*
X85558857Y-59126380D02*
X84987428Y-59126380D01*
X85273142Y-59126380D02*
X85273142Y-58126380D01*
X85177904Y-58269238D01*
X85082666Y-58364476D01*
X84987428Y-58412095D01*
X85987428Y-59031142D02*
X86035047Y-59078761D01*
X85987428Y-59126380D01*
X85939809Y-59078761D01*
X85987428Y-59031142D01*
X85987428Y-59126380D01*
X85987428Y-58507333D02*
X86035047Y-58554952D01*
X85987428Y-58602571D01*
X85939809Y-58554952D01*
X85987428Y-58507333D01*
X85987428Y-58602571D01*
X86416000Y-59078761D02*
X86558857Y-59126380D01*
X86796952Y-59126380D01*
X86892190Y-59078761D01*
X86939809Y-59031142D01*
X86987428Y-58935904D01*
X86987428Y-58840666D01*
X86939809Y-58745428D01*
X86892190Y-58697809D01*
X86796952Y-58650190D01*
X86606476Y-58602571D01*
X86511238Y-58554952D01*
X86463619Y-58507333D01*
X86416000Y-58412095D01*
X86416000Y-58316857D01*
X86463619Y-58221619D01*
X86511238Y-58174000D01*
X86606476Y-58126380D01*
X86844571Y-58126380D01*
X86987428Y-58174000D01*
X87416000Y-59126380D02*
X87416000Y-58126380D01*
X87796952Y-58126380D01*
X87892190Y-58174000D01*
X87939809Y-58221619D01*
X87987428Y-58316857D01*
X87987428Y-58459714D01*
X87939809Y-58554952D01*
X87892190Y-58602571D01*
X87796952Y-58650190D01*
X87416000Y-58650190D01*
X88416000Y-59126380D02*
X88416000Y-58126380D01*
X89082666Y-58126380D02*
X89177904Y-58126380D01*
X89273142Y-58174000D01*
X89320761Y-58221619D01*
X89368380Y-58316857D01*
X89416000Y-58507333D01*
X89416000Y-58745428D01*
X89368380Y-58935904D01*
X89320761Y-59031142D01*
X89273142Y-59078761D01*
X89177904Y-59126380D01*
X89082666Y-59126380D01*
X88987428Y-59078761D01*
X88939809Y-59031142D01*
X88892190Y-58935904D01*
X88844571Y-58745428D01*
X88844571Y-58507333D01*
X88892190Y-58316857D01*
X88939809Y-58221619D01*
X88987428Y-58174000D01*
X89082666Y-58126380D01*
X89606476Y-59221619D02*
X90368380Y-59221619D01*
X91177904Y-59031142D02*
X91130285Y-59078761D01*
X90987428Y-59126380D01*
X90892190Y-59126380D01*
X90749333Y-59078761D01*
X90654095Y-58983523D01*
X90606476Y-58888285D01*
X90558857Y-58697809D01*
X90558857Y-58554952D01*
X90606476Y-58364476D01*
X90654095Y-58269238D01*
X90749333Y-58174000D01*
X90892190Y-58126380D01*
X90987428Y-58126380D01*
X91130285Y-58174000D01*
X91177904Y-58221619D01*
X91606476Y-58602571D02*
X91939809Y-58602571D01*
X92082666Y-59126380D02*
X91606476Y-59126380D01*
X91606476Y-58126380D01*
X92082666Y-58126380D01*
X93035047Y-59126380D02*
X92463619Y-59126380D01*
X92749333Y-59126380D02*
X92749333Y-58126380D01*
X92654095Y-58269238D01*
X92558857Y-58364476D01*
X92463619Y-58412095D01*
X93225523Y-59221619D02*
X93987428Y-59221619D01*
X94225523Y-59126380D02*
X94225523Y-58126380D01*
X94796952Y-59126380D01*
X94796952Y-58126380D01*
X52768476Y-45172380D02*
X52578000Y-45172380D01*
X52482761Y-45220000D01*
X52435142Y-45267619D01*
X52339904Y-45410476D01*
X52292285Y-45600952D01*
X52292285Y-45981904D01*
X52339904Y-46077142D01*
X52387523Y-46124761D01*
X52482761Y-46172380D01*
X52673238Y-46172380D01*
X52768476Y-46124761D01*
X52816095Y-46077142D01*
X52863714Y-45981904D01*
X52863714Y-45743809D01*
X52816095Y-45648571D01*
X52768476Y-45600952D01*
X52673238Y-45553333D01*
X52482761Y-45553333D01*
X52387523Y-45600952D01*
X52339904Y-45648571D01*
X52292285Y-45743809D01*
X45958095Y-45426380D02*
X45481904Y-45426380D01*
X45434285Y-45902571D01*
X45481904Y-45854952D01*
X45577142Y-45807333D01*
X45815238Y-45807333D01*
X45910476Y-45854952D01*
X45958095Y-45902571D01*
X46005714Y-45997809D01*
X46005714Y-46235904D01*
X45958095Y-46331142D01*
X45910476Y-46378761D01*
X45815238Y-46426380D01*
X45577142Y-46426380D01*
X45481904Y-46378761D01*
X45434285Y-46331142D01*
X52768476Y-42965714D02*
X52768476Y-43632380D01*
X52530380Y-42584761D02*
X52292285Y-43299047D01*
X52911333Y-43299047D01*
X45386666Y-42632380D02*
X46005714Y-42632380D01*
X45672380Y-43013333D01*
X45815238Y-43013333D01*
X45910476Y-43060952D01*
X45958095Y-43108571D01*
X46005714Y-43203809D01*
X46005714Y-43441904D01*
X45958095Y-43537142D01*
X45910476Y-43584761D01*
X45815238Y-43632380D01*
X45529523Y-43632380D01*
X45434285Y-43584761D01*
X45386666Y-43537142D01*
X52292285Y-40187619D02*
X52339904Y-40140000D01*
X52435142Y-40092380D01*
X52673238Y-40092380D01*
X52768476Y-40140000D01*
X52816095Y-40187619D01*
X52863714Y-40282857D01*
X52863714Y-40378095D01*
X52816095Y-40520952D01*
X52244666Y-41092380D01*
X52863714Y-41092380D01*
X46005714Y-41092380D02*
X45434285Y-41092380D01*
X45720000Y-41092380D02*
X45720000Y-40092380D01*
X45624761Y-40235238D01*
X45529523Y-40330476D01*
X45434285Y-40378095D01*
X45664380Y-81406857D02*
X45188190Y-81740190D01*
X45664380Y-81978285D02*
X44664380Y-81978285D01*
X44664380Y-81597333D01*
X44712000Y-81502095D01*
X44759619Y-81454476D01*
X44854857Y-81406857D01*
X44997714Y-81406857D01*
X45092952Y-81454476D01*
X45140571Y-81502095D01*
X45188190Y-81597333D01*
X45188190Y-81978285D01*
X44664380Y-81073523D02*
X45664380Y-80406857D01*
X44664380Y-80406857D02*
X45664380Y-81073523D01*
X45664380Y-80025904D02*
X44664380Y-80025904D01*
X44664380Y-79787809D01*
X44712000Y-79644952D01*
X44807238Y-79549714D01*
X44902476Y-79502095D01*
X45092952Y-79454476D01*
X45235809Y-79454476D01*
X45426285Y-79502095D01*
X45521523Y-79549714D01*
X45616761Y-79644952D01*
X45664380Y-79787809D01*
X45664380Y-80025904D01*
X45664380Y-78502095D02*
X45664380Y-79073523D01*
X45664380Y-78787809D02*
X44664380Y-78787809D01*
X44807238Y-78883047D01*
X44902476Y-78978285D01*
X44950095Y-79073523D01*
X51601904Y-80986380D02*
X52173333Y-80986380D01*
X51887619Y-81986380D02*
X51887619Y-80986380D01*
X52411428Y-80986380D02*
X53078095Y-81986380D01*
X53078095Y-80986380D02*
X52411428Y-81986380D01*
X53459047Y-81986380D02*
X53459047Y-80986380D01*
X53697142Y-80986380D01*
X53840000Y-81034000D01*
X53935238Y-81129238D01*
X53982857Y-81224476D01*
X54030476Y-81414952D01*
X54030476Y-81557809D01*
X53982857Y-81748285D01*
X53935238Y-81843523D01*
X53840000Y-81938761D01*
X53697142Y-81986380D01*
X53459047Y-81986380D01*
X54982857Y-81986380D02*
X54411428Y-81986380D01*
X54697142Y-81986380D02*
X54697142Y-80986380D01*
X54601904Y-81129238D01*
X54506666Y-81224476D01*
X54411428Y-81272095D01*
X46561523Y-34440761D02*
X46704380Y-34488380D01*
X46942476Y-34488380D01*
X47037714Y-34440761D01*
X47085333Y-34393142D01*
X47132952Y-34297904D01*
X47132952Y-34202666D01*
X47085333Y-34107428D01*
X47037714Y-34059809D01*
X46942476Y-34012190D01*
X46752000Y-33964571D01*
X46656761Y-33916952D01*
X46609142Y-33869333D01*
X46561523Y-33774095D01*
X46561523Y-33678857D01*
X46609142Y-33583619D01*
X46656761Y-33536000D01*
X46752000Y-33488380D01*
X46990095Y-33488380D01*
X47132952Y-33536000D01*
X48132952Y-34393142D02*
X48085333Y-34440761D01*
X47942476Y-34488380D01*
X47847238Y-34488380D01*
X47704380Y-34440761D01*
X47609142Y-34345523D01*
X47561523Y-34250285D01*
X47513904Y-34059809D01*
X47513904Y-33916952D01*
X47561523Y-33726476D01*
X47609142Y-33631238D01*
X47704380Y-33536000D01*
X47847238Y-33488380D01*
X47942476Y-33488380D01*
X48085333Y-33536000D01*
X48132952Y-33583619D01*
X49037714Y-34488380D02*
X48561523Y-34488380D01*
X48561523Y-33488380D01*
X49585714Y-34440761D02*
X49728571Y-34488380D01*
X49966666Y-34488380D01*
X50061904Y-34440761D01*
X50109523Y-34393142D01*
X50157142Y-34297904D01*
X50157142Y-34202666D01*
X50109523Y-34107428D01*
X50061904Y-34059809D01*
X49966666Y-34012190D01*
X49776190Y-33964571D01*
X49680952Y-33916952D01*
X49633333Y-33869333D01*
X49585714Y-33774095D01*
X49585714Y-33678857D01*
X49633333Y-33583619D01*
X49680952Y-33536000D01*
X49776190Y-33488380D01*
X50014285Y-33488380D01*
X50157142Y-33536000D01*
X50585714Y-34488380D02*
X50585714Y-33488380D01*
X50823809Y-33488380D01*
X50966666Y-33536000D01*
X51061904Y-33631238D01*
X51109523Y-33726476D01*
X51157142Y-33916952D01*
X51157142Y-34059809D01*
X51109523Y-34250285D01*
X51061904Y-34345523D01*
X50966666Y-34440761D01*
X50823809Y-34488380D01*
X50585714Y-34488380D01*
X51538095Y-34202666D02*
X52014285Y-34202666D01*
X51442857Y-34488380D02*
X51776190Y-33488380D01*
X52109523Y-34488380D01*
X45759904Y-47966380D02*
X46331333Y-47966380D01*
X46045619Y-48966380D02*
X46045619Y-47966380D01*
X46569428Y-47966380D02*
X47236095Y-48966380D01*
X47236095Y-47966380D02*
X46569428Y-48966380D01*
X47617047Y-48966380D02*
X47617047Y-47966380D01*
X47855142Y-47966380D01*
X47998000Y-48014000D01*
X48093238Y-48109238D01*
X48140857Y-48204476D01*
X48188476Y-48394952D01*
X48188476Y-48537809D01*
X48140857Y-48728285D01*
X48093238Y-48823523D01*
X47998000Y-48918761D01*
X47855142Y-48966380D01*
X47617047Y-48966380D01*
X48807523Y-47966380D02*
X48902761Y-47966380D01*
X48998000Y-48014000D01*
X49045619Y-48061619D01*
X49093238Y-48156857D01*
X49140857Y-48347333D01*
X49140857Y-48585428D01*
X49093238Y-48775904D01*
X49045619Y-48871142D01*
X48998000Y-48918761D01*
X48902761Y-48966380D01*
X48807523Y-48966380D01*
X48712285Y-48918761D01*
X48664666Y-48871142D01*
X48617047Y-48775904D01*
X48569428Y-48585428D01*
X48569428Y-48347333D01*
X48617047Y-48156857D01*
X48664666Y-48061619D01*
X48712285Y-48014000D01*
X48807523Y-47966380D01*
X50419142Y-48966380D02*
X50085809Y-48490190D01*
X49847714Y-48966380D02*
X49847714Y-47966380D01*
X50228666Y-47966380D01*
X50323904Y-48014000D01*
X50371523Y-48061619D01*
X50419142Y-48156857D01*
X50419142Y-48299714D01*
X50371523Y-48394952D01*
X50323904Y-48442571D01*
X50228666Y-48490190D01*
X49847714Y-48490190D01*
X50752476Y-47966380D02*
X51419142Y-48966380D01*
X51419142Y-47966380D02*
X50752476Y-48966380D01*
X51800095Y-48966380D02*
X51800095Y-47966380D01*
X52038190Y-47966380D01*
X52181047Y-48014000D01*
X52276285Y-48109238D01*
X52323904Y-48204476D01*
X52371523Y-48394952D01*
X52371523Y-48537809D01*
X52323904Y-48728285D01*
X52276285Y-48823523D01*
X52181047Y-48918761D01*
X52038190Y-48966380D01*
X51800095Y-48966380D01*
X52990571Y-47966380D02*
X53085809Y-47966380D01*
X53181047Y-48014000D01*
X53228666Y-48061619D01*
X53276285Y-48156857D01*
X53323904Y-48347333D01*
X53323904Y-48585428D01*
X53276285Y-48775904D01*
X53228666Y-48871142D01*
X53181047Y-48918761D01*
X53085809Y-48966380D01*
X52990571Y-48966380D01*
X52895333Y-48918761D01*
X52847714Y-48871142D01*
X52800095Y-48775904D01*
X52752476Y-48585428D01*
X52752476Y-48347333D01*
X52800095Y-48156857D01*
X52847714Y-48061619D01*
X52895333Y-48014000D01*
X52990571Y-47966380D01*
X52324095Y-75239619D02*
X52371714Y-75192000D01*
X52466952Y-75144380D01*
X52705047Y-75144380D01*
X52800285Y-75192000D01*
X52847904Y-75239619D01*
X52895523Y-75334857D01*
X52895523Y-75430095D01*
X52847904Y-75572952D01*
X52276476Y-76144380D01*
X52895523Y-76144380D01*
X53276476Y-75239619D02*
X53324095Y-75192000D01*
X53419333Y-75144380D01*
X53657428Y-75144380D01*
X53752666Y-75192000D01*
X53800285Y-75239619D01*
X53847904Y-75334857D01*
X53847904Y-75430095D01*
X53800285Y-75572952D01*
X53228857Y-76144380D01*
X53847904Y-76144380D01*
X44704095Y-75239619D02*
X44751714Y-75192000D01*
X44846952Y-75144380D01*
X45085047Y-75144380D01*
X45180285Y-75192000D01*
X45227904Y-75239619D01*
X45275523Y-75334857D01*
X45275523Y-75430095D01*
X45227904Y-75572952D01*
X44656476Y-76144380D01*
X45275523Y-76144380D01*
X46227904Y-76144380D02*
X45656476Y-76144380D01*
X45942190Y-76144380D02*
X45942190Y-75144380D01*
X45846952Y-75287238D01*
X45751714Y-75382476D01*
X45656476Y-75430095D01*
X52324095Y-72953619D02*
X52371714Y-72906000D01*
X52466952Y-72858380D01*
X52705047Y-72858380D01*
X52800285Y-72906000D01*
X52847904Y-72953619D01*
X52895523Y-73048857D01*
X52895523Y-73144095D01*
X52847904Y-73286952D01*
X52276476Y-73858380D01*
X52895523Y-73858380D01*
X53514571Y-72858380D02*
X53609809Y-72858380D01*
X53705047Y-72906000D01*
X53752666Y-72953619D01*
X53800285Y-73048857D01*
X53847904Y-73239333D01*
X53847904Y-73477428D01*
X53800285Y-73667904D01*
X53752666Y-73763142D01*
X53705047Y-73810761D01*
X53609809Y-73858380D01*
X53514571Y-73858380D01*
X53419333Y-73810761D01*
X53371714Y-73763142D01*
X53324095Y-73667904D01*
X53276476Y-73477428D01*
X53276476Y-73239333D01*
X53324095Y-73048857D01*
X53371714Y-72953619D01*
X53419333Y-72906000D01*
X53514571Y-72858380D01*
X45275523Y-73858380D02*
X44704095Y-73858380D01*
X44989809Y-73858380D02*
X44989809Y-72858380D01*
X44894571Y-73001238D01*
X44799333Y-73096476D01*
X44704095Y-73144095D01*
X45751714Y-73858380D02*
X45942190Y-73858380D01*
X46037428Y-73810761D01*
X46085047Y-73763142D01*
X46180285Y-73620285D01*
X46227904Y-73429809D01*
X46227904Y-73048857D01*
X46180285Y-72953619D01*
X46132666Y-72906000D01*
X46037428Y-72858380D01*
X45846952Y-72858380D01*
X45751714Y-72906000D01*
X45704095Y-72953619D01*
X45656476Y-73048857D01*
X45656476Y-73286952D01*
X45704095Y-73382190D01*
X45751714Y-73429809D01*
X45846952Y-73477428D01*
X46037428Y-73477428D01*
X46132666Y-73429809D01*
X46180285Y-73382190D01*
X46227904Y-73286952D01*
X52641523Y-71064380D02*
X52070095Y-71064380D01*
X52355809Y-71064380D02*
X52355809Y-70064380D01*
X52260571Y-70207238D01*
X52165333Y-70302476D01*
X52070095Y-70350095D01*
X53212952Y-70492952D02*
X53117714Y-70445333D01*
X53070095Y-70397714D01*
X53022476Y-70302476D01*
X53022476Y-70254857D01*
X53070095Y-70159619D01*
X53117714Y-70112000D01*
X53212952Y-70064380D01*
X53403428Y-70064380D01*
X53498666Y-70112000D01*
X53546285Y-70159619D01*
X53593904Y-70254857D01*
X53593904Y-70302476D01*
X53546285Y-70397714D01*
X53498666Y-70445333D01*
X53403428Y-70492952D01*
X53212952Y-70492952D01*
X53117714Y-70540571D01*
X53070095Y-70588190D01*
X53022476Y-70683428D01*
X53022476Y-70873904D01*
X53070095Y-70969142D01*
X53117714Y-71016761D01*
X53212952Y-71064380D01*
X53403428Y-71064380D01*
X53498666Y-71016761D01*
X53546285Y-70969142D01*
X53593904Y-70873904D01*
X53593904Y-70683428D01*
X53546285Y-70588190D01*
X53498666Y-70540571D01*
X53403428Y-70492952D01*
X45275523Y-71318380D02*
X44704095Y-71318380D01*
X44989809Y-71318380D02*
X44989809Y-70318380D01*
X44894571Y-70461238D01*
X44799333Y-70556476D01*
X44704095Y-70604095D01*
X45608857Y-70318380D02*
X46275523Y-70318380D01*
X45846952Y-71318380D01*
X52641523Y-68524380D02*
X52070095Y-68524380D01*
X52355809Y-68524380D02*
X52355809Y-67524380D01*
X52260571Y-67667238D01*
X52165333Y-67762476D01*
X52070095Y-67810095D01*
X53498666Y-67524380D02*
X53308190Y-67524380D01*
X53212952Y-67572000D01*
X53165333Y-67619619D01*
X53070095Y-67762476D01*
X53022476Y-67952952D01*
X53022476Y-68333904D01*
X53070095Y-68429142D01*
X53117714Y-68476761D01*
X53212952Y-68524380D01*
X53403428Y-68524380D01*
X53498666Y-68476761D01*
X53546285Y-68429142D01*
X53593904Y-68333904D01*
X53593904Y-68095809D01*
X53546285Y-68000571D01*
X53498666Y-67952952D01*
X53403428Y-67905333D01*
X53212952Y-67905333D01*
X53117714Y-67952952D01*
X53070095Y-68000571D01*
X53022476Y-68095809D01*
X45275523Y-68524380D02*
X44704095Y-68524380D01*
X44989809Y-68524380D02*
X44989809Y-67524380D01*
X44894571Y-67667238D01*
X44799333Y-67762476D01*
X44704095Y-67810095D01*
X45608857Y-67524380D02*
X46227904Y-67524380D01*
X45894571Y-67905333D01*
X46037428Y-67905333D01*
X46132666Y-67952952D01*
X46180285Y-68000571D01*
X46227904Y-68095809D01*
X46227904Y-68333904D01*
X46180285Y-68429142D01*
X46132666Y-68476761D01*
X46037428Y-68524380D01*
X45751714Y-68524380D01*
X45656476Y-68476761D01*
X45608857Y-68429142D01*
X52641523Y-65984380D02*
X52070095Y-65984380D01*
X52355809Y-65984380D02*
X52355809Y-64984380D01*
X52260571Y-65127238D01*
X52165333Y-65222476D01*
X52070095Y-65270095D01*
X53022476Y-65079619D02*
X53070095Y-65032000D01*
X53165333Y-64984380D01*
X53403428Y-64984380D01*
X53498666Y-65032000D01*
X53546285Y-65079619D01*
X53593904Y-65174857D01*
X53593904Y-65270095D01*
X53546285Y-65412952D01*
X52974857Y-65984380D01*
X53593904Y-65984380D01*
X45402476Y-64984380D02*
X45212000Y-64984380D01*
X45116761Y-65032000D01*
X45069142Y-65079619D01*
X44973904Y-65222476D01*
X44926285Y-65412952D01*
X44926285Y-65793904D01*
X44973904Y-65889142D01*
X45021523Y-65936761D01*
X45116761Y-65984380D01*
X45307238Y-65984380D01*
X45402476Y-65936761D01*
X45450095Y-65889142D01*
X45497714Y-65793904D01*
X45497714Y-65555809D01*
X45450095Y-65460571D01*
X45402476Y-65412952D01*
X45307238Y-65365333D01*
X45116761Y-65365333D01*
X45021523Y-65412952D01*
X44973904Y-65460571D01*
X44926285Y-65555809D01*
X53070095Y-62444380D02*
X52593904Y-62444380D01*
X52546285Y-62920571D01*
X52593904Y-62872952D01*
X52689142Y-62825333D01*
X52927238Y-62825333D01*
X53022476Y-62872952D01*
X53070095Y-62920571D01*
X53117714Y-63015809D01*
X53117714Y-63253904D01*
X53070095Y-63349142D01*
X53022476Y-63396761D01*
X52927238Y-63444380D01*
X52689142Y-63444380D01*
X52593904Y-63396761D01*
X52546285Y-63349142D01*
X45402476Y-62777714D02*
X45402476Y-63444380D01*
X45164380Y-62396761D02*
X44926285Y-63111047D01*
X45545333Y-63111047D01*
X52332000Y-60959904D02*
X52284380Y-61055142D01*
X52284380Y-61198000D01*
X52332000Y-61340857D01*
X52427238Y-61436095D01*
X52522476Y-61483714D01*
X52712952Y-61531333D01*
X52855809Y-61531333D01*
X53046285Y-61483714D01*
X53141523Y-61436095D01*
X53236761Y-61340857D01*
X53284380Y-61198000D01*
X53284380Y-61102761D01*
X53236761Y-60959904D01*
X53189142Y-60912285D01*
X52855809Y-60912285D01*
X52855809Y-61102761D01*
X53284380Y-60483714D02*
X52284380Y-60483714D01*
X53284380Y-59912285D01*
X52284380Y-59912285D01*
X53284380Y-59436095D02*
X52284380Y-59436095D01*
X52284380Y-59198000D01*
X52332000Y-59055142D01*
X52427238Y-58959904D01*
X52522476Y-58912285D01*
X52712952Y-58864666D01*
X52855809Y-58864666D01*
X53046285Y-58912285D01*
X53141523Y-58959904D01*
X53236761Y-59055142D01*
X53284380Y-59198000D01*
X53284380Y-59436095D01*
X44712000Y-60705904D02*
X44664380Y-60801142D01*
X44664380Y-60944000D01*
X44712000Y-61086857D01*
X44807238Y-61182095D01*
X44902476Y-61229714D01*
X45092952Y-61277333D01*
X45235809Y-61277333D01*
X45426285Y-61229714D01*
X45521523Y-61182095D01*
X45616761Y-61086857D01*
X45664380Y-60944000D01*
X45664380Y-60848761D01*
X45616761Y-60705904D01*
X45569142Y-60658285D01*
X45235809Y-60658285D01*
X45235809Y-60848761D01*
X45664380Y-60229714D02*
X44664380Y-60229714D01*
X45664380Y-59658285D01*
X44664380Y-59658285D01*
X45664380Y-59182095D02*
X44664380Y-59182095D01*
X44664380Y-58944000D01*
X44712000Y-58801142D01*
X44807238Y-58705904D01*
X44902476Y-58658285D01*
X45092952Y-58610666D01*
X45235809Y-58610666D01*
X45426285Y-58658285D01*
X45521523Y-58705904D01*
X45616761Y-58801142D01*
X45664380Y-58944000D01*
X45664380Y-59182095D01*
X45275523Y-57110380D02*
X44799333Y-57110380D01*
X44751714Y-57586571D01*
X44799333Y-57538952D01*
X44894571Y-57491333D01*
X45132666Y-57491333D01*
X45227904Y-57538952D01*
X45275523Y-57586571D01*
X45323142Y-57681809D01*
X45323142Y-57919904D01*
X45275523Y-58015142D01*
X45227904Y-58062761D01*
X45132666Y-58110380D01*
X44894571Y-58110380D01*
X44799333Y-58062761D01*
X44751714Y-58015142D01*
X45608857Y-57110380D02*
X45942190Y-58110380D01*
X46275523Y-57110380D01*
X45021523Y-54824380D02*
X44545333Y-54824380D01*
X44497714Y-55300571D01*
X44545333Y-55252952D01*
X44640571Y-55205333D01*
X44878666Y-55205333D01*
X44973904Y-55252952D01*
X45021523Y-55300571D01*
X45069142Y-55395809D01*
X45069142Y-55633904D01*
X45021523Y-55729142D01*
X44973904Y-55776761D01*
X44878666Y-55824380D01*
X44640571Y-55824380D01*
X44545333Y-55776761D01*
X44497714Y-55729142D01*
X45354857Y-54824380D02*
X45688190Y-55824380D01*
X46021523Y-54824380D01*
X52117809Y-57364380D02*
X52736857Y-57364380D01*
X52403523Y-57745333D01*
X52546380Y-57745333D01*
X52641619Y-57792952D01*
X52689238Y-57840571D01*
X52736857Y-57935809D01*
X52736857Y-58173904D01*
X52689238Y-58269142D01*
X52641619Y-58316761D01*
X52546380Y-58364380D01*
X52260666Y-58364380D01*
X52165428Y-58316761D01*
X52117809Y-58269142D01*
X53165428Y-58269142D02*
X53213047Y-58316761D01*
X53165428Y-58364380D01*
X53117809Y-58316761D01*
X53165428Y-58269142D01*
X53165428Y-58364380D01*
X53546380Y-57364380D02*
X54165428Y-57364380D01*
X53832095Y-57745333D01*
X53974952Y-57745333D01*
X54070190Y-57792952D01*
X54117809Y-57840571D01*
X54165428Y-57935809D01*
X54165428Y-58173904D01*
X54117809Y-58269142D01*
X54070190Y-58316761D01*
X53974952Y-58364380D01*
X53689238Y-58364380D01*
X53594000Y-58316761D01*
X53546380Y-58269142D01*
X54451142Y-57364380D02*
X54784476Y-58364380D01*
X55117809Y-57364380D01*
X52117809Y-54824380D02*
X52736857Y-54824380D01*
X52403523Y-55205333D01*
X52546380Y-55205333D01*
X52641619Y-55252952D01*
X52689238Y-55300571D01*
X52736857Y-55395809D01*
X52736857Y-55633904D01*
X52689238Y-55729142D01*
X52641619Y-55776761D01*
X52546380Y-55824380D01*
X52260666Y-55824380D01*
X52165428Y-55776761D01*
X52117809Y-55729142D01*
X53165428Y-55729142D02*
X53213047Y-55776761D01*
X53165428Y-55824380D01*
X53117809Y-55776761D01*
X53165428Y-55729142D01*
X53165428Y-55824380D01*
X53546380Y-54824380D02*
X54165428Y-54824380D01*
X53832095Y-55205333D01*
X53974952Y-55205333D01*
X54070190Y-55252952D01*
X54117809Y-55300571D01*
X54165428Y-55395809D01*
X54165428Y-55633904D01*
X54117809Y-55729142D01*
X54070190Y-55776761D01*
X53974952Y-55824380D01*
X53689238Y-55824380D01*
X53594000Y-55776761D01*
X53546380Y-55729142D01*
X54451142Y-54824380D02*
X54784476Y-55824380D01*
X55117809Y-54824380D01*
X54591200Y-145054628D02*
X55353104Y-145054628D01*
X54972152Y-145435580D02*
X54972152Y-144673676D01*
X55734057Y-144435580D02*
X56353104Y-144435580D01*
X56019771Y-144816533D01*
X56162628Y-144816533D01*
X56257866Y-144864152D01*
X56305485Y-144911771D01*
X56353104Y-145007009D01*
X56353104Y-145245104D01*
X56305485Y-145340342D01*
X56257866Y-145387961D01*
X56162628Y-145435580D01*
X55876914Y-145435580D01*
X55781676Y-145387961D01*
X55734057Y-145340342D01*
X56781676Y-145340342D02*
X56829295Y-145387961D01*
X56781676Y-145435580D01*
X56734057Y-145387961D01*
X56781676Y-145340342D01*
X56781676Y-145435580D01*
X57162628Y-144435580D02*
X57781676Y-144435580D01*
X57448342Y-144816533D01*
X57591200Y-144816533D01*
X57686438Y-144864152D01*
X57734057Y-144911771D01*
X57781676Y-145007009D01*
X57781676Y-145245104D01*
X57734057Y-145340342D01*
X57686438Y-145387961D01*
X57591200Y-145435580D01*
X57305485Y-145435580D01*
X57210247Y-145387961D01*
X57162628Y-145340342D01*
X58067390Y-144435580D02*
X58400723Y-145435580D01*
X58734057Y-144435580D01*
D11*
%TO.C,G\u002A\u002A\u002A*%
G36*
X109753400Y-87187096D02*
G01*
X108737400Y-87187096D01*
X108723341Y-85304433D01*
X108709283Y-83421769D01*
X107797600Y-83421769D01*
X107797600Y-87250915D01*
X106781600Y-87250915D01*
X106781600Y-77678051D01*
X107797600Y-77678051D01*
X107797600Y-81379558D01*
X108709283Y-81379558D01*
X108723341Y-79509005D01*
X108737400Y-77638451D01*
X109753400Y-77632361D01*
X109753400Y-87187096D01*
G37*
X109753400Y-87187096D02*
X108737400Y-87187096D01*
X108723341Y-85304433D01*
X108709283Y-83421769D01*
X107797600Y-83421769D01*
X107797600Y-87250915D01*
X106781600Y-87250915D01*
X106781600Y-77678051D01*
X107797600Y-77678051D01*
X107797600Y-81379558D01*
X108709283Y-81379558D01*
X108723341Y-79509005D01*
X108737400Y-77638451D01*
X109753400Y-77632361D01*
X109753400Y-87187096D01*
G36*
X106558640Y-78092875D02*
G01*
X106500361Y-78471807D01*
X106430739Y-78936573D01*
X106404630Y-79113980D01*
X106315996Y-79720262D01*
X104648000Y-79720262D01*
X104648000Y-85075669D01*
X105632912Y-85110277D01*
X106617825Y-85144885D01*
X106314963Y-87250915D01*
X103896524Y-87250915D01*
X103581200Y-86348565D01*
X103581200Y-78304638D01*
X103705890Y-77991344D01*
X103830581Y-77678051D01*
X106624015Y-77678051D01*
X106558640Y-78092875D01*
G37*
X106558640Y-78092875D02*
X106500361Y-78471807D01*
X106430739Y-78936573D01*
X106404630Y-79113980D01*
X106315996Y-79720262D01*
X104648000Y-79720262D01*
X104648000Y-85075669D01*
X105632912Y-85110277D01*
X106617825Y-85144885D01*
X106314963Y-87250915D01*
X103896524Y-87250915D01*
X103581200Y-86348565D01*
X103581200Y-78304638D01*
X103705890Y-77991344D01*
X103830581Y-77678051D01*
X106624015Y-77678051D01*
X106558640Y-78092875D01*
G36*
X102382481Y-77680217D02*
G01*
X102736438Y-77687341D01*
X103006205Y-77700359D01*
X103200478Y-77720208D01*
X103327958Y-77747826D01*
X103397341Y-77784149D01*
X103417326Y-77830115D01*
X103416645Y-77837598D01*
X103388990Y-78031704D01*
X103338157Y-78390445D01*
X103274909Y-78837848D01*
X103271964Y-78858704D01*
X103150308Y-79720262D01*
X101498400Y-79720262D01*
X101498400Y-81379558D01*
X103124000Y-81379558D01*
X103124000Y-83421769D01*
X101498400Y-83421769D01*
X101498400Y-85081066D01*
X102463600Y-85081066D01*
X102763896Y-85085843D01*
X103025763Y-85099143D01*
X103233668Y-85119420D01*
X103372078Y-85145130D01*
X103425458Y-85174725D01*
X103425613Y-85176794D01*
X103408024Y-85334597D01*
X103364214Y-85667588D01*
X103302760Y-86111118D01*
X103285913Y-86229809D01*
X103149400Y-87187096D01*
X100431600Y-87255084D01*
X100431600Y-77678051D01*
X101935635Y-77678051D01*
X102382481Y-77680217D01*
G37*
X102382481Y-77680217D02*
X102736438Y-77687341D01*
X103006205Y-77700359D01*
X103200478Y-77720208D01*
X103327958Y-77747826D01*
X103397341Y-77784149D01*
X103417326Y-77830115D01*
X103416645Y-77837598D01*
X103388990Y-78031704D01*
X103338157Y-78390445D01*
X103274909Y-78837848D01*
X103271964Y-78858704D01*
X103150308Y-79720262D01*
X101498400Y-79720262D01*
X101498400Y-81379558D01*
X103124000Y-81379558D01*
X103124000Y-83421769D01*
X101498400Y-83421769D01*
X101498400Y-85081066D01*
X102463600Y-85081066D01*
X102763896Y-85085843D01*
X103025763Y-85099143D01*
X103233668Y-85119420D01*
X103372078Y-85145130D01*
X103425458Y-85174725D01*
X103425613Y-85176794D01*
X103408024Y-85334597D01*
X103364214Y-85667588D01*
X103302760Y-86111118D01*
X103285913Y-86229809D01*
X103149400Y-87187096D01*
X100431600Y-87255084D01*
X100431600Y-77678051D01*
X101935635Y-77678051D01*
X102382481Y-77680217D01*
G36*
X98767898Y-77624902D02*
G01*
X100253800Y-77635571D01*
X100268603Y-78609412D01*
X100283406Y-79583252D01*
X99786003Y-79619847D01*
X99288600Y-79656443D01*
X99261688Y-87250915D01*
X98247200Y-87250915D01*
X98247200Y-79592624D01*
X97282000Y-79592624D01*
X97281996Y-77614232D01*
X98767898Y-77624902D01*
G37*
X98767898Y-77624902D02*
X100253800Y-77635571D01*
X100268603Y-78609412D01*
X100283406Y-79583252D01*
X99786003Y-79619847D01*
X99288600Y-79656443D01*
X99261688Y-87250915D01*
X98247200Y-87250915D01*
X98247200Y-79592624D01*
X97282000Y-79592624D01*
X97281996Y-77614232D01*
X98767898Y-77624902D01*
G36*
X105449358Y-91303428D02*
G01*
X105463316Y-93377548D01*
X106781600Y-93377548D01*
X106781600Y-94271015D01*
X105079800Y-94271013D01*
X105079800Y-89229307D01*
X105435400Y-89229307D01*
X105449358Y-91303428D01*
G37*
X105449358Y-91303428D02*
X105463316Y-93377548D01*
X106781600Y-93377548D01*
X106781600Y-94271015D01*
X105079800Y-94271013D01*
X105079800Y-89229307D01*
X105435400Y-89229307D01*
X105449358Y-91303428D01*
G36*
X99355166Y-89707950D02*
G01*
X99370933Y-90186593D01*
X98730343Y-90186593D01*
X98397541Y-90201121D01*
X98150070Y-90253306D01*
X97972138Y-90356055D01*
X97847956Y-90522270D01*
X97761731Y-90764858D01*
X97709798Y-91020619D01*
X97643880Y-91642224D01*
X97668416Y-92228529D01*
X97720650Y-92566142D01*
X97802508Y-92901527D01*
X97911859Y-93133672D01*
X98066791Y-93279262D01*
X98285390Y-93354982D01*
X98585746Y-93377517D01*
X98600277Y-93377548D01*
X99110800Y-93377548D01*
X99110800Y-92101166D01*
X98196400Y-92101166D01*
X98196400Y-91335337D01*
X99466400Y-91335337D01*
X99466400Y-94271015D01*
X98717100Y-94265374D01*
X98413757Y-94258813D01*
X98192358Y-94240812D01*
X98033273Y-94205975D01*
X97916874Y-94148903D01*
X97823532Y-94064198D01*
X97777175Y-94006888D01*
X97560078Y-93583863D01*
X97401956Y-93003977D01*
X97307022Y-92325386D01*
X97279487Y-91606248D01*
X97323561Y-90904718D01*
X97443455Y-90278953D01*
X97495246Y-90113525D01*
X97619194Y-89785187D01*
X97738905Y-89550187D01*
X97874716Y-89393085D01*
X98046962Y-89298439D01*
X98275979Y-89250808D01*
X98582101Y-89234751D01*
X98653600Y-89233975D01*
X99339400Y-89229307D01*
X99355166Y-89707950D01*
G37*
X99355166Y-89707950D02*
X99370933Y-90186593D01*
X98730343Y-90186593D01*
X98397541Y-90201121D01*
X98150070Y-90253306D01*
X97972138Y-90356055D01*
X97847956Y-90522270D01*
X97761731Y-90764858D01*
X97709798Y-91020619D01*
X97643880Y-91642224D01*
X97668416Y-92228529D01*
X97720650Y-92566142D01*
X97802508Y-92901527D01*
X97911859Y-93133672D01*
X98066791Y-93279262D01*
X98285390Y-93354982D01*
X98585746Y-93377517D01*
X98600277Y-93377548D01*
X99110800Y-93377548D01*
X99110800Y-92101166D01*
X98196400Y-92101166D01*
X98196400Y-91335337D01*
X99466400Y-91335337D01*
X99466400Y-94271015D01*
X98717100Y-94265374D01*
X98413757Y-94258813D01*
X98192358Y-94240812D01*
X98033273Y-94205975D01*
X97916874Y-94148903D01*
X97823532Y-94064198D01*
X97777175Y-94006888D01*
X97560078Y-93583863D01*
X97401956Y-93003977D01*
X97307022Y-92325386D01*
X97279487Y-91606248D01*
X97323561Y-90904718D01*
X97443455Y-90278953D01*
X97495246Y-90113525D01*
X97619194Y-89785187D01*
X97738905Y-89550187D01*
X97874716Y-89393085D01*
X98046962Y-89298439D01*
X98275979Y-89250808D01*
X98582101Y-89234751D01*
X98653600Y-89233975D01*
X99339400Y-89229307D01*
X99355166Y-89707950D01*
G36*
X109804200Y-90122774D02*
G01*
X109113251Y-90186593D01*
X108810142Y-90220373D01*
X108590807Y-90266789D01*
X108437425Y-90340701D01*
X108332174Y-90456970D01*
X108257232Y-90630454D01*
X108194779Y-90876014D01*
X108175250Y-90968697D01*
X108110982Y-91503432D01*
X108115179Y-92076199D01*
X108180915Y-92609268D01*
X108301267Y-93024909D01*
X108369625Y-93150398D01*
X108472231Y-93226311D01*
X108659512Y-93293895D01*
X108914551Y-93348184D01*
X109143800Y-93377548D01*
X109804200Y-93441367D01*
X109820871Y-93807921D01*
X109819826Y-94098164D01*
X109795471Y-94254655D01*
X109731964Y-94279243D01*
X109586505Y-94291674D01*
X109378637Y-94291524D01*
X109127900Y-94278373D01*
X109038048Y-94271015D01*
X108753254Y-94243303D01*
X108550039Y-94213214D01*
X108408421Y-94171394D01*
X108308416Y-94108493D01*
X108230042Y-94015158D01*
X108153316Y-93882038D01*
X108135879Y-93848797D01*
X107924193Y-93306201D01*
X107796180Y-92640803D01*
X107747524Y-91828793D01*
X107746800Y-91702641D01*
X107786608Y-90890281D01*
X107907299Y-90229691D01*
X108110774Y-89712068D01*
X108211718Y-89548844D01*
X108308920Y-89420137D01*
X108403210Y-89331900D01*
X108516367Y-89276501D01*
X108670169Y-89246308D01*
X108886395Y-89233689D01*
X109118400Y-89231121D01*
X109804200Y-89229307D01*
X109804200Y-90122774D01*
G37*
X109804200Y-90122774D02*
X109113251Y-90186593D01*
X108810142Y-90220373D01*
X108590807Y-90266789D01*
X108437425Y-90340701D01*
X108332174Y-90456970D01*
X108257232Y-90630454D01*
X108194779Y-90876014D01*
X108175250Y-90968697D01*
X108110982Y-91503432D01*
X108115179Y-92076199D01*
X108180915Y-92609268D01*
X108301267Y-93024909D01*
X108369625Y-93150398D01*
X108472231Y-93226311D01*
X108659512Y-93293895D01*
X108914551Y-93348184D01*
X109143800Y-93377548D01*
X109804200Y-93441367D01*
X109820871Y-93807921D01*
X109819826Y-94098164D01*
X109795471Y-94254655D01*
X109731964Y-94279243D01*
X109586505Y-94291674D01*
X109378637Y-94291524D01*
X109127900Y-94278373D01*
X109038048Y-94271015D01*
X108753254Y-94243303D01*
X108550039Y-94213214D01*
X108408421Y-94171394D01*
X108308416Y-94108493D01*
X108230042Y-94015158D01*
X108153316Y-93882038D01*
X108135879Y-93848797D01*
X107924193Y-93306201D01*
X107796180Y-92640803D01*
X107747524Y-91828793D01*
X107746800Y-91702641D01*
X107786608Y-90890281D01*
X107907299Y-90229691D01*
X108110774Y-89712068D01*
X108211718Y-89548844D01*
X108308920Y-89420137D01*
X108403210Y-89331900D01*
X108516367Y-89276501D01*
X108670169Y-89246308D01*
X108886395Y-89233689D01*
X109118400Y-89231121D01*
X109804200Y-89229307D01*
X109804200Y-90122774D01*
G36*
X107416600Y-94310327D02*
G01*
X107245053Y-94322720D01*
X107123617Y-94296148D01*
X107055783Y-94214794D01*
X107053391Y-94203405D01*
X107047788Y-94039609D01*
X107044245Y-93662702D01*
X107042863Y-93114805D01*
X107043748Y-92438037D01*
X107047001Y-91674517D01*
X107047138Y-91650502D01*
X107061000Y-89229307D01*
X107416600Y-89229307D01*
X107416600Y-94310327D01*
G37*
X107416600Y-94310327D02*
X107245053Y-94322720D01*
X107123617Y-94296148D01*
X107055783Y-94214794D01*
X107053391Y-94203405D01*
X107047788Y-94039609D01*
X107044245Y-93662702D01*
X107042863Y-93114805D01*
X107043748Y-92438037D01*
X107047001Y-91674517D01*
X107047138Y-91650502D01*
X107061000Y-89229307D01*
X107416600Y-89229307D01*
X107416600Y-94310327D01*
G36*
X103721957Y-89238724D02*
G01*
X103999797Y-89268143D01*
X104195943Y-89319320D01*
X104320217Y-89394009D01*
X104330050Y-89403872D01*
X104513871Y-89724990D01*
X104637514Y-90197993D01*
X104699153Y-90765792D01*
X104696963Y-91371299D01*
X104629120Y-91957426D01*
X104493797Y-92467085D01*
X104432611Y-92611719D01*
X104391419Y-92720114D01*
X104387436Y-92840322D01*
X104430017Y-93020617D01*
X104528512Y-93309275D01*
X104611892Y-93537096D01*
X104734982Y-93881051D01*
X104821086Y-94141895D01*
X104855622Y-94274756D01*
X104854243Y-94282852D01*
X104790453Y-94285295D01*
X104662710Y-94277651D01*
X104597200Y-94271643D01*
X104470122Y-94241295D01*
X104371748Y-94151067D01*
X104272513Y-93956432D01*
X104142852Y-93612861D01*
X104123236Y-93557797D01*
X103877873Y-92866995D01*
X103124000Y-92866995D01*
X103124000Y-92101166D01*
X103632000Y-92101166D01*
X103917931Y-92081147D01*
X104117487Y-92007612D01*
X104245025Y-91860350D01*
X104314900Y-91619147D01*
X104341470Y-91263790D01*
X104343200Y-91099843D01*
X104334360Y-90759411D01*
X104298406Y-90515079D01*
X104221184Y-90351264D01*
X104088538Y-90252382D01*
X103886315Y-90202850D01*
X103600360Y-90187085D01*
X103513699Y-90186593D01*
X102870000Y-90186593D01*
X102870000Y-94242042D01*
X102712894Y-94299977D01*
X102593816Y-94300100D01*
X102533932Y-94214805D01*
X102527781Y-94047288D01*
X102523761Y-93666918D01*
X102522005Y-93116069D01*
X102522645Y-92437116D01*
X102525813Y-91672433D01*
X102525938Y-91650502D01*
X102539800Y-89229307D01*
X103352600Y-89229307D01*
X103721957Y-89238724D01*
G37*
X103721957Y-89238724D02*
X103999797Y-89268143D01*
X104195943Y-89319320D01*
X104320217Y-89394009D01*
X104330050Y-89403872D01*
X104513871Y-89724990D01*
X104637514Y-90197993D01*
X104699153Y-90765792D01*
X104696963Y-91371299D01*
X104629120Y-91957426D01*
X104493797Y-92467085D01*
X104432611Y-92611719D01*
X104391419Y-92720114D01*
X104387436Y-92840322D01*
X104430017Y-93020617D01*
X104528512Y-93309275D01*
X104611892Y-93537096D01*
X104734982Y-93881051D01*
X104821086Y-94141895D01*
X104855622Y-94274756D01*
X104854243Y-94282852D01*
X104790453Y-94285295D01*
X104662710Y-94277651D01*
X104597200Y-94271643D01*
X104470122Y-94241295D01*
X104371748Y-94151067D01*
X104272513Y-93956432D01*
X104142852Y-93612861D01*
X104123236Y-93557797D01*
X103877873Y-92866995D01*
X103124000Y-92866995D01*
X103124000Y-92101166D01*
X103632000Y-92101166D01*
X103917931Y-92081147D01*
X104117487Y-92007612D01*
X104245025Y-91860350D01*
X104314900Y-91619147D01*
X104341470Y-91263790D01*
X104343200Y-91099843D01*
X104334360Y-90759411D01*
X104298406Y-90515079D01*
X104221184Y-90351264D01*
X104088538Y-90252382D01*
X103886315Y-90202850D01*
X103600360Y-90187085D01*
X103513699Y-90186593D01*
X102870000Y-90186593D01*
X102870000Y-94242042D01*
X102712894Y-94299977D01*
X102593816Y-94300100D01*
X102533932Y-94214805D01*
X102527781Y-94047288D01*
X102523761Y-93666918D01*
X102522005Y-93116069D01*
X102522645Y-92437116D01*
X102525813Y-91672433D01*
X102525938Y-91650502D01*
X102539800Y-89229307D01*
X103352600Y-89229307D01*
X103721957Y-89238724D01*
G36*
X101020137Y-88251972D02*
G01*
X101138798Y-88525867D01*
X101243559Y-88892759D01*
X101309948Y-89279337D01*
X101316780Y-89356945D01*
X101421588Y-90228130D01*
X101606748Y-90951113D01*
X101834212Y-91473392D01*
X102038088Y-91879483D01*
X102166968Y-92227196D01*
X102234934Y-92580909D01*
X102256070Y-93005002D01*
X102250588Y-93376709D01*
X102198709Y-94048151D01*
X102084045Y-94531941D01*
X101901697Y-94837204D01*
X101646769Y-94973069D01*
X101396800Y-94967777D01*
X101214017Y-94934820D01*
X101080757Y-94919325D01*
X100955583Y-94920775D01*
X100797056Y-94938653D01*
X100658367Y-94958565D01*
X100457712Y-94959258D01*
X100269317Y-94913002D01*
X100175767Y-94860651D01*
X100011829Y-94604166D01*
X99884962Y-94173953D01*
X99804119Y-93641589D01*
X99792678Y-93392571D01*
X100384332Y-93392571D01*
X100384511Y-93438066D01*
X100388223Y-94079558D01*
X100483947Y-93402591D01*
X100568102Y-92882244D01*
X100674605Y-92319330D01*
X100729396Y-92062390D01*
X100863335Y-91380293D01*
X100935810Y-90824784D01*
X101149761Y-90824784D01*
X101159019Y-91160241D01*
X101197560Y-91536185D01*
X101273285Y-92011114D01*
X101394090Y-92643523D01*
X101397919Y-92662673D01*
X101501744Y-93209292D01*
X101585546Y-93703363D01*
X101639334Y-94082643D01*
X101654020Y-94258150D01*
X101657240Y-94590111D01*
X101705796Y-94285174D01*
X101730821Y-93942222D01*
X101722597Y-93554933D01*
X101675858Y-93193254D01*
X101593339Y-92758731D01*
X101545946Y-92555565D01*
X101383989Y-91882578D01*
X101275637Y-91350148D01*
X101210029Y-90901521D01*
X101190360Y-90697146D01*
X101168268Y-90435968D01*
X101157129Y-90389492D01*
X101152087Y-90572989D01*
X101149761Y-90824784D01*
X100935810Y-90824784D01*
X100941257Y-90783036D01*
X100958344Y-90313398D01*
X100944545Y-90152659D01*
X100917568Y-90020386D01*
X100897788Y-90089821D01*
X100877838Y-90387255D01*
X100877611Y-90391494D01*
X100835499Y-90758504D01*
X100748766Y-91249063D01*
X100632374Y-91779954D01*
X100615621Y-91848498D01*
X100496866Y-92350009D01*
X100426288Y-92722561D01*
X100392554Y-93044100D01*
X100384332Y-93392571D01*
X99792678Y-93392571D01*
X99778254Y-93078651D01*
X99816321Y-92556719D01*
X99860434Y-92339861D01*
X99948351Y-92078763D01*
X100084646Y-91748873D01*
X100203000Y-91496817D01*
X100446410Y-90967493D01*
X100614549Y-90477125D01*
X100723896Y-89955022D01*
X100790932Y-89330497D01*
X100818709Y-88855809D01*
X100847889Y-88444811D01*
X100886226Y-88194048D01*
X100912044Y-88144382D01*
X101020137Y-88251972D01*
G37*
X101020137Y-88251972D02*
X101138798Y-88525867D01*
X101243559Y-88892759D01*
X101309948Y-89279337D01*
X101316780Y-89356945D01*
X101421588Y-90228130D01*
X101606748Y-90951113D01*
X101834212Y-91473392D01*
X102038088Y-91879483D01*
X102166968Y-92227196D01*
X102234934Y-92580909D01*
X102256070Y-93005002D01*
X102250588Y-93376709D01*
X102198709Y-94048151D01*
X102084045Y-94531941D01*
X101901697Y-94837204D01*
X101646769Y-94973069D01*
X101396800Y-94967777D01*
X101214017Y-94934820D01*
X101080757Y-94919325D01*
X100955583Y-94920775D01*
X100797056Y-94938653D01*
X100658367Y-94958565D01*
X100457712Y-94959258D01*
X100269317Y-94913002D01*
X100175767Y-94860651D01*
X100011829Y-94604166D01*
X99884962Y-94173953D01*
X99804119Y-93641589D01*
X99792678Y-93392571D01*
X100384332Y-93392571D01*
X100384511Y-93438066D01*
X100388223Y-94079558D01*
X100483947Y-93402591D01*
X100568102Y-92882244D01*
X100674605Y-92319330D01*
X100729396Y-92062390D01*
X100863335Y-91380293D01*
X100935810Y-90824784D01*
X101149761Y-90824784D01*
X101159019Y-91160241D01*
X101197560Y-91536185D01*
X101273285Y-92011114D01*
X101394090Y-92643523D01*
X101397919Y-92662673D01*
X101501744Y-93209292D01*
X101585546Y-93703363D01*
X101639334Y-94082643D01*
X101654020Y-94258150D01*
X101657240Y-94590111D01*
X101705796Y-94285174D01*
X101730821Y-93942222D01*
X101722597Y-93554933D01*
X101675858Y-93193254D01*
X101593339Y-92758731D01*
X101545946Y-92555565D01*
X101383989Y-91882578D01*
X101275637Y-91350148D01*
X101210029Y-90901521D01*
X101190360Y-90697146D01*
X101168268Y-90435968D01*
X101157129Y-90389492D01*
X101152087Y-90572989D01*
X101149761Y-90824784D01*
X100935810Y-90824784D01*
X100941257Y-90783036D01*
X100958344Y-90313398D01*
X100944545Y-90152659D01*
X100917568Y-90020386D01*
X100897788Y-90089821D01*
X100877838Y-90387255D01*
X100877611Y-90391494D01*
X100835499Y-90758504D01*
X100748766Y-91249063D01*
X100632374Y-91779954D01*
X100615621Y-91848498D01*
X100496866Y-92350009D01*
X100426288Y-92722561D01*
X100392554Y-93044100D01*
X100384332Y-93392571D01*
X99792678Y-93392571D01*
X99778254Y-93078651D01*
X99816321Y-92556719D01*
X99860434Y-92339861D01*
X99948351Y-92078763D01*
X100084646Y-91748873D01*
X100203000Y-91496817D01*
X100446410Y-90967493D01*
X100614549Y-90477125D01*
X100723896Y-89955022D01*
X100790932Y-89330497D01*
X100818709Y-88855809D01*
X100847889Y-88444811D01*
X100886226Y-88194048D01*
X100912044Y-88144382D01*
X101020137Y-88251972D01*
G36*
X101190898Y-95126601D02*
G01*
X101386327Y-95158345D01*
X101542703Y-95209323D01*
X101635604Y-95274622D01*
X101650800Y-95315592D01*
X101610755Y-95377438D01*
X101541688Y-95349950D01*
X101467107Y-95316567D01*
X101449282Y-95428488D01*
X101461930Y-95628535D01*
X101495753Y-95979674D01*
X101525677Y-96217498D01*
X101530636Y-96403690D01*
X101503835Y-96440865D01*
X101449268Y-96373130D01*
X101446470Y-96345136D01*
X101416882Y-96187534D01*
X101346970Y-95939081D01*
X101344201Y-95930312D01*
X101280037Y-95743425D01*
X101265724Y-95757273D01*
X101278642Y-95866493D01*
X101295404Y-96039480D01*
X101258543Y-96006724D01*
X101236484Y-95963219D01*
X101172805Y-95886377D01*
X101123722Y-96007740D01*
X101101062Y-96122767D01*
X101036323Y-96382162D01*
X100988127Y-96417904D01*
X100972749Y-96234424D01*
X100980233Y-96089860D01*
X100991572Y-95856868D01*
X100966082Y-95831652D01*
X100930414Y-95897295D01*
X100853068Y-95991025D01*
X100820425Y-95971247D01*
X100763898Y-95986521D01*
X100674433Y-96140921D01*
X100672699Y-96144824D01*
X100532859Y-96435697D01*
X100456169Y-96533762D01*
X100443638Y-96438002D01*
X100453372Y-96366074D01*
X100487090Y-96073862D01*
X100516794Y-95690217D01*
X100518872Y-95654766D01*
X100541291Y-95369002D01*
X100586129Y-95225022D01*
X100683773Y-95163113D01*
X100780567Y-95140475D01*
X100980838Y-95119006D01*
X101190898Y-95126601D01*
G37*
X101190898Y-95126601D02*
X101386327Y-95158345D01*
X101542703Y-95209323D01*
X101635604Y-95274622D01*
X101650800Y-95315592D01*
X101610755Y-95377438D01*
X101541688Y-95349950D01*
X101467107Y-95316567D01*
X101449282Y-95428488D01*
X101461930Y-95628535D01*
X101495753Y-95979674D01*
X101525677Y-96217498D01*
X101530636Y-96403690D01*
X101503835Y-96440865D01*
X101449268Y-96373130D01*
X101446470Y-96345136D01*
X101416882Y-96187534D01*
X101346970Y-95939081D01*
X101344201Y-95930312D01*
X101280037Y-95743425D01*
X101265724Y-95757273D01*
X101278642Y-95866493D01*
X101295404Y-96039480D01*
X101258543Y-96006724D01*
X101236484Y-95963219D01*
X101172805Y-95886377D01*
X101123722Y-96007740D01*
X101101062Y-96122767D01*
X101036323Y-96382162D01*
X100988127Y-96417904D01*
X100972749Y-96234424D01*
X100980233Y-96089860D01*
X100991572Y-95856868D01*
X100966082Y-95831652D01*
X100930414Y-95897295D01*
X100853068Y-95991025D01*
X100820425Y-95971247D01*
X100763898Y-95986521D01*
X100674433Y-96140921D01*
X100672699Y-96144824D01*
X100532859Y-96435697D01*
X100456169Y-96533762D01*
X100443638Y-96438002D01*
X100453372Y-96366074D01*
X100487090Y-96073862D01*
X100516794Y-95690217D01*
X100518872Y-95654766D01*
X100541291Y-95369002D01*
X100586129Y-95225022D01*
X100683773Y-95163113D01*
X100780567Y-95140475D01*
X100980838Y-95119006D01*
X101190898Y-95126601D01*
D12*
%TO.C,J1*%
X124840000Y-145248000D02*
X131140000Y-145248000D01*
X124840000Y-142048000D02*
X124840000Y-145248000D01*
X131140000Y-114848000D02*
X124840000Y-114848000D01*
X134240000Y-135648000D02*
X134240000Y-132848000D01*
X124840000Y-114848000D02*
X124840000Y-117648000D01*
X124840000Y-132448000D02*
X124840000Y-135248000D01*
X134240000Y-143248000D02*
X134240000Y-142448000D01*
X134240000Y-118048000D02*
X134240000Y-116848000D01*
%TO.C,C12*%
X49791252Y-134847000D02*
X49268748Y-134847000D01*
X49791252Y-133377000D02*
X49268748Y-133377000D01*
D10*
%TO.C,MD1*%
X83335001Y-105725001D02*
X78935001Y-105725001D01*
X78935001Y-105725001D02*
X78935001Y-104525001D01*
X88535001Y-104525001D02*
X99135001Y-104525001D01*
X88535001Y-38925001D02*
X99135001Y-38925001D01*
X78935001Y-38925001D02*
X78935001Y-37725001D01*
X78935001Y-37725001D02*
X83335001Y-37725001D01*
X68935001Y-104525001D02*
X68935001Y-107325001D01*
X68935001Y-107325001D02*
X80335001Y-107325001D01*
X80335001Y-107325001D02*
X80735001Y-107725001D01*
X80735001Y-107725001D02*
X92135001Y-107725001D01*
X92135001Y-107725001D02*
X97935001Y-109325001D01*
X97935001Y-109325001D02*
X99135001Y-109325001D01*
X99135001Y-109325001D02*
X99135001Y-104525001D01*
X68935001Y-38925001D02*
X68935001Y-36125001D01*
X68935001Y-36125001D02*
X80335001Y-36125001D01*
X80335001Y-36125001D02*
X80735001Y-35725001D01*
X80735001Y-35725001D02*
X92335001Y-35725001D01*
X92335001Y-35725001D02*
X97935001Y-34125001D01*
X97935001Y-34125001D02*
X99135001Y-34125001D01*
X99135001Y-34125001D02*
X99135001Y-38925001D01*
X68335001Y-40525001D02*
X68335001Y-39525001D01*
X68335001Y-39525001D02*
X70135001Y-39525001D01*
D12*
%TO.C,J4*%
X46570000Y-76950000D02*
X51770000Y-76950000D01*
X46570000Y-56570000D02*
X46570000Y-76950000D01*
X51770000Y-53970000D02*
X51770000Y-76950000D01*
X46570000Y-56570000D02*
X49170000Y-56570000D01*
X49170000Y-56570000D02*
X49170000Y-53970000D01*
X49170000Y-53970000D02*
X51770000Y-53970000D01*
X46570000Y-55300000D02*
X46570000Y-53970000D01*
X46570000Y-53970000D02*
X47900000Y-53970000D01*
%TO.C,R5*%
X60207064Y-93080000D02*
X58752936Y-93080000D01*
X60207064Y-91260000D02*
X58752936Y-91260000D01*
%TO.C,J3*%
X46530000Y-47170000D02*
X51730000Y-47170000D01*
X46530000Y-42030000D02*
X46530000Y-47170000D01*
X51730000Y-39430000D02*
X51730000Y-47170000D01*
X46530000Y-42030000D02*
X49130000Y-42030000D01*
X49130000Y-42030000D02*
X49130000Y-39430000D01*
X49130000Y-39430000D02*
X51730000Y-39430000D01*
X46530000Y-40760000D02*
X46530000Y-39430000D01*
X46530000Y-39430000D02*
X47860000Y-39430000D01*
D13*
%TO.C,BT1*%
X129550000Y-67980000D02*
X133650000Y-67980000D01*
X133650000Y-67980000D02*
X133650000Y-71980000D01*
X129150000Y-79980000D02*
X133650000Y-79980000D01*
X133650000Y-79980000D02*
X133650000Y-75980000D01*
D12*
%TO.C,C3*%
X60825000Y-99861252D02*
X60825000Y-99338748D01*
X62295000Y-99861252D02*
X62295000Y-99338748D01*
%TO.C,C4*%
X134895000Y-62541252D02*
X134895000Y-62018748D01*
X136365000Y-62541252D02*
X136365000Y-62018748D01*
%TO.C,C5*%
X119545000Y-108351252D02*
X119545000Y-107828748D01*
X118075000Y-108351252D02*
X118075000Y-107828748D01*
%TO.C,C7*%
X120135000Y-98538748D02*
X120135000Y-99061252D01*
X118665000Y-98538748D02*
X118665000Y-99061252D01*
%TO.C,C11*%
X123238748Y-33635000D02*
X123761252Y-33635000D01*
X123238748Y-32165000D02*
X123761252Y-32165000D01*
%TO.C,C13*%
X51315252Y-107723000D02*
X50792748Y-107723000D01*
X51315252Y-109193000D02*
X50792748Y-109193000D01*
%TO.C,F1*%
X126073748Y-106490000D02*
X128846252Y-106490000D01*
X126073748Y-109910000D02*
X128846252Y-109910000D01*
%TO.C,J2*%
X132494000Y-109202000D02*
X132044000Y-109202000D01*
X132044000Y-108752000D02*
X132044000Y-109202000D01*
X132724000Y-111202000D02*
X132724000Y-110782000D01*
X134704000Y-111202000D02*
X132724000Y-111202000D01*
X137074000Y-111202000D02*
X136674000Y-111202000D01*
X136674000Y-103682000D02*
X137074000Y-103682000D01*
X132724000Y-103682000D02*
X132724000Y-104102000D01*
X134704000Y-103682000D02*
X132724000Y-103682000D01*
%TO.C,J5*%
X46490000Y-34850000D02*
X46490000Y-37510000D01*
X49090000Y-34850000D02*
X46490000Y-34850000D01*
X49090000Y-37510000D02*
X46490000Y-37510000D01*
X49090000Y-34850000D02*
X49090000Y-37510000D01*
X50360000Y-34850000D02*
X51690000Y-34850000D01*
X51690000Y-34850000D02*
X51690000Y-36180000D01*
%TO.C,J6*%
X51790000Y-49160000D02*
X51790000Y-50490000D01*
X50460000Y-49160000D02*
X51790000Y-49160000D01*
X49190000Y-49160000D02*
X49190000Y-51820000D01*
X49190000Y-51820000D02*
X46590000Y-51820000D01*
X49190000Y-49160000D02*
X46590000Y-49160000D01*
X46590000Y-49160000D02*
X46590000Y-51820000D01*
%TO.C,J7*%
X54562000Y-145740000D02*
X54562000Y-148740000D01*
X54562000Y-148740000D02*
X51562000Y-148740000D01*
X54182000Y-148360000D02*
X43942000Y-148360000D01*
X43942000Y-148360000D02*
X43942000Y-135620000D01*
X54182000Y-135620000D02*
X43942000Y-135620000D01*
X54182000Y-148360000D02*
X54182000Y-135620000D01*
X54182000Y-148360000D02*
X43942000Y-148360000D01*
X43942000Y-148360000D02*
X43942000Y-135620000D01*
X54182000Y-135620000D02*
X43942000Y-135620000D01*
X54182000Y-148360000D02*
X54182000Y-135620000D01*
%TO.C,J8*%
X135205000Y-38845000D02*
X134855000Y-39355000D01*
X135005000Y-36335000D02*
X135005000Y-36075000D01*
X135205000Y-36535000D02*
X135005000Y-36335000D01*
X135205000Y-45935000D02*
X135005000Y-45725000D01*
X134855000Y-45725000D02*
X135005000Y-45725000D01*
X134855000Y-45725000D02*
X134855000Y-39355000D01*
X130245000Y-48825000D02*
X132045000Y-48825000D01*
X124245000Y-48825000D02*
X128945000Y-48825000D01*
X135205000Y-47795000D02*
X135005000Y-47995000D01*
X135205000Y-47795000D02*
X135205000Y-45935000D01*
X135205000Y-36535000D02*
X135205000Y-38845000D01*
X118935000Y-48825000D02*
X122545000Y-48825000D01*
X118935000Y-48375000D02*
X118935000Y-48825000D01*
X118935000Y-34855000D02*
X132945000Y-34855000D01*
X118935000Y-36775000D02*
X118935000Y-34855000D01*
%TO.C,J11*%
X53908000Y-114416000D02*
X53908000Y-116216000D01*
X38728000Y-126126000D02*
X38728000Y-125476000D01*
X38728000Y-111506000D02*
X38208000Y-111506000D01*
X46838000Y-125476000D02*
X38728000Y-125476000D01*
X38208000Y-111506000D02*
X38208000Y-126126000D01*
X38208000Y-126126000D02*
X38728000Y-126126000D01*
X53688000Y-125476000D02*
X50358000Y-125476000D01*
X53688000Y-112156000D02*
X50358000Y-112156000D01*
X53688000Y-112156000D02*
X53688000Y-125476000D01*
X38728000Y-112156000D02*
X38728000Y-111506000D01*
X38728000Y-112156000D02*
X46838000Y-112156000D01*
D14*
%TO.C,L1*%
X131339300Y-96349000D02*
G75*
G03*
X131339300Y-96349000I-87300J0D01*
G01*
X129160000Y-101130000D02*
X129160000Y-97130000D01*
X133160000Y-97130000D02*
X133160000Y-101130000D01*
%TO.C,L2*%
X115860000Y-94830000D02*
X115860000Y-90830000D01*
X119860000Y-90830000D02*
X119860000Y-94830000D01*
X117855300Y-95611000D02*
G75*
G03*
X117855300Y-95611000I-87300J0D01*
G01*
D12*
%TO.C,Q1*%
X58450000Y-84150000D02*
X59910000Y-84150000D01*
X58450000Y-87310000D02*
X60610000Y-87310000D01*
X58450000Y-87310000D02*
X58450000Y-86380000D01*
X58450000Y-84150000D02*
X58450000Y-85080000D01*
%TO.C,Q2*%
X123070000Y-109770000D02*
X123070000Y-108840000D01*
X123070000Y-106610000D02*
X123070000Y-107540000D01*
X123070000Y-106610000D02*
X120910000Y-106610000D01*
X123070000Y-109770000D02*
X121610000Y-109770000D01*
D10*
%TO.C,U1*%
X54980000Y-109275000D02*
X55460000Y-109275000D01*
X54980000Y-105125000D02*
X55460000Y-105125000D01*
X65140000Y-105125000D02*
X64660000Y-105125000D01*
X65140000Y-109275000D02*
X64660000Y-109275000D01*
X54980000Y-109275000D02*
X54980000Y-105125000D01*
X65140000Y-109275000D02*
X65140000Y-105125000D01*
X55460000Y-109275000D02*
X55460000Y-110400000D01*
D12*
%TO.C,U2*%
X127130000Y-55260000D02*
X123270000Y-55260000D01*
X123270000Y-55260000D02*
X123270000Y-55515000D01*
X127130000Y-55260000D02*
X130990000Y-55260000D01*
X130990000Y-55260000D02*
X130990000Y-55515000D01*
X127130000Y-65780000D02*
X123270000Y-65780000D01*
X123270000Y-65780000D02*
X123270000Y-65525000D01*
X127130000Y-65780000D02*
X130990000Y-65780000D01*
X130990000Y-65780000D02*
X130990000Y-65525000D01*
X130990000Y-65525000D02*
X132805000Y-65525000D01*
%TO.C,U3*%
X124910000Y-98490000D02*
X123410000Y-98490000D01*
X126410000Y-95270000D02*
X123410000Y-95270000D01*
%TO.C,Y1*%
X50277000Y-97115000D02*
X50277000Y-103365000D01*
X45227000Y-97115000D02*
X45227000Y-103365000D01*
X45227000Y-97115000D02*
G75*
G02*
X50277000Y-97115000I2525000J0D01*
G01*
X45227000Y-103365000D02*
G75*
G03*
X50277000Y-103365000I2525000J0D01*
G01*
%TO.C,J9*%
X46550000Y-78580000D02*
X46550000Y-81240000D01*
X49150000Y-78580000D02*
X46550000Y-78580000D01*
X49150000Y-81240000D02*
X46550000Y-81240000D01*
X49150000Y-78580000D02*
X49150000Y-81240000D01*
X50420000Y-78580000D02*
X51750000Y-78580000D01*
X51750000Y-78580000D02*
X51750000Y-79910000D01*
%TO.C,C1*%
X59930000Y-100881252D02*
X59930000Y-99458748D01*
X58110000Y-100881252D02*
X58110000Y-99458748D01*
%TO.C,C2*%
X55080000Y-100911252D02*
X55080000Y-99488748D01*
X56900000Y-100911252D02*
X56900000Y-99488748D01*
%TO.C,C6*%
X125821252Y-101090000D02*
X124398748Y-101090000D01*
X125821252Y-99270000D02*
X124398748Y-99270000D01*
%TO.C,C8*%
X124298748Y-94390000D02*
X125721252Y-94390000D01*
X124298748Y-92570000D02*
X125721252Y-92570000D01*
%TO.C,C9*%
X124298748Y-91590000D02*
X125721252Y-91590000D01*
X124298748Y-89770000D02*
X125721252Y-89770000D01*
%TO.C,C10*%
X125821252Y-103940000D02*
X124398748Y-103940000D01*
X125821252Y-102120000D02*
X124398748Y-102120000D01*
%TO.C,ACT*%
X50119000Y-84599000D02*
X46234000Y-84599000D01*
X50119000Y-86869000D02*
X50119000Y-84599000D01*
X46234000Y-86869000D02*
X50119000Y-86869000D01*
%TO.C,PWR*%
X46264000Y-89949000D02*
X50149000Y-89949000D01*
X50149000Y-89949000D02*
X50149000Y-87679000D01*
X50149000Y-87679000D02*
X46264000Y-87679000D01*
%TO.C,INT*%
X114030000Y-110867000D02*
X110145000Y-110867000D01*
X110145000Y-110867000D02*
X110145000Y-113137000D01*
X110145000Y-113137000D02*
X114030000Y-113137000D01*
%TO.C,R1*%
X103682936Y-71270000D02*
X105137064Y-71270000D01*
X103682936Y-69450000D02*
X105137064Y-69450000D01*
%TO.C,R2*%
X104652936Y-51800000D02*
X106107064Y-51800000D01*
X104652936Y-49980000D02*
X106107064Y-49980000D01*
%TO.C,R3*%
X103702936Y-65920000D02*
X105157064Y-65920000D01*
X103702936Y-67740000D02*
X105157064Y-67740000D01*
%TO.C,R4*%
X104652936Y-47210000D02*
X106107064Y-47210000D01*
X104652936Y-49030000D02*
X106107064Y-49030000D01*
%TO.C,R6*%
X52902936Y-86660000D02*
X54357064Y-86660000D01*
X52902936Y-84840000D02*
X54357064Y-84840000D01*
%TO.C,R7*%
X52872936Y-89740000D02*
X54327064Y-89740000D01*
X52872936Y-87920000D02*
X54327064Y-87920000D01*
%TO.C,R8*%
X67344936Y-109326000D02*
X68799064Y-109326000D01*
X67344936Y-111146000D02*
X68799064Y-111146000D01*
%TO.C,R9*%
X107421064Y-111126000D02*
X105966936Y-111126000D01*
X107421064Y-112946000D02*
X105966936Y-112946000D01*
%TO.C,R10*%
X116130000Y-61472936D02*
X116130000Y-62927064D01*
X114310000Y-61472936D02*
X114310000Y-62927064D01*
%TO.C,R11*%
X117750000Y-61462936D02*
X117750000Y-62917064D01*
X119570000Y-61462936D02*
X119570000Y-62917064D01*
%TO.C,R12*%
X117910000Y-98652936D02*
X117910000Y-100107064D01*
X116090000Y-98652936D02*
X116090000Y-100107064D01*
%TO.C,J1*%
D10*
X135342380Y-142881333D02*
X136056666Y-142881333D01*
X136199523Y-142928952D01*
X136294761Y-143024190D01*
X136342380Y-143167047D01*
X136342380Y-143262285D01*
X136342380Y-141881333D02*
X136342380Y-142452761D01*
X136342380Y-142167047D02*
X135342380Y-142167047D01*
X135485238Y-142262285D01*
X135580476Y-142357523D01*
X135628095Y-142452761D01*
%TO.C,C12*%
X48887142Y-136149142D02*
X48839523Y-136196761D01*
X48696666Y-136244380D01*
X48601428Y-136244380D01*
X48458571Y-136196761D01*
X48363333Y-136101523D01*
X48315714Y-136006285D01*
X48268095Y-135815809D01*
X48268095Y-135672952D01*
X48315714Y-135482476D01*
X48363333Y-135387238D01*
X48458571Y-135292000D01*
X48601428Y-135244380D01*
X48696666Y-135244380D01*
X48839523Y-135292000D01*
X48887142Y-135339619D01*
X49839523Y-136244380D02*
X49268095Y-136244380D01*
X49553809Y-136244380D02*
X49553809Y-135244380D01*
X49458571Y-135387238D01*
X49363333Y-135482476D01*
X49268095Y-135530095D01*
X50220476Y-135339619D02*
X50268095Y-135292000D01*
X50363333Y-135244380D01*
X50601428Y-135244380D01*
X50696666Y-135292000D01*
X50744285Y-135339619D01*
X50791904Y-135434857D01*
X50791904Y-135530095D01*
X50744285Y-135672952D01*
X50172857Y-136244380D01*
X50791904Y-136244380D01*
%TO.C,J4*%
X48836666Y-52422380D02*
X48836666Y-53136666D01*
X48789047Y-53279523D01*
X48693809Y-53374761D01*
X48550952Y-53422380D01*
X48455714Y-53422380D01*
X49741428Y-52755714D02*
X49741428Y-53422380D01*
X49503333Y-52374761D02*
X49265238Y-53089047D01*
X49884285Y-53089047D01*
%TO.C,R5*%
X59313333Y-94902380D02*
X58980000Y-94426190D01*
X58741904Y-94902380D02*
X58741904Y-93902380D01*
X59122857Y-93902380D01*
X59218095Y-93950000D01*
X59265714Y-93997619D01*
X59313333Y-94092857D01*
X59313333Y-94235714D01*
X59265714Y-94330952D01*
X59218095Y-94378571D01*
X59122857Y-94426190D01*
X58741904Y-94426190D01*
X60218095Y-93902380D02*
X59741904Y-93902380D01*
X59694285Y-94378571D01*
X59741904Y-94330952D01*
X59837142Y-94283333D01*
X60075238Y-94283333D01*
X60170476Y-94330952D01*
X60218095Y-94378571D01*
X60265714Y-94473809D01*
X60265714Y-94711904D01*
X60218095Y-94807142D01*
X60170476Y-94854761D01*
X60075238Y-94902380D01*
X59837142Y-94902380D01*
X59741904Y-94854761D01*
X59694285Y-94807142D01*
%TO.C,J3*%
X48796666Y-37882380D02*
X48796666Y-38596666D01*
X48749047Y-38739523D01*
X48653809Y-38834761D01*
X48510952Y-38882380D01*
X48415714Y-38882380D01*
X49177619Y-37882380D02*
X49796666Y-37882380D01*
X49463333Y-38263333D01*
X49606190Y-38263333D01*
X49701428Y-38310952D01*
X49749047Y-38358571D01*
X49796666Y-38453809D01*
X49796666Y-38691904D01*
X49749047Y-38787142D01*
X49701428Y-38834761D01*
X49606190Y-38882380D01*
X49320476Y-38882380D01*
X49225238Y-38834761D01*
X49177619Y-38787142D01*
%TO.C,BT1*%
D15*
X124752142Y-73889285D02*
X124933571Y-73949761D01*
X124994047Y-74010238D01*
X125054523Y-74131190D01*
X125054523Y-74312619D01*
X124994047Y-74433571D01*
X124933571Y-74494047D01*
X124812619Y-74554523D01*
X124328809Y-74554523D01*
X124328809Y-73284523D01*
X124752142Y-73284523D01*
X124873095Y-73345000D01*
X124933571Y-73405476D01*
X124994047Y-73526428D01*
X124994047Y-73647380D01*
X124933571Y-73768333D01*
X124873095Y-73828809D01*
X124752142Y-73889285D01*
X124328809Y-73889285D01*
X125417380Y-73284523D02*
X126143095Y-73284523D01*
X125780238Y-74554523D02*
X125780238Y-73284523D01*
X127231666Y-74554523D02*
X126505952Y-74554523D01*
X126868809Y-74554523D02*
X126868809Y-73284523D01*
X126747857Y-73465952D01*
X126626904Y-73586904D01*
X126505952Y-73647380D01*
%TO.C,C3*%
D10*
X61253333Y-97447142D02*
X61205714Y-97494761D01*
X61062857Y-97542380D01*
X60967619Y-97542380D01*
X60824761Y-97494761D01*
X60729523Y-97399523D01*
X60681904Y-97304285D01*
X60634285Y-97113809D01*
X60634285Y-96970952D01*
X60681904Y-96780476D01*
X60729523Y-96685238D01*
X60824761Y-96590000D01*
X60967619Y-96542380D01*
X61062857Y-96542380D01*
X61205714Y-96590000D01*
X61253333Y-96637619D01*
X61586666Y-96542380D02*
X62205714Y-96542380D01*
X61872380Y-96923333D01*
X62015238Y-96923333D01*
X62110476Y-96970952D01*
X62158095Y-97018571D01*
X62205714Y-97113809D01*
X62205714Y-97351904D01*
X62158095Y-97447142D01*
X62110476Y-97494761D01*
X62015238Y-97542380D01*
X61729523Y-97542380D01*
X61634285Y-97494761D01*
X61586666Y-97447142D01*
%TO.C,C4*%
X134307142Y-62446666D02*
X134354761Y-62494285D01*
X134402380Y-62637142D01*
X134402380Y-62732380D01*
X134354761Y-62875238D01*
X134259523Y-62970476D01*
X134164285Y-63018095D01*
X133973809Y-63065714D01*
X133830952Y-63065714D01*
X133640476Y-63018095D01*
X133545238Y-62970476D01*
X133450000Y-62875238D01*
X133402380Y-62732380D01*
X133402380Y-62637142D01*
X133450000Y-62494285D01*
X133497619Y-62446666D01*
X133735714Y-61589523D02*
X134402380Y-61589523D01*
X133354761Y-61827619D02*
X134069047Y-62065714D01*
X134069047Y-61446666D01*
%TO.C,C5*%
X117487142Y-108256666D02*
X117534761Y-108304285D01*
X117582380Y-108447142D01*
X117582380Y-108542380D01*
X117534761Y-108685238D01*
X117439523Y-108780476D01*
X117344285Y-108828095D01*
X117153809Y-108875714D01*
X117010952Y-108875714D01*
X116820476Y-108828095D01*
X116725238Y-108780476D01*
X116630000Y-108685238D01*
X116582380Y-108542380D01*
X116582380Y-108447142D01*
X116630000Y-108304285D01*
X116677619Y-108256666D01*
X116582380Y-107351904D02*
X116582380Y-107828095D01*
X117058571Y-107875714D01*
X117010952Y-107828095D01*
X116963333Y-107732857D01*
X116963333Y-107494761D01*
X117010952Y-107399523D01*
X117058571Y-107351904D01*
X117153809Y-107304285D01*
X117391904Y-107304285D01*
X117487142Y-107351904D01*
X117534761Y-107399523D01*
X117582380Y-107494761D01*
X117582380Y-107732857D01*
X117534761Y-107828095D01*
X117487142Y-107875714D01*
%TO.C,C7*%
X121437142Y-98966666D02*
X121484761Y-99014285D01*
X121532380Y-99157142D01*
X121532380Y-99252380D01*
X121484761Y-99395238D01*
X121389523Y-99490476D01*
X121294285Y-99538095D01*
X121103809Y-99585714D01*
X120960952Y-99585714D01*
X120770476Y-99538095D01*
X120675238Y-99490476D01*
X120580000Y-99395238D01*
X120532380Y-99252380D01*
X120532380Y-99157142D01*
X120580000Y-99014285D01*
X120627619Y-98966666D01*
X120532380Y-98633333D02*
X120532380Y-97966666D01*
X121532380Y-98395238D01*
%TO.C,C11*%
X126727142Y-33157142D02*
X126679523Y-33204761D01*
X126536666Y-33252380D01*
X126441428Y-33252380D01*
X126298571Y-33204761D01*
X126203333Y-33109523D01*
X126155714Y-33014285D01*
X126108095Y-32823809D01*
X126108095Y-32680952D01*
X126155714Y-32490476D01*
X126203333Y-32395238D01*
X126298571Y-32300000D01*
X126441428Y-32252380D01*
X126536666Y-32252380D01*
X126679523Y-32300000D01*
X126727142Y-32347619D01*
X127679523Y-33252380D02*
X127108095Y-33252380D01*
X127393809Y-33252380D02*
X127393809Y-32252380D01*
X127298571Y-32395238D01*
X127203333Y-32490476D01*
X127108095Y-32538095D01*
X128631904Y-33252380D02*
X128060476Y-33252380D01*
X128346190Y-33252380D02*
X128346190Y-32252380D01*
X128250952Y-32395238D01*
X128155714Y-32490476D01*
X128060476Y-32538095D01*
%TO.C,C13*%
X50411142Y-110495142D02*
X50363523Y-110542761D01*
X50220666Y-110590380D01*
X50125428Y-110590380D01*
X49982571Y-110542761D01*
X49887333Y-110447523D01*
X49839714Y-110352285D01*
X49792095Y-110161809D01*
X49792095Y-110018952D01*
X49839714Y-109828476D01*
X49887333Y-109733238D01*
X49982571Y-109638000D01*
X50125428Y-109590380D01*
X50220666Y-109590380D01*
X50363523Y-109638000D01*
X50411142Y-109685619D01*
X51363523Y-110590380D02*
X50792095Y-110590380D01*
X51077809Y-110590380D02*
X51077809Y-109590380D01*
X50982571Y-109733238D01*
X50887333Y-109828476D01*
X50792095Y-109876095D01*
X51696857Y-109590380D02*
X52315904Y-109590380D01*
X51982571Y-109971333D01*
X52125428Y-109971333D01*
X52220666Y-110018952D01*
X52268285Y-110066571D01*
X52315904Y-110161809D01*
X52315904Y-110399904D01*
X52268285Y-110495142D01*
X52220666Y-110542761D01*
X52125428Y-110590380D01*
X51839714Y-110590380D01*
X51744476Y-110542761D01*
X51696857Y-110495142D01*
%TO.C,F1*%
X127126666Y-105478571D02*
X126793333Y-105478571D01*
X126793333Y-106002380D02*
X126793333Y-105002380D01*
X127269523Y-105002380D01*
X128174285Y-106002380D02*
X127602857Y-106002380D01*
X127888571Y-106002380D02*
X127888571Y-105002380D01*
X127793333Y-105145238D01*
X127698095Y-105240476D01*
X127602857Y-105288095D01*
%TO.C,J2*%
X130336380Y-107775333D02*
X131050666Y-107775333D01*
X131193523Y-107822952D01*
X131288761Y-107918190D01*
X131336380Y-108061047D01*
X131336380Y-108156285D01*
X130431619Y-107346761D02*
X130384000Y-107299142D01*
X130336380Y-107203904D01*
X130336380Y-106965809D01*
X130384000Y-106870571D01*
X130431619Y-106822952D01*
X130526857Y-106775333D01*
X130622095Y-106775333D01*
X130764952Y-106822952D01*
X131336380Y-107394380D01*
X131336380Y-106775333D01*
%TO.C,J5*%
X52142380Y-36513333D02*
X52856666Y-36513333D01*
X52999523Y-36560952D01*
X53094761Y-36656190D01*
X53142380Y-36799047D01*
X53142380Y-36894285D01*
X52142380Y-35560952D02*
X52142380Y-36037142D01*
X52618571Y-36084761D01*
X52570952Y-36037142D01*
X52523333Y-35941904D01*
X52523333Y-35703809D01*
X52570952Y-35608571D01*
X52618571Y-35560952D01*
X52713809Y-35513333D01*
X52951904Y-35513333D01*
X53047142Y-35560952D01*
X53094761Y-35608571D01*
X53142380Y-35703809D01*
X53142380Y-35941904D01*
X53094761Y-36037142D01*
X53047142Y-36084761D01*
%TO.C,J6*%
X52242380Y-50823333D02*
X52956666Y-50823333D01*
X53099523Y-50870952D01*
X53194761Y-50966190D01*
X53242380Y-51109047D01*
X53242380Y-51204285D01*
X52242380Y-49918571D02*
X52242380Y-50109047D01*
X52290000Y-50204285D01*
X52337619Y-50251904D01*
X52480476Y-50347142D01*
X52670952Y-50394761D01*
X53051904Y-50394761D01*
X53147142Y-50347142D01*
X53194761Y-50299523D01*
X53242380Y-50204285D01*
X53242380Y-50013809D01*
X53194761Y-49918571D01*
X53147142Y-49870952D01*
X53051904Y-49823333D01*
X52813809Y-49823333D01*
X52718571Y-49870952D01*
X52670952Y-49918571D01*
X52623333Y-50013809D01*
X52623333Y-50204285D01*
X52670952Y-50299523D01*
X52718571Y-50347142D01*
X52813809Y-50394761D01*
%TO.C,J7*%
X51228666Y-148892380D02*
X51228666Y-149606666D01*
X51181047Y-149749523D01*
X51085809Y-149844761D01*
X50942952Y-149892380D01*
X50847714Y-149892380D01*
X51609619Y-148892380D02*
X52276285Y-148892380D01*
X51847714Y-149892380D01*
%TO.C,J8*%
X116747380Y-42258333D02*
X117461666Y-42258333D01*
X117604523Y-42305952D01*
X117699761Y-42401190D01*
X117747380Y-42544047D01*
X117747380Y-42639285D01*
X117175952Y-41639285D02*
X117128333Y-41734523D01*
X117080714Y-41782142D01*
X116985476Y-41829761D01*
X116937857Y-41829761D01*
X116842619Y-41782142D01*
X116795000Y-41734523D01*
X116747380Y-41639285D01*
X116747380Y-41448809D01*
X116795000Y-41353571D01*
X116842619Y-41305952D01*
X116937857Y-41258333D01*
X116985476Y-41258333D01*
X117080714Y-41305952D01*
X117128333Y-41353571D01*
X117175952Y-41448809D01*
X117175952Y-41639285D01*
X117223571Y-41734523D01*
X117271190Y-41782142D01*
X117366428Y-41829761D01*
X117556904Y-41829761D01*
X117652142Y-41782142D01*
X117699761Y-41734523D01*
X117747380Y-41639285D01*
X117747380Y-41448809D01*
X117699761Y-41353571D01*
X117652142Y-41305952D01*
X117556904Y-41258333D01*
X117366428Y-41258333D01*
X117271190Y-41305952D01*
X117223571Y-41353571D01*
X117175952Y-41448809D01*
%TO.C,J11*%
X53950380Y-119625523D02*
X54664666Y-119625523D01*
X54807523Y-119673142D01*
X54902761Y-119768380D01*
X54950380Y-119911238D01*
X54950380Y-120006476D01*
X54950380Y-118625523D02*
X54950380Y-119196952D01*
X54950380Y-118911238D02*
X53950380Y-118911238D01*
X54093238Y-119006476D01*
X54188476Y-119101714D01*
X54236095Y-119196952D01*
X54950380Y-117673142D02*
X54950380Y-118244571D01*
X54950380Y-117958857D02*
X53950380Y-117958857D01*
X54093238Y-118054095D01*
X54188476Y-118149333D01*
X54236095Y-118244571D01*
%TO.C,L1*%
D15*
X131779813Y-98976156D02*
X131779813Y-99580918D01*
X130509813Y-99580918D01*
X131779813Y-97887585D02*
X131779813Y-98613299D01*
X131779813Y-98250442D02*
X130509813Y-98250442D01*
X130691242Y-98371394D01*
X130812194Y-98492347D01*
X130872670Y-98613299D01*
%TO.C,L2*%
X118389233Y-93407176D02*
X118389233Y-94011938D01*
X117119233Y-94011938D01*
X117240186Y-93044319D02*
X117179710Y-92983843D01*
X117119233Y-92862890D01*
X117119233Y-92560510D01*
X117179710Y-92439557D01*
X117240186Y-92379081D01*
X117361138Y-92318605D01*
X117482090Y-92318605D01*
X117663519Y-92379081D01*
X118389233Y-93104795D01*
X118389233Y-92318605D01*
%TO.C,Q1*%
D10*
X59114761Y-88777619D02*
X59019523Y-88730000D01*
X58924285Y-88634761D01*
X58781428Y-88491904D01*
X58686190Y-88444285D01*
X58590952Y-88444285D01*
X58638571Y-88682380D02*
X58543333Y-88634761D01*
X58448095Y-88539523D01*
X58400476Y-88349047D01*
X58400476Y-88015714D01*
X58448095Y-87825238D01*
X58543333Y-87730000D01*
X58638571Y-87682380D01*
X58829047Y-87682380D01*
X58924285Y-87730000D01*
X59019523Y-87825238D01*
X59067142Y-88015714D01*
X59067142Y-88349047D01*
X59019523Y-88539523D01*
X58924285Y-88634761D01*
X58829047Y-88682380D01*
X58638571Y-88682380D01*
X60019523Y-88682380D02*
X59448095Y-88682380D01*
X59733809Y-88682380D02*
X59733809Y-87682380D01*
X59638571Y-87825238D01*
X59543333Y-87920476D01*
X59448095Y-87968095D01*
%TO.C,Q2*%
X122214761Y-106237619D02*
X122119523Y-106190000D01*
X122024285Y-106094761D01*
X121881428Y-105951904D01*
X121786190Y-105904285D01*
X121690952Y-105904285D01*
X121738571Y-106142380D02*
X121643333Y-106094761D01*
X121548095Y-105999523D01*
X121500476Y-105809047D01*
X121500476Y-105475714D01*
X121548095Y-105285238D01*
X121643333Y-105190000D01*
X121738571Y-105142380D01*
X121929047Y-105142380D01*
X122024285Y-105190000D01*
X122119523Y-105285238D01*
X122167142Y-105475714D01*
X122167142Y-105809047D01*
X122119523Y-105999523D01*
X122024285Y-106094761D01*
X121929047Y-106142380D01*
X121738571Y-106142380D01*
X122548095Y-105237619D02*
X122595714Y-105190000D01*
X122690952Y-105142380D01*
X122929047Y-105142380D01*
X123024285Y-105190000D01*
X123071904Y-105237619D01*
X123119523Y-105332857D01*
X123119523Y-105428095D01*
X123071904Y-105570952D01*
X122500476Y-106142380D01*
X123119523Y-106142380D01*
%TO.C,U1*%
X53612380Y-107961904D02*
X54421904Y-107961904D01*
X54517142Y-107914285D01*
X54564761Y-107866666D01*
X54612380Y-107771428D01*
X54612380Y-107580952D01*
X54564761Y-107485714D01*
X54517142Y-107438095D01*
X54421904Y-107390476D01*
X53612380Y-107390476D01*
X54612380Y-106390476D02*
X54612380Y-106961904D01*
X54612380Y-106676190D02*
X53612380Y-106676190D01*
X53755238Y-106771428D01*
X53850476Y-106866666D01*
X53898095Y-106961904D01*
%TO.C,U2*%
X126368095Y-66072380D02*
X126368095Y-66881904D01*
X126415714Y-66977142D01*
X126463333Y-67024761D01*
X126558571Y-67072380D01*
X126749047Y-67072380D01*
X126844285Y-67024761D01*
X126891904Y-66977142D01*
X126939523Y-66881904D01*
X126939523Y-66072380D01*
X127368095Y-66167619D02*
X127415714Y-66120000D01*
X127510952Y-66072380D01*
X127749047Y-66072380D01*
X127844285Y-66120000D01*
X127891904Y-66167619D01*
X127939523Y-66262857D01*
X127939523Y-66358095D01*
X127891904Y-66500952D01*
X127320476Y-67072380D01*
X127939523Y-67072380D01*
%TO.C,U3*%
X124148095Y-98782380D02*
X124148095Y-99591904D01*
X124195714Y-99687142D01*
X124243333Y-99734761D01*
X124338571Y-99782380D01*
X124529047Y-99782380D01*
X124624285Y-99734761D01*
X124671904Y-99687142D01*
X124719523Y-99591904D01*
X124719523Y-98782380D01*
X125100476Y-98782380D02*
X125719523Y-98782380D01*
X125386190Y-99163333D01*
X125529047Y-99163333D01*
X125624285Y-99210952D01*
X125671904Y-99258571D01*
X125719523Y-99353809D01*
X125719523Y-99591904D01*
X125671904Y-99687142D01*
X125624285Y-99734761D01*
X125529047Y-99782380D01*
X125243333Y-99782380D01*
X125148095Y-99734761D01*
X125100476Y-99687142D01*
%TO.C,Y1*%
X51253190Y-100716190D02*
X51729380Y-100716190D01*
X50729380Y-101049523D02*
X51253190Y-100716190D01*
X50729380Y-100382857D01*
X51729380Y-99525714D02*
X51729380Y-100097142D01*
X51729380Y-99811428D02*
X50729380Y-99811428D01*
X50872238Y-99906666D01*
X50967476Y-100001904D01*
X51015095Y-100097142D01*
%TO.C,J9*%
X52202380Y-80243333D02*
X52916666Y-80243333D01*
X53059523Y-80290952D01*
X53154761Y-80386190D01*
X53202380Y-80529047D01*
X53202380Y-80624285D01*
X53202380Y-79719523D02*
X53202380Y-79529047D01*
X53154761Y-79433809D01*
X53107142Y-79386190D01*
X52964285Y-79290952D01*
X52773809Y-79243333D01*
X52392857Y-79243333D01*
X52297619Y-79290952D01*
X52250000Y-79338571D01*
X52202380Y-79433809D01*
X52202380Y-79624285D01*
X52250000Y-79719523D01*
X52297619Y-79767142D01*
X52392857Y-79814761D01*
X52630952Y-79814761D01*
X52726190Y-79767142D01*
X52773809Y-79719523D01*
X52821428Y-79624285D01*
X52821428Y-79433809D01*
X52773809Y-79338571D01*
X52726190Y-79290952D01*
X52630952Y-79243333D01*
%TO.C,C1*%
X58903333Y-97507142D02*
X58855714Y-97554761D01*
X58712857Y-97602380D01*
X58617619Y-97602380D01*
X58474761Y-97554761D01*
X58379523Y-97459523D01*
X58331904Y-97364285D01*
X58284285Y-97173809D01*
X58284285Y-97030952D01*
X58331904Y-96840476D01*
X58379523Y-96745238D01*
X58474761Y-96650000D01*
X58617619Y-96602380D01*
X58712857Y-96602380D01*
X58855714Y-96650000D01*
X58903333Y-96697619D01*
X59855714Y-97602380D02*
X59284285Y-97602380D01*
X59570000Y-97602380D02*
X59570000Y-96602380D01*
X59474761Y-96745238D01*
X59379523Y-96840476D01*
X59284285Y-96888095D01*
%TO.C,C2*%
X55823333Y-97467142D02*
X55775714Y-97514761D01*
X55632857Y-97562380D01*
X55537619Y-97562380D01*
X55394761Y-97514761D01*
X55299523Y-97419523D01*
X55251904Y-97324285D01*
X55204285Y-97133809D01*
X55204285Y-96990952D01*
X55251904Y-96800476D01*
X55299523Y-96705238D01*
X55394761Y-96610000D01*
X55537619Y-96562380D01*
X55632857Y-96562380D01*
X55775714Y-96610000D01*
X55823333Y-96657619D01*
X56204285Y-96657619D02*
X56251904Y-96610000D01*
X56347142Y-96562380D01*
X56585238Y-96562380D01*
X56680476Y-96610000D01*
X56728095Y-96657619D01*
X56775714Y-96752857D01*
X56775714Y-96848095D01*
X56728095Y-96990952D01*
X56156666Y-97562380D01*
X56775714Y-97562380D01*
%TO.C,C6*%
X124943333Y-102387142D02*
X124895714Y-102434761D01*
X124752857Y-102482380D01*
X124657619Y-102482380D01*
X124514761Y-102434761D01*
X124419523Y-102339523D01*
X124371904Y-102244285D01*
X124324285Y-102053809D01*
X124324285Y-101910952D01*
X124371904Y-101720476D01*
X124419523Y-101625238D01*
X124514761Y-101530000D01*
X124657619Y-101482380D01*
X124752857Y-101482380D01*
X124895714Y-101530000D01*
X124943333Y-101577619D01*
X125800476Y-101482380D02*
X125610000Y-101482380D01*
X125514761Y-101530000D01*
X125467142Y-101577619D01*
X125371904Y-101720476D01*
X125324285Y-101910952D01*
X125324285Y-102291904D01*
X125371904Y-102387142D01*
X125419523Y-102434761D01*
X125514761Y-102482380D01*
X125705238Y-102482380D01*
X125800476Y-102434761D01*
X125848095Y-102387142D01*
X125895714Y-102291904D01*
X125895714Y-102053809D01*
X125848095Y-101958571D01*
X125800476Y-101910952D01*
X125705238Y-101863333D01*
X125514761Y-101863333D01*
X125419523Y-101910952D01*
X125371904Y-101958571D01*
X125324285Y-102053809D01*
%TO.C,C8*%
X124843333Y-91987142D02*
X124795714Y-92034761D01*
X124652857Y-92082380D01*
X124557619Y-92082380D01*
X124414761Y-92034761D01*
X124319523Y-91939523D01*
X124271904Y-91844285D01*
X124224285Y-91653809D01*
X124224285Y-91510952D01*
X124271904Y-91320476D01*
X124319523Y-91225238D01*
X124414761Y-91130000D01*
X124557619Y-91082380D01*
X124652857Y-91082380D01*
X124795714Y-91130000D01*
X124843333Y-91177619D01*
X125414761Y-91510952D02*
X125319523Y-91463333D01*
X125271904Y-91415714D01*
X125224285Y-91320476D01*
X125224285Y-91272857D01*
X125271904Y-91177619D01*
X125319523Y-91130000D01*
X125414761Y-91082380D01*
X125605238Y-91082380D01*
X125700476Y-91130000D01*
X125748095Y-91177619D01*
X125795714Y-91272857D01*
X125795714Y-91320476D01*
X125748095Y-91415714D01*
X125700476Y-91463333D01*
X125605238Y-91510952D01*
X125414761Y-91510952D01*
X125319523Y-91558571D01*
X125271904Y-91606190D01*
X125224285Y-91701428D01*
X125224285Y-91891904D01*
X125271904Y-91987142D01*
X125319523Y-92034761D01*
X125414761Y-92082380D01*
X125605238Y-92082380D01*
X125700476Y-92034761D01*
X125748095Y-91987142D01*
X125795714Y-91891904D01*
X125795714Y-91701428D01*
X125748095Y-91606190D01*
X125700476Y-91558571D01*
X125605238Y-91510952D01*
%TO.C,C9*%
X124843333Y-89187142D02*
X124795714Y-89234761D01*
X124652857Y-89282380D01*
X124557619Y-89282380D01*
X124414761Y-89234761D01*
X124319523Y-89139523D01*
X124271904Y-89044285D01*
X124224285Y-88853809D01*
X124224285Y-88710952D01*
X124271904Y-88520476D01*
X124319523Y-88425238D01*
X124414761Y-88330000D01*
X124557619Y-88282380D01*
X124652857Y-88282380D01*
X124795714Y-88330000D01*
X124843333Y-88377619D01*
X125319523Y-89282380D02*
X125510000Y-89282380D01*
X125605238Y-89234761D01*
X125652857Y-89187142D01*
X125748095Y-89044285D01*
X125795714Y-88853809D01*
X125795714Y-88472857D01*
X125748095Y-88377619D01*
X125700476Y-88330000D01*
X125605238Y-88282380D01*
X125414761Y-88282380D01*
X125319523Y-88330000D01*
X125271904Y-88377619D01*
X125224285Y-88472857D01*
X125224285Y-88710952D01*
X125271904Y-88806190D01*
X125319523Y-88853809D01*
X125414761Y-88901428D01*
X125605238Y-88901428D01*
X125700476Y-88853809D01*
X125748095Y-88806190D01*
X125795714Y-88710952D01*
%TO.C,C10*%
X124467142Y-105237142D02*
X124419523Y-105284761D01*
X124276666Y-105332380D01*
X124181428Y-105332380D01*
X124038571Y-105284761D01*
X123943333Y-105189523D01*
X123895714Y-105094285D01*
X123848095Y-104903809D01*
X123848095Y-104760952D01*
X123895714Y-104570476D01*
X123943333Y-104475238D01*
X124038571Y-104380000D01*
X124181428Y-104332380D01*
X124276666Y-104332380D01*
X124419523Y-104380000D01*
X124467142Y-104427619D01*
X125419523Y-105332380D02*
X124848095Y-105332380D01*
X125133809Y-105332380D02*
X125133809Y-104332380D01*
X125038571Y-104475238D01*
X124943333Y-104570476D01*
X124848095Y-104618095D01*
X126038571Y-104332380D02*
X126133809Y-104332380D01*
X126229047Y-104380000D01*
X126276666Y-104427619D01*
X126324285Y-104522857D01*
X126371904Y-104713333D01*
X126371904Y-104951428D01*
X126324285Y-105141904D01*
X126276666Y-105237142D01*
X126229047Y-105284761D01*
X126133809Y-105332380D01*
X126038571Y-105332380D01*
X125943333Y-105284761D01*
X125895714Y-105237142D01*
X125848095Y-105141904D01*
X125800476Y-104951428D01*
X125800476Y-104713333D01*
X125848095Y-104522857D01*
X125895714Y-104427619D01*
X125943333Y-104380000D01*
X126038571Y-104332380D01*
%TO.C,ACT*%
X44966666Y-86709047D02*
X44966666Y-86232857D01*
X45252380Y-86804285D02*
X44252380Y-86470952D01*
X45252380Y-86137619D01*
X45157142Y-85232857D02*
X45204761Y-85280476D01*
X45252380Y-85423333D01*
X45252380Y-85518571D01*
X45204761Y-85661428D01*
X45109523Y-85756666D01*
X45014285Y-85804285D01*
X44823809Y-85851904D01*
X44680952Y-85851904D01*
X44490476Y-85804285D01*
X44395238Y-85756666D01*
X44300000Y-85661428D01*
X44252380Y-85518571D01*
X44252380Y-85423333D01*
X44300000Y-85280476D01*
X44347619Y-85232857D01*
X44252380Y-84947142D02*
X44252380Y-84375714D01*
X45252380Y-84661428D02*
X44252380Y-84661428D01*
%TO.C,PWR*%
X45232380Y-90233333D02*
X44232380Y-90233333D01*
X44232380Y-89852380D01*
X44280000Y-89757142D01*
X44327619Y-89709523D01*
X44422857Y-89661904D01*
X44565714Y-89661904D01*
X44660952Y-89709523D01*
X44708571Y-89757142D01*
X44756190Y-89852380D01*
X44756190Y-90233333D01*
X44232380Y-89328571D02*
X45232380Y-89090476D01*
X44518095Y-88900000D01*
X45232380Y-88709523D01*
X44232380Y-88471428D01*
X45232380Y-87519047D02*
X44756190Y-87852380D01*
X45232380Y-88090476D02*
X44232380Y-88090476D01*
X44232380Y-87709523D01*
X44280000Y-87614285D01*
X44327619Y-87566666D01*
X44422857Y-87519047D01*
X44565714Y-87519047D01*
X44660952Y-87566666D01*
X44708571Y-87614285D01*
X44756190Y-87709523D01*
X44756190Y-88090476D01*
%TO.C,INT*%
X111617238Y-110434380D02*
X111617238Y-109434380D01*
X112093428Y-110434380D02*
X112093428Y-109434380D01*
X112664857Y-110434380D01*
X112664857Y-109434380D01*
X112998190Y-109434380D02*
X113569619Y-109434380D01*
X113283904Y-110434380D02*
X113283904Y-109434380D01*
%TO.C,R1*%
X104243333Y-68992380D02*
X103910000Y-68516190D01*
X103671904Y-68992380D02*
X103671904Y-67992380D01*
X104052857Y-67992380D01*
X104148095Y-68040000D01*
X104195714Y-68087619D01*
X104243333Y-68182857D01*
X104243333Y-68325714D01*
X104195714Y-68420952D01*
X104148095Y-68468571D01*
X104052857Y-68516190D01*
X103671904Y-68516190D01*
X105195714Y-68992380D02*
X104624285Y-68992380D01*
X104910000Y-68992380D02*
X104910000Y-67992380D01*
X104814761Y-68135238D01*
X104719523Y-68230476D01*
X104624285Y-68278095D01*
%TO.C,R2*%
X105213333Y-49522380D02*
X104880000Y-49046190D01*
X104641904Y-49522380D02*
X104641904Y-48522380D01*
X105022857Y-48522380D01*
X105118095Y-48570000D01*
X105165714Y-48617619D01*
X105213333Y-48712857D01*
X105213333Y-48855714D01*
X105165714Y-48950952D01*
X105118095Y-48998571D01*
X105022857Y-49046190D01*
X104641904Y-49046190D01*
X105594285Y-48617619D02*
X105641904Y-48570000D01*
X105737142Y-48522380D01*
X105975238Y-48522380D01*
X106070476Y-48570000D01*
X106118095Y-48617619D01*
X106165714Y-48712857D01*
X106165714Y-48808095D01*
X106118095Y-48950952D01*
X105546666Y-49522380D01*
X106165714Y-49522380D01*
%TO.C,R3*%
X104263333Y-65462380D02*
X103930000Y-64986190D01*
X103691904Y-65462380D02*
X103691904Y-64462380D01*
X104072857Y-64462380D01*
X104168095Y-64510000D01*
X104215714Y-64557619D01*
X104263333Y-64652857D01*
X104263333Y-64795714D01*
X104215714Y-64890952D01*
X104168095Y-64938571D01*
X104072857Y-64986190D01*
X103691904Y-64986190D01*
X104596666Y-64462380D02*
X105215714Y-64462380D01*
X104882380Y-64843333D01*
X105025238Y-64843333D01*
X105120476Y-64890952D01*
X105168095Y-64938571D01*
X105215714Y-65033809D01*
X105215714Y-65271904D01*
X105168095Y-65367142D01*
X105120476Y-65414761D01*
X105025238Y-65462380D01*
X104739523Y-65462380D01*
X104644285Y-65414761D01*
X104596666Y-65367142D01*
%TO.C,R4*%
X105213333Y-46752380D02*
X104880000Y-46276190D01*
X104641904Y-46752380D02*
X104641904Y-45752380D01*
X105022857Y-45752380D01*
X105118095Y-45800000D01*
X105165714Y-45847619D01*
X105213333Y-45942857D01*
X105213333Y-46085714D01*
X105165714Y-46180952D01*
X105118095Y-46228571D01*
X105022857Y-46276190D01*
X104641904Y-46276190D01*
X106070476Y-46085714D02*
X106070476Y-46752380D01*
X105832380Y-45704761D02*
X105594285Y-46419047D01*
X106213333Y-46419047D01*
%TO.C,R6*%
X53463333Y-84382380D02*
X53130000Y-83906190D01*
X52891904Y-84382380D02*
X52891904Y-83382380D01*
X53272857Y-83382380D01*
X53368095Y-83430000D01*
X53415714Y-83477619D01*
X53463333Y-83572857D01*
X53463333Y-83715714D01*
X53415714Y-83810952D01*
X53368095Y-83858571D01*
X53272857Y-83906190D01*
X52891904Y-83906190D01*
X54320476Y-83382380D02*
X54130000Y-83382380D01*
X54034761Y-83430000D01*
X53987142Y-83477619D01*
X53891904Y-83620476D01*
X53844285Y-83810952D01*
X53844285Y-84191904D01*
X53891904Y-84287142D01*
X53939523Y-84334761D01*
X54034761Y-84382380D01*
X54225238Y-84382380D01*
X54320476Y-84334761D01*
X54368095Y-84287142D01*
X54415714Y-84191904D01*
X54415714Y-83953809D01*
X54368095Y-83858571D01*
X54320476Y-83810952D01*
X54225238Y-83763333D01*
X54034761Y-83763333D01*
X53939523Y-83810952D01*
X53891904Y-83858571D01*
X53844285Y-83953809D01*
%TO.C,R7*%
X53529333Y-87758380D02*
X53196000Y-87282190D01*
X52957904Y-87758380D02*
X52957904Y-86758380D01*
X53338857Y-86758380D01*
X53434095Y-86806000D01*
X53481714Y-86853619D01*
X53529333Y-86948857D01*
X53529333Y-87091714D01*
X53481714Y-87186952D01*
X53434095Y-87234571D01*
X53338857Y-87282190D01*
X52957904Y-87282190D01*
X53862666Y-86758380D02*
X54529333Y-86758380D01*
X54100761Y-87758380D01*
%TO.C,R8*%
X67905333Y-108868380D02*
X67572000Y-108392190D01*
X67333904Y-108868380D02*
X67333904Y-107868380D01*
X67714857Y-107868380D01*
X67810095Y-107916000D01*
X67857714Y-107963619D01*
X67905333Y-108058857D01*
X67905333Y-108201714D01*
X67857714Y-108296952D01*
X67810095Y-108344571D01*
X67714857Y-108392190D01*
X67333904Y-108392190D01*
X68476761Y-108296952D02*
X68381523Y-108249333D01*
X68333904Y-108201714D01*
X68286285Y-108106476D01*
X68286285Y-108058857D01*
X68333904Y-107963619D01*
X68381523Y-107916000D01*
X68476761Y-107868380D01*
X68667238Y-107868380D01*
X68762476Y-107916000D01*
X68810095Y-107963619D01*
X68857714Y-108058857D01*
X68857714Y-108106476D01*
X68810095Y-108201714D01*
X68762476Y-108249333D01*
X68667238Y-108296952D01*
X68476761Y-108296952D01*
X68381523Y-108344571D01*
X68333904Y-108392190D01*
X68286285Y-108487428D01*
X68286285Y-108677904D01*
X68333904Y-108773142D01*
X68381523Y-108820761D01*
X68476761Y-108868380D01*
X68667238Y-108868380D01*
X68762476Y-108820761D01*
X68810095Y-108773142D01*
X68857714Y-108677904D01*
X68857714Y-108487428D01*
X68810095Y-108392190D01*
X68762476Y-108344571D01*
X68667238Y-108296952D01*
%TO.C,R9*%
X106521333Y-114092380D02*
X106188000Y-113616190D01*
X105949904Y-114092380D02*
X105949904Y-113092380D01*
X106330857Y-113092380D01*
X106426095Y-113140000D01*
X106473714Y-113187619D01*
X106521333Y-113282857D01*
X106521333Y-113425714D01*
X106473714Y-113520952D01*
X106426095Y-113568571D01*
X106330857Y-113616190D01*
X105949904Y-113616190D01*
X106997523Y-114092380D02*
X107188000Y-114092380D01*
X107283238Y-114044761D01*
X107330857Y-113997142D01*
X107426095Y-113854285D01*
X107473714Y-113663809D01*
X107473714Y-113282857D01*
X107426095Y-113187619D01*
X107378476Y-113140000D01*
X107283238Y-113092380D01*
X107092761Y-113092380D01*
X106997523Y-113140000D01*
X106949904Y-113187619D01*
X106902285Y-113282857D01*
X106902285Y-113520952D01*
X106949904Y-113616190D01*
X106997523Y-113663809D01*
X107092761Y-113711428D01*
X107283238Y-113711428D01*
X107378476Y-113663809D01*
X107426095Y-113616190D01*
X107473714Y-113520952D01*
%TO.C,R10*%
X117492380Y-62842857D02*
X117016190Y-63176190D01*
X117492380Y-63414285D02*
X116492380Y-63414285D01*
X116492380Y-63033333D01*
X116540000Y-62938095D01*
X116587619Y-62890476D01*
X116682857Y-62842857D01*
X116825714Y-62842857D01*
X116920952Y-62890476D01*
X116968571Y-62938095D01*
X117016190Y-63033333D01*
X117016190Y-63414285D01*
X117492380Y-61890476D02*
X117492380Y-62461904D01*
X117492380Y-62176190D02*
X116492380Y-62176190D01*
X116635238Y-62271428D01*
X116730476Y-62366666D01*
X116778095Y-62461904D01*
X116492380Y-61271428D02*
X116492380Y-61176190D01*
X116540000Y-61080952D01*
X116587619Y-61033333D01*
X116682857Y-60985714D01*
X116873333Y-60938095D01*
X117111428Y-60938095D01*
X117301904Y-60985714D01*
X117397142Y-61033333D01*
X117444761Y-61080952D01*
X117492380Y-61176190D01*
X117492380Y-61271428D01*
X117444761Y-61366666D01*
X117397142Y-61414285D01*
X117301904Y-61461904D01*
X117111428Y-61509523D01*
X116873333Y-61509523D01*
X116682857Y-61461904D01*
X116587619Y-61414285D01*
X116540000Y-61366666D01*
X116492380Y-61271428D01*
%TO.C,R11*%
X120932380Y-62832857D02*
X120456190Y-63166190D01*
X120932380Y-63404285D02*
X119932380Y-63404285D01*
X119932380Y-63023333D01*
X119980000Y-62928095D01*
X120027619Y-62880476D01*
X120122857Y-62832857D01*
X120265714Y-62832857D01*
X120360952Y-62880476D01*
X120408571Y-62928095D01*
X120456190Y-63023333D01*
X120456190Y-63404285D01*
X120932380Y-61880476D02*
X120932380Y-62451904D01*
X120932380Y-62166190D02*
X119932380Y-62166190D01*
X120075238Y-62261428D01*
X120170476Y-62356666D01*
X120218095Y-62451904D01*
X120932380Y-60928095D02*
X120932380Y-61499523D01*
X120932380Y-61213809D02*
X119932380Y-61213809D01*
X120075238Y-61309047D01*
X120170476Y-61404285D01*
X120218095Y-61499523D01*
%TO.C,R12*%
X119272380Y-100022857D02*
X118796190Y-100356190D01*
X119272380Y-100594285D02*
X118272380Y-100594285D01*
X118272380Y-100213333D01*
X118320000Y-100118095D01*
X118367619Y-100070476D01*
X118462857Y-100022857D01*
X118605714Y-100022857D01*
X118700952Y-100070476D01*
X118748571Y-100118095D01*
X118796190Y-100213333D01*
X118796190Y-100594285D01*
X119272380Y-99070476D02*
X119272380Y-99641904D01*
X119272380Y-99356190D02*
X118272380Y-99356190D01*
X118415238Y-99451428D01*
X118510476Y-99546666D01*
X118558095Y-99641904D01*
X118367619Y-98689523D02*
X118320000Y-98641904D01*
X118272380Y-98546666D01*
X118272380Y-98308571D01*
X118320000Y-98213333D01*
X118367619Y-98165714D01*
X118462857Y-98118095D01*
X118558095Y-98118095D01*
X118700952Y-98165714D01*
X119272380Y-98737142D01*
X119272380Y-98118095D01*
%TO.C,H1*%
X80690815Y-114188620D02*
X80690815Y-113188620D01*
X80690815Y-113664811D02*
X81262243Y-113664811D01*
X81262243Y-114188620D02*
X81262243Y-113188620D01*
X82262243Y-114188620D02*
X81690815Y-114188620D01*
X81976529Y-114188620D02*
X81976529Y-113188620D01*
X81881291Y-113331478D01*
X81786053Y-113426716D01*
X81690815Y-113474335D01*
%TO.C,H2*%
X80906715Y-139474320D02*
X80906715Y-138474320D01*
X80906715Y-138950511D02*
X81478143Y-138950511D01*
X81478143Y-139474320D02*
X81478143Y-138474320D01*
X81906715Y-138569559D02*
X81954334Y-138521940D01*
X82049572Y-138474320D01*
X82287667Y-138474320D01*
X82382905Y-138521940D01*
X82430524Y-138569559D01*
X82478143Y-138664797D01*
X82478143Y-138760035D01*
X82430524Y-138902892D01*
X81859096Y-139474320D01*
X82478143Y-139474320D01*
%TD*%
%LPC*%
D16*
%TO.C,J1*%
X125440000Y-118248000D03*
X133640000Y-118648000D03*
X125440000Y-119048000D03*
X133640000Y-119448000D03*
X125440000Y-119848000D03*
X133640000Y-120248000D03*
X125440000Y-120648000D03*
X133640000Y-121048000D03*
X125440000Y-121448000D03*
X133640000Y-121848000D03*
X125440000Y-122248000D03*
X133640000Y-122648000D03*
X125440000Y-123048000D03*
X133640000Y-123448000D03*
X125440000Y-123848000D03*
X133640000Y-124248000D03*
X125440000Y-124648000D03*
X133640000Y-125048000D03*
X125440000Y-125448000D03*
X133640000Y-125848000D03*
X125440000Y-126248000D03*
X133640000Y-126648000D03*
X125440000Y-127048000D03*
X133640000Y-127448000D03*
X125440000Y-127848000D03*
X133640000Y-128248000D03*
X125440000Y-128648000D03*
X133640000Y-129048000D03*
X125440000Y-129448000D03*
X133640000Y-129848000D03*
X125440000Y-130248000D03*
X133640000Y-130648000D03*
X125440000Y-131048000D03*
X133640000Y-131448000D03*
X125440000Y-131848000D03*
X133640000Y-132248000D03*
X125440000Y-135848000D03*
X133640000Y-136248000D03*
X125440000Y-136648000D03*
X133640000Y-137048000D03*
X125440000Y-137448000D03*
X133640000Y-137848000D03*
X125440000Y-138248000D03*
X133640000Y-138648000D03*
X125440000Y-139048000D03*
X133640000Y-139448000D03*
X125440000Y-139848000D03*
X133640000Y-140248000D03*
X125440000Y-140648000D03*
X133640000Y-141048000D03*
X125440000Y-141448000D03*
X133640000Y-141848000D03*
D17*
X133040000Y-115398000D03*
X133040000Y-144698000D03*
D18*
X129540000Y-142548000D03*
D19*
X129540000Y-117548000D03*
%TD*%
%TO.C,C12*%
G36*
G01*
X50980000Y-133637000D02*
X50980000Y-134587000D01*
G75*
G02*
X50730000Y-134837000I-250000J0D01*
G01*
X50230000Y-134837000D01*
G75*
G02*
X49980000Y-134587000I0J250000D01*
G01*
X49980000Y-133637000D01*
G75*
G02*
X50230000Y-133387000I250000J0D01*
G01*
X50730000Y-133387000D01*
G75*
G02*
X50980000Y-133637000I0J-250000D01*
G01*
G37*
G36*
G01*
X49080000Y-133637000D02*
X49080000Y-134587000D01*
G75*
G02*
X48830000Y-134837000I-250000J0D01*
G01*
X48330000Y-134837000D01*
G75*
G02*
X48080000Y-134587000I0J250000D01*
G01*
X48080000Y-133637000D01*
G75*
G02*
X48330000Y-133387000I250000J0D01*
G01*
X48830000Y-133387000D01*
G75*
G02*
X49080000Y-133637000I0J-250000D01*
G01*
G37*
%TD*%
D20*
%TO.C,MD1*%
X69835001Y-55675001D03*
X69835001Y-40075001D03*
D21*
X85935001Y-39175001D03*
X85935001Y-104275001D03*
D20*
X78035000Y-40375001D03*
X69835001Y-40675001D03*
X78035000Y-40975001D03*
X69835001Y-41275001D03*
X78035000Y-41575001D03*
X69835001Y-41875001D03*
X78035000Y-42175001D03*
X69835001Y-42475001D03*
X78035000Y-42775001D03*
X69835001Y-43075001D03*
X78035000Y-43375001D03*
X69835001Y-43675001D03*
X78035000Y-43975001D03*
X69835001Y-44275001D03*
X78035000Y-44575001D03*
X69835001Y-44875001D03*
X78035000Y-45175001D03*
X69835001Y-45475001D03*
X78035000Y-45775001D03*
X69835001Y-46075001D03*
X78035000Y-46375001D03*
X69835001Y-46675001D03*
X78035000Y-46975001D03*
X69835001Y-47275001D03*
X78035000Y-47575001D03*
X69835001Y-47875001D03*
X78035000Y-48175001D03*
X69835001Y-48475001D03*
X78035000Y-48775001D03*
X69835001Y-49075001D03*
X78035000Y-49375001D03*
X69835001Y-49675001D03*
X78035000Y-49975001D03*
X69835001Y-50275001D03*
X78035000Y-50575001D03*
X69835001Y-50875001D03*
X78035000Y-51175001D03*
X69835001Y-51475001D03*
X78035000Y-51775001D03*
X78035000Y-55975001D03*
X69835001Y-56275001D03*
X78035000Y-56575001D03*
X69835001Y-56875001D03*
X78035000Y-57175001D03*
X69835001Y-57475001D03*
X78035000Y-57775001D03*
X69835001Y-58075001D03*
X78035000Y-58375001D03*
X69835001Y-58675001D03*
X78035000Y-58975001D03*
X69835001Y-59275001D03*
X78035000Y-59575001D03*
X69835001Y-59875001D03*
X78035000Y-60175001D03*
X69835001Y-60475001D03*
X78035000Y-60775001D03*
X69835001Y-61075001D03*
X78035000Y-61375001D03*
X69835001Y-61675001D03*
X78035000Y-61975001D03*
X69835001Y-62275001D03*
X78035000Y-62575001D03*
X69835001Y-62875001D03*
X78035000Y-63175001D03*
X69835001Y-63475001D03*
X78035000Y-63775001D03*
X69835001Y-64075001D03*
X78035000Y-64375001D03*
X69835001Y-64675001D03*
X78035000Y-64975001D03*
X69835001Y-65275001D03*
X78035000Y-65575001D03*
X69835001Y-65875001D03*
X78035000Y-66175001D03*
X69835001Y-66475001D03*
X78035000Y-66775001D03*
X69835001Y-67075001D03*
X78035000Y-67375001D03*
X69835001Y-67675001D03*
X78035000Y-67975001D03*
X69835001Y-68275001D03*
X78035000Y-68575001D03*
X69835001Y-68875001D03*
X78035000Y-69175001D03*
X69835001Y-69475001D03*
X78035000Y-69775001D03*
X69835001Y-70075001D03*
X78035000Y-70375001D03*
X69835001Y-70675001D03*
X78035000Y-70975001D03*
X69835001Y-71275001D03*
X78035000Y-71575001D03*
X69835001Y-71875001D03*
X78035000Y-72175001D03*
X69835001Y-72475001D03*
X78035000Y-72775001D03*
X69835001Y-73075001D03*
X78035000Y-73375001D03*
X69835001Y-73675001D03*
X78035000Y-73975001D03*
X69835001Y-74275001D03*
X78035000Y-74575001D03*
X69835001Y-74875001D03*
X78035000Y-75175001D03*
X69835001Y-75475001D03*
X78035000Y-75775001D03*
X69835001Y-76075001D03*
X78035000Y-76375001D03*
X69835001Y-76675001D03*
X78035000Y-76975001D03*
X69835001Y-77275001D03*
X78035000Y-77575001D03*
X69835001Y-77875001D03*
X78035000Y-78175001D03*
X69835001Y-78475001D03*
X78035000Y-78775001D03*
X69835001Y-79075001D03*
X78035000Y-79375001D03*
X69835001Y-79675001D03*
X78035000Y-79975001D03*
X69835001Y-80275001D03*
X78035000Y-80575001D03*
X69835001Y-80875001D03*
X78035000Y-81175001D03*
X69835001Y-81475001D03*
X78035000Y-81775001D03*
X69835001Y-82075001D03*
X78035000Y-82375001D03*
X69835001Y-82675001D03*
X78035000Y-82975001D03*
X69835001Y-83275001D03*
X78035000Y-83575001D03*
X69835001Y-83875001D03*
X78035000Y-84175001D03*
X69835001Y-84475001D03*
X78035000Y-84775001D03*
X69835001Y-85075001D03*
X78035000Y-85375001D03*
X69835001Y-85675001D03*
X78035000Y-85975001D03*
X69835001Y-86275001D03*
X78035000Y-86575001D03*
X69835001Y-86875001D03*
X78035000Y-87175001D03*
X69835001Y-87475001D03*
X78035000Y-87775001D03*
X69835001Y-88075001D03*
X78035000Y-88375001D03*
X69835001Y-88675001D03*
X78035000Y-88975001D03*
X69835001Y-89275001D03*
X78035000Y-89575001D03*
X69835001Y-89875001D03*
X78035000Y-90175001D03*
X69835001Y-90475001D03*
X78035000Y-90775001D03*
X69835001Y-91075001D03*
X78035000Y-91375001D03*
X69835001Y-91675001D03*
X78035000Y-91975001D03*
X69835001Y-92275001D03*
X78035000Y-92575001D03*
X69835001Y-92875001D03*
X78035000Y-93175001D03*
X69835001Y-93475001D03*
X78035000Y-93775001D03*
X69835001Y-94075001D03*
X78035000Y-94375001D03*
X69835001Y-94675001D03*
X78035000Y-94975001D03*
X69835001Y-95275001D03*
X78035000Y-95575001D03*
X69835001Y-95875001D03*
X78035000Y-96175001D03*
X69835001Y-96475001D03*
X78035000Y-96775001D03*
X69835001Y-97075001D03*
X78035000Y-97375001D03*
X69835001Y-97675001D03*
X78035000Y-97975001D03*
X69835001Y-98275001D03*
X78035000Y-98575001D03*
X69835001Y-98875001D03*
X78035000Y-99175001D03*
X69835001Y-99475001D03*
X78035000Y-99775001D03*
X69835001Y-100075001D03*
X78035000Y-100375001D03*
X69835001Y-100675001D03*
X78035000Y-100975001D03*
X69835001Y-101275001D03*
X78035000Y-101575001D03*
X69835001Y-101875001D03*
X78035000Y-102175001D03*
X69835001Y-102475001D03*
X78035000Y-102775001D03*
X69835001Y-103075001D03*
X78035000Y-103375001D03*
%TD*%
D22*
%TO.C,J4*%
X47900000Y-55300000D03*
D23*
X50440000Y-55300000D03*
X47900000Y-57840000D03*
X50440000Y-57840000D03*
X47900000Y-60380000D03*
X50440000Y-60380000D03*
X47900000Y-62920000D03*
X50440000Y-62920000D03*
X47900000Y-65460000D03*
X50440000Y-65460000D03*
X47900000Y-68000000D03*
X50440000Y-68000000D03*
X47900000Y-70540000D03*
X50440000Y-70540000D03*
X47900000Y-73080000D03*
X50440000Y-73080000D03*
X47900000Y-75620000D03*
X50440000Y-75620000D03*
%TD*%
%TO.C,R5*%
G36*
G01*
X58580000Y-91544998D02*
X58580000Y-92795002D01*
G75*
G02*
X58330002Y-93045000I-249998J0D01*
G01*
X57704998Y-93045000D01*
G75*
G02*
X57455000Y-92795002I0J249998D01*
G01*
X57455000Y-91544998D01*
G75*
G02*
X57704998Y-91295000I249998J0D01*
G01*
X58330002Y-91295000D01*
G75*
G02*
X58580000Y-91544998I0J-249998D01*
G01*
G37*
G36*
G01*
X61505000Y-91544998D02*
X61505000Y-92795002D01*
G75*
G02*
X61255002Y-93045000I-249998J0D01*
G01*
X60629998Y-93045000D01*
G75*
G02*
X60380000Y-92795002I0J249998D01*
G01*
X60380000Y-91544998D01*
G75*
G02*
X60629998Y-91295000I249998J0D01*
G01*
X61255002Y-91295000D01*
G75*
G02*
X61505000Y-91544998I0J-249998D01*
G01*
G37*
%TD*%
D22*
%TO.C,J3*%
X47860000Y-40760000D03*
D23*
X50400000Y-40760000D03*
X47860000Y-43300000D03*
X50400000Y-43300000D03*
X47860000Y-45840000D03*
X50400000Y-45840000D03*
%TD*%
D24*
%TO.C,BT1*%
X133650000Y-73980000D03*
D25*
X117650000Y-73980000D03*
%TD*%
%TO.C,C3*%
G36*
G01*
X62035000Y-101050000D02*
X61085000Y-101050000D01*
G75*
G02*
X60835000Y-100800000I0J250000D01*
G01*
X60835000Y-100300000D01*
G75*
G02*
X61085000Y-100050000I250000J0D01*
G01*
X62035000Y-100050000D01*
G75*
G02*
X62285000Y-100300000I0J-250000D01*
G01*
X62285000Y-100800000D01*
G75*
G02*
X62035000Y-101050000I-250000J0D01*
G01*
G37*
G36*
G01*
X62035000Y-99150000D02*
X61085000Y-99150000D01*
G75*
G02*
X60835000Y-98900000I0J250000D01*
G01*
X60835000Y-98400000D01*
G75*
G02*
X61085000Y-98150000I250000J0D01*
G01*
X62035000Y-98150000D01*
G75*
G02*
X62285000Y-98400000I0J-250000D01*
G01*
X62285000Y-98900000D01*
G75*
G02*
X62035000Y-99150000I-250000J0D01*
G01*
G37*
%TD*%
%TO.C,C4*%
G36*
G01*
X136105000Y-63730000D02*
X135155000Y-63730000D01*
G75*
G02*
X134905000Y-63480000I0J250000D01*
G01*
X134905000Y-62980000D01*
G75*
G02*
X135155000Y-62730000I250000J0D01*
G01*
X136105000Y-62730000D01*
G75*
G02*
X136355000Y-62980000I0J-250000D01*
G01*
X136355000Y-63480000D01*
G75*
G02*
X136105000Y-63730000I-250000J0D01*
G01*
G37*
G36*
G01*
X136105000Y-61830000D02*
X135155000Y-61830000D01*
G75*
G02*
X134905000Y-61580000I0J250000D01*
G01*
X134905000Y-61080000D01*
G75*
G02*
X135155000Y-60830000I250000J0D01*
G01*
X136105000Y-60830000D01*
G75*
G02*
X136355000Y-61080000I0J-250000D01*
G01*
X136355000Y-61580000D01*
G75*
G02*
X136105000Y-61830000I-250000J0D01*
G01*
G37*
%TD*%
%TO.C,C5*%
G36*
G01*
X119285000Y-107640000D02*
X118335000Y-107640000D01*
G75*
G02*
X118085000Y-107390000I0J250000D01*
G01*
X118085000Y-106890000D01*
G75*
G02*
X118335000Y-106640000I250000J0D01*
G01*
X119285000Y-106640000D01*
G75*
G02*
X119535000Y-106890000I0J-250000D01*
G01*
X119535000Y-107390000D01*
G75*
G02*
X119285000Y-107640000I-250000J0D01*
G01*
G37*
G36*
G01*
X119285000Y-109540000D02*
X118335000Y-109540000D01*
G75*
G02*
X118085000Y-109290000I0J250000D01*
G01*
X118085000Y-108790000D01*
G75*
G02*
X118335000Y-108540000I250000J0D01*
G01*
X119285000Y-108540000D01*
G75*
G02*
X119535000Y-108790000I0J-250000D01*
G01*
X119535000Y-109290000D01*
G75*
G02*
X119285000Y-109540000I-250000J0D01*
G01*
G37*
%TD*%
%TO.C,C7*%
G36*
G01*
X118925000Y-97350000D02*
X119875000Y-97350000D01*
G75*
G02*
X120125000Y-97600000I0J-250000D01*
G01*
X120125000Y-98100000D01*
G75*
G02*
X119875000Y-98350000I-250000J0D01*
G01*
X118925000Y-98350000D01*
G75*
G02*
X118675000Y-98100000I0J250000D01*
G01*
X118675000Y-97600000D01*
G75*
G02*
X118925000Y-97350000I250000J0D01*
G01*
G37*
G36*
G01*
X118925000Y-99250000D02*
X119875000Y-99250000D01*
G75*
G02*
X120125000Y-99500000I0J-250000D01*
G01*
X120125000Y-100000000D01*
G75*
G02*
X119875000Y-100250000I-250000J0D01*
G01*
X118925000Y-100250000D01*
G75*
G02*
X118675000Y-100000000I0J250000D01*
G01*
X118675000Y-99500000D01*
G75*
G02*
X118925000Y-99250000I250000J0D01*
G01*
G37*
%TD*%
%TO.C,C11*%
G36*
G01*
X123950000Y-33375000D02*
X123950000Y-32425000D01*
G75*
G02*
X124200000Y-32175000I250000J0D01*
G01*
X124700000Y-32175000D01*
G75*
G02*
X124950000Y-32425000I0J-250000D01*
G01*
X124950000Y-33375000D01*
G75*
G02*
X124700000Y-33625000I-250000J0D01*
G01*
X124200000Y-33625000D01*
G75*
G02*
X123950000Y-33375000I0J250000D01*
G01*
G37*
G36*
G01*
X122050000Y-33375000D02*
X122050000Y-32425000D01*
G75*
G02*
X122300000Y-32175000I250000J0D01*
G01*
X122800000Y-32175000D01*
G75*
G02*
X123050000Y-32425000I0J-250000D01*
G01*
X123050000Y-33375000D01*
G75*
G02*
X122800000Y-33625000I-250000J0D01*
G01*
X122300000Y-33625000D01*
G75*
G02*
X122050000Y-33375000I0J250000D01*
G01*
G37*
%TD*%
%TO.C,C13*%
G36*
G01*
X50604000Y-107983000D02*
X50604000Y-108933000D01*
G75*
G02*
X50354000Y-109183000I-250000J0D01*
G01*
X49854000Y-109183000D01*
G75*
G02*
X49604000Y-108933000I0J250000D01*
G01*
X49604000Y-107983000D01*
G75*
G02*
X49854000Y-107733000I250000J0D01*
G01*
X50354000Y-107733000D01*
G75*
G02*
X50604000Y-107983000I0J-250000D01*
G01*
G37*
G36*
G01*
X52504000Y-107983000D02*
X52504000Y-108933000D01*
G75*
G02*
X52254000Y-109183000I-250000J0D01*
G01*
X51754000Y-109183000D01*
G75*
G02*
X51504000Y-108933000I0J250000D01*
G01*
X51504000Y-107983000D01*
G75*
G02*
X51754000Y-107733000I250000J0D01*
G01*
X52254000Y-107733000D01*
G75*
G02*
X52504000Y-107983000I0J-250000D01*
G01*
G37*
%TD*%
%TO.C,F1*%
G36*
G01*
X124760000Y-109650002D02*
X124760000Y-106749998D01*
G75*
G02*
X125009998Y-106500000I249998J0D01*
G01*
X125635002Y-106500000D01*
G75*
G02*
X125885000Y-106749998I0J-249998D01*
G01*
X125885000Y-109650002D01*
G75*
G02*
X125635002Y-109900000I-249998J0D01*
G01*
X125009998Y-109900000D01*
G75*
G02*
X124760000Y-109650002I0J249998D01*
G01*
G37*
G36*
G01*
X129035000Y-109650002D02*
X129035000Y-106749998D01*
G75*
G02*
X129284998Y-106500000I249998J0D01*
G01*
X129910002Y-106500000D01*
G75*
G02*
X130160000Y-106749998I0J-249998D01*
G01*
X130160000Y-109650002D01*
G75*
G02*
X129910002Y-109900000I-249998J0D01*
G01*
X129284998Y-109900000D01*
G75*
G02*
X129035000Y-109650002I0J249998D01*
G01*
G37*
%TD*%
D26*
%TO.C,J2*%
X132984000Y-108742000D03*
X132984000Y-108092000D03*
X132984000Y-107442000D03*
X132984000Y-106792000D03*
X132984000Y-106142000D03*
D27*
X132984000Y-109942000D03*
X132984000Y-104942000D03*
D28*
X135684000Y-108442000D03*
X135684000Y-106442000D03*
D29*
X135684000Y-110342000D03*
X135684000Y-104542000D03*
D30*
X135684000Y-110942000D03*
X135684000Y-103942000D03*
%TD*%
D22*
%TO.C,J5*%
X50360000Y-36180000D03*
D23*
X47820000Y-36180000D03*
%TD*%
%TO.C,J6*%
X47920000Y-50490000D03*
D22*
X50460000Y-50490000D03*
%TD*%
D31*
%TO.C,J7*%
X51562000Y-142240000D03*
D32*
X46562000Y-142240000D03*
%TD*%
D33*
%TO.C,J8*%
X119095000Y-47725000D03*
X119095000Y-46775000D03*
X119095000Y-39075000D03*
X119095000Y-40175000D03*
X119095000Y-41275000D03*
X119095000Y-42375000D03*
X119095000Y-43475000D03*
X119095000Y-44575000D03*
X119095000Y-45675000D03*
D34*
X119095000Y-37525000D03*
X123395000Y-48675000D03*
D35*
X129595000Y-48675000D03*
D36*
X133745000Y-48675000D03*
D37*
X134195000Y-35175000D03*
%TD*%
D18*
%TO.C,J11*%
X51308000Y-122316000D03*
X51308000Y-119816000D03*
X51308000Y-117816000D03*
D38*
X51308000Y-115316000D03*
D32*
X48598000Y-125386000D03*
X48598000Y-112246000D03*
%TD*%
D39*
%TO.C,L1*%
X131160000Y-100655000D03*
X131160000Y-97605000D03*
%TD*%
%TO.C,L2*%
X117860000Y-94355000D03*
X117860000Y-91305000D03*
%TD*%
D40*
%TO.C,Q1*%
X58210000Y-85730000D03*
X60210000Y-84780000D03*
X60210000Y-86680000D03*
%TD*%
%TO.C,Q2*%
X121310000Y-107240000D03*
X121310000Y-109140000D03*
X123310000Y-108190000D03*
%TD*%
D41*
%TO.C,U1*%
X55932500Y-109800000D03*
X56567500Y-109800000D03*
X57202500Y-109800000D03*
X57837500Y-109800000D03*
X58472500Y-109800000D03*
X59107500Y-109800000D03*
X59742500Y-109800000D03*
X60377500Y-109800000D03*
X61012500Y-109800000D03*
X61647500Y-109800000D03*
X62282500Y-109800000D03*
X62917500Y-109800000D03*
X63552500Y-109800000D03*
X64187500Y-109800000D03*
X64187500Y-104600000D03*
X63552500Y-104600000D03*
X62917500Y-104600000D03*
X62282500Y-104600000D03*
X61647500Y-104600000D03*
X61012500Y-104600000D03*
X60377500Y-104600000D03*
X59742500Y-104600000D03*
X59107500Y-104600000D03*
X58472500Y-104600000D03*
X57837500Y-104600000D03*
X57202500Y-104600000D03*
X56567500Y-104600000D03*
X55932500Y-104600000D03*
%TD*%
%TO.C,U2*%
G36*
G01*
X132805000Y-64815000D02*
X132805000Y-65115000D01*
G75*
G02*
X132655000Y-65265000I-150000J0D01*
G01*
X130905000Y-65265000D01*
G75*
G02*
X130755000Y-65115000I0J150000D01*
G01*
X130755000Y-64815000D01*
G75*
G02*
X130905000Y-64665000I150000J0D01*
G01*
X132655000Y-64665000D01*
G75*
G02*
X132805000Y-64815000I0J-150000D01*
G01*
G37*
G36*
G01*
X132805000Y-63545000D02*
X132805000Y-63845000D01*
G75*
G02*
X132655000Y-63995000I-150000J0D01*
G01*
X130905000Y-63995000D01*
G75*
G02*
X130755000Y-63845000I0J150000D01*
G01*
X130755000Y-63545000D01*
G75*
G02*
X130905000Y-63395000I150000J0D01*
G01*
X132655000Y-63395000D01*
G75*
G02*
X132805000Y-63545000I0J-150000D01*
G01*
G37*
G36*
G01*
X132805000Y-62275000D02*
X132805000Y-62575000D01*
G75*
G02*
X132655000Y-62725000I-150000J0D01*
G01*
X130905000Y-62725000D01*
G75*
G02*
X130755000Y-62575000I0J150000D01*
G01*
X130755000Y-62275000D01*
G75*
G02*
X130905000Y-62125000I150000J0D01*
G01*
X132655000Y-62125000D01*
G75*
G02*
X132805000Y-62275000I0J-150000D01*
G01*
G37*
G36*
G01*
X132805000Y-61005000D02*
X132805000Y-61305000D01*
G75*
G02*
X132655000Y-61455000I-150000J0D01*
G01*
X130905000Y-61455000D01*
G75*
G02*
X130755000Y-61305000I0J150000D01*
G01*
X130755000Y-61005000D01*
G75*
G02*
X130905000Y-60855000I150000J0D01*
G01*
X132655000Y-60855000D01*
G75*
G02*
X132805000Y-61005000I0J-150000D01*
G01*
G37*
G36*
G01*
X132805000Y-59735000D02*
X132805000Y-60035000D01*
G75*
G02*
X132655000Y-60185000I-150000J0D01*
G01*
X130905000Y-60185000D01*
G75*
G02*
X130755000Y-60035000I0J150000D01*
G01*
X130755000Y-59735000D01*
G75*
G02*
X130905000Y-59585000I150000J0D01*
G01*
X132655000Y-59585000D01*
G75*
G02*
X132805000Y-59735000I0J-150000D01*
G01*
G37*
G36*
G01*
X132805000Y-58465000D02*
X132805000Y-58765000D01*
G75*
G02*
X132655000Y-58915000I-150000J0D01*
G01*
X130905000Y-58915000D01*
G75*
G02*
X130755000Y-58765000I0J150000D01*
G01*
X130755000Y-58465000D01*
G75*
G02*
X130905000Y-58315000I150000J0D01*
G01*
X132655000Y-58315000D01*
G75*
G02*
X132805000Y-58465000I0J-150000D01*
G01*
G37*
G36*
G01*
X132805000Y-57195000D02*
X132805000Y-57495000D01*
G75*
G02*
X132655000Y-57645000I-150000J0D01*
G01*
X130905000Y-57645000D01*
G75*
G02*
X130755000Y-57495000I0J150000D01*
G01*
X130755000Y-57195000D01*
G75*
G02*
X130905000Y-57045000I150000J0D01*
G01*
X132655000Y-57045000D01*
G75*
G02*
X132805000Y-57195000I0J-150000D01*
G01*
G37*
G36*
G01*
X132805000Y-55925000D02*
X132805000Y-56225000D01*
G75*
G02*
X132655000Y-56375000I-150000J0D01*
G01*
X130905000Y-56375000D01*
G75*
G02*
X130755000Y-56225000I0J150000D01*
G01*
X130755000Y-55925000D01*
G75*
G02*
X130905000Y-55775000I150000J0D01*
G01*
X132655000Y-55775000D01*
G75*
G02*
X132805000Y-55925000I0J-150000D01*
G01*
G37*
G36*
G01*
X123505000Y-55925000D02*
X123505000Y-56225000D01*
G75*
G02*
X123355000Y-56375000I-150000J0D01*
G01*
X121605000Y-56375000D01*
G75*
G02*
X121455000Y-56225000I0J150000D01*
G01*
X121455000Y-55925000D01*
G75*
G02*
X121605000Y-55775000I150000J0D01*
G01*
X123355000Y-55775000D01*
G75*
G02*
X123505000Y-55925000I0J-150000D01*
G01*
G37*
G36*
G01*
X123505000Y-57195000D02*
X123505000Y-57495000D01*
G75*
G02*
X123355000Y-57645000I-150000J0D01*
G01*
X121605000Y-57645000D01*
G75*
G02*
X121455000Y-57495000I0J150000D01*
G01*
X121455000Y-57195000D01*
G75*
G02*
X121605000Y-57045000I150000J0D01*
G01*
X123355000Y-57045000D01*
G75*
G02*
X123505000Y-57195000I0J-150000D01*
G01*
G37*
G36*
G01*
X123505000Y-58465000D02*
X123505000Y-58765000D01*
G75*
G02*
X123355000Y-58915000I-150000J0D01*
G01*
X121605000Y-58915000D01*
G75*
G02*
X121455000Y-58765000I0J150000D01*
G01*
X121455000Y-58465000D01*
G75*
G02*
X121605000Y-58315000I150000J0D01*
G01*
X123355000Y-58315000D01*
G75*
G02*
X123505000Y-58465000I0J-150000D01*
G01*
G37*
G36*
G01*
X123505000Y-59735000D02*
X123505000Y-60035000D01*
G75*
G02*
X123355000Y-60185000I-150000J0D01*
G01*
X121605000Y-60185000D01*
G75*
G02*
X121455000Y-60035000I0J150000D01*
G01*
X121455000Y-59735000D01*
G75*
G02*
X121605000Y-59585000I150000J0D01*
G01*
X123355000Y-59585000D01*
G75*
G02*
X123505000Y-59735000I0J-150000D01*
G01*
G37*
G36*
G01*
X123505000Y-61005000D02*
X123505000Y-61305000D01*
G75*
G02*
X123355000Y-61455000I-150000J0D01*
G01*
X121605000Y-61455000D01*
G75*
G02*
X121455000Y-61305000I0J150000D01*
G01*
X121455000Y-61005000D01*
G75*
G02*
X121605000Y-60855000I150000J0D01*
G01*
X123355000Y-60855000D01*
G75*
G02*
X123505000Y-61005000I0J-150000D01*
G01*
G37*
G36*
G01*
X123505000Y-62275000D02*
X123505000Y-62575000D01*
G75*
G02*
X123355000Y-62725000I-150000J0D01*
G01*
X121605000Y-62725000D01*
G75*
G02*
X121455000Y-62575000I0J150000D01*
G01*
X121455000Y-62275000D01*
G75*
G02*
X121605000Y-62125000I150000J0D01*
G01*
X123355000Y-62125000D01*
G75*
G02*
X123505000Y-62275000I0J-150000D01*
G01*
G37*
G36*
G01*
X123505000Y-63545000D02*
X123505000Y-63845000D01*
G75*
G02*
X123355000Y-63995000I-150000J0D01*
G01*
X121605000Y-63995000D01*
G75*
G02*
X121455000Y-63845000I0J150000D01*
G01*
X121455000Y-63545000D01*
G75*
G02*
X121605000Y-63395000I150000J0D01*
G01*
X123355000Y-63395000D01*
G75*
G02*
X123505000Y-63545000I0J-150000D01*
G01*
G37*
G36*
G01*
X123505000Y-64815000D02*
X123505000Y-65115000D01*
G75*
G02*
X123355000Y-65265000I-150000J0D01*
G01*
X121605000Y-65265000D01*
G75*
G02*
X121455000Y-65115000I0J150000D01*
G01*
X121455000Y-64815000D01*
G75*
G02*
X121605000Y-64665000I150000J0D01*
G01*
X123355000Y-64665000D01*
G75*
G02*
X123505000Y-64815000I0J-150000D01*
G01*
G37*
%TD*%
%TO.C,U3*%
G36*
G01*
X126760000Y-97955000D02*
X126760000Y-98055000D01*
G75*
G02*
X126710000Y-98105000I-50000J0D01*
G01*
X126010000Y-98105000D01*
G75*
G02*
X125960000Y-98055000I0J50000D01*
G01*
X125960000Y-97955000D01*
G75*
G02*
X126010000Y-97905000I50000J0D01*
G01*
X126710000Y-97905000D01*
G75*
G02*
X126760000Y-97955000I0J-50000D01*
G01*
G37*
G36*
G01*
X126760000Y-97505000D02*
X126760000Y-97605000D01*
G75*
G02*
X126710000Y-97655000I-50000J0D01*
G01*
X126010000Y-97655000D01*
G75*
G02*
X125960000Y-97605000I0J50000D01*
G01*
X125960000Y-97505000D01*
G75*
G02*
X126010000Y-97455000I50000J0D01*
G01*
X126710000Y-97455000D01*
G75*
G02*
X126760000Y-97505000I0J-50000D01*
G01*
G37*
G36*
G01*
X126760000Y-97055000D02*
X126760000Y-97155000D01*
G75*
G02*
X126710000Y-97205000I-50000J0D01*
G01*
X126010000Y-97205000D01*
G75*
G02*
X125960000Y-97155000I0J50000D01*
G01*
X125960000Y-97055000D01*
G75*
G02*
X126010000Y-97005000I50000J0D01*
G01*
X126710000Y-97005000D01*
G75*
G02*
X126760000Y-97055000I0J-50000D01*
G01*
G37*
G36*
G01*
X126760000Y-96605000D02*
X126760000Y-96705000D01*
G75*
G02*
X126710000Y-96755000I-50000J0D01*
G01*
X126010000Y-96755000D01*
G75*
G02*
X125960000Y-96705000I0J50000D01*
G01*
X125960000Y-96605000D01*
G75*
G02*
X126010000Y-96555000I50000J0D01*
G01*
X126710000Y-96555000D01*
G75*
G02*
X126760000Y-96605000I0J-50000D01*
G01*
G37*
G36*
G01*
X126760000Y-96155000D02*
X126760000Y-96255000D01*
G75*
G02*
X126710000Y-96305000I-50000J0D01*
G01*
X126010000Y-96305000D01*
G75*
G02*
X125960000Y-96255000I0J50000D01*
G01*
X125960000Y-96155000D01*
G75*
G02*
X126010000Y-96105000I50000J0D01*
G01*
X126710000Y-96105000D01*
G75*
G02*
X126760000Y-96155000I0J-50000D01*
G01*
G37*
G36*
G01*
X126760000Y-95705000D02*
X126760000Y-95805000D01*
G75*
G02*
X126710000Y-95855000I-50000J0D01*
G01*
X126010000Y-95855000D01*
G75*
G02*
X125960000Y-95805000I0J50000D01*
G01*
X125960000Y-95705000D01*
G75*
G02*
X126010000Y-95655000I50000J0D01*
G01*
X126710000Y-95655000D01*
G75*
G02*
X126760000Y-95705000I0J-50000D01*
G01*
G37*
G36*
G01*
X123860000Y-95705000D02*
X123860000Y-95805000D01*
G75*
G02*
X123810000Y-95855000I-50000J0D01*
G01*
X123110000Y-95855000D01*
G75*
G02*
X123060000Y-95805000I0J50000D01*
G01*
X123060000Y-95705000D01*
G75*
G02*
X123110000Y-95655000I50000J0D01*
G01*
X123810000Y-95655000D01*
G75*
G02*
X123860000Y-95705000I0J-50000D01*
G01*
G37*
G36*
G01*
X123860000Y-96155000D02*
X123860000Y-96255000D01*
G75*
G02*
X123810000Y-96305000I-50000J0D01*
G01*
X123110000Y-96305000D01*
G75*
G02*
X123060000Y-96255000I0J50000D01*
G01*
X123060000Y-96155000D01*
G75*
G02*
X123110000Y-96105000I50000J0D01*
G01*
X123810000Y-96105000D01*
G75*
G02*
X123860000Y-96155000I0J-50000D01*
G01*
G37*
G36*
G01*
X123860000Y-96605000D02*
X123860000Y-96705000D01*
G75*
G02*
X123810000Y-96755000I-50000J0D01*
G01*
X123110000Y-96755000D01*
G75*
G02*
X123060000Y-96705000I0J50000D01*
G01*
X123060000Y-96605000D01*
G75*
G02*
X123110000Y-96555000I50000J0D01*
G01*
X123810000Y-96555000D01*
G75*
G02*
X123860000Y-96605000I0J-50000D01*
G01*
G37*
G36*
G01*
X123860000Y-97055000D02*
X123860000Y-97155000D01*
G75*
G02*
X123810000Y-97205000I-50000J0D01*
G01*
X123110000Y-97205000D01*
G75*
G02*
X123060000Y-97155000I0J50000D01*
G01*
X123060000Y-97055000D01*
G75*
G02*
X123110000Y-97005000I50000J0D01*
G01*
X123810000Y-97005000D01*
G75*
G02*
X123860000Y-97055000I0J-50000D01*
G01*
G37*
G36*
G01*
X123860000Y-97505000D02*
X123860000Y-97605000D01*
G75*
G02*
X123810000Y-97655000I-50000J0D01*
G01*
X123110000Y-97655000D01*
G75*
G02*
X123060000Y-97605000I0J50000D01*
G01*
X123060000Y-97505000D01*
G75*
G02*
X123110000Y-97455000I50000J0D01*
G01*
X123810000Y-97455000D01*
G75*
G02*
X123860000Y-97505000I0J-50000D01*
G01*
G37*
G36*
G01*
X123860000Y-97955000D02*
X123860000Y-98055000D01*
G75*
G02*
X123810000Y-98105000I-50000J0D01*
G01*
X123110000Y-98105000D01*
G75*
G02*
X123060000Y-98055000I0J50000D01*
G01*
X123060000Y-97955000D01*
G75*
G02*
X123110000Y-97905000I50000J0D01*
G01*
X123810000Y-97905000D01*
G75*
G02*
X123860000Y-97955000I0J-50000D01*
G01*
G37*
D42*
X124910000Y-96880000D03*
%TD*%
D43*
%TO.C,Y1*%
X47752000Y-97790000D03*
X47752000Y-102690000D03*
%TD*%
D23*
%TO.C,J9*%
X47880000Y-79910000D03*
D22*
X50420000Y-79910000D03*
%TD*%
%TO.C,C1*%
G36*
G01*
X59670001Y-102220000D02*
X58369999Y-102220000D01*
G75*
G02*
X58120000Y-101970001I0J249999D01*
G01*
X58120000Y-101319999D01*
G75*
G02*
X58369999Y-101070000I249999J0D01*
G01*
X59670001Y-101070000D01*
G75*
G02*
X59920000Y-101319999I0J-249999D01*
G01*
X59920000Y-101970001D01*
G75*
G02*
X59670001Y-102220000I-249999J0D01*
G01*
G37*
G36*
G01*
X59670001Y-99270000D02*
X58369999Y-99270000D01*
G75*
G02*
X58120000Y-99020001I0J249999D01*
G01*
X58120000Y-98369999D01*
G75*
G02*
X58369999Y-98120000I249999J0D01*
G01*
X59670001Y-98120000D01*
G75*
G02*
X59920000Y-98369999I0J-249999D01*
G01*
X59920000Y-99020001D01*
G75*
G02*
X59670001Y-99270000I-249999J0D01*
G01*
G37*
%TD*%
%TO.C,C2*%
G36*
G01*
X56640001Y-99300000D02*
X55339999Y-99300000D01*
G75*
G02*
X55090000Y-99050001I0J249999D01*
G01*
X55090000Y-98399999D01*
G75*
G02*
X55339999Y-98150000I249999J0D01*
G01*
X56640001Y-98150000D01*
G75*
G02*
X56890000Y-98399999I0J-249999D01*
G01*
X56890000Y-99050001D01*
G75*
G02*
X56640001Y-99300000I-249999J0D01*
G01*
G37*
G36*
G01*
X56640001Y-102250000D02*
X55339999Y-102250000D01*
G75*
G02*
X55090000Y-102000001I0J249999D01*
G01*
X55090000Y-101349999D01*
G75*
G02*
X55339999Y-101100000I249999J0D01*
G01*
X56640001Y-101100000D01*
G75*
G02*
X56890000Y-101349999I0J-249999D01*
G01*
X56890000Y-102000001D01*
G75*
G02*
X56640001Y-102250000I-249999J0D01*
G01*
G37*
%TD*%
%TO.C,C6*%
G36*
G01*
X124210000Y-99529999D02*
X124210000Y-100830001D01*
G75*
G02*
X123960001Y-101080000I-249999J0D01*
G01*
X123309999Y-101080000D01*
G75*
G02*
X123060000Y-100830001I0J249999D01*
G01*
X123060000Y-99529999D01*
G75*
G02*
X123309999Y-99280000I249999J0D01*
G01*
X123960001Y-99280000D01*
G75*
G02*
X124210000Y-99529999I0J-249999D01*
G01*
G37*
G36*
G01*
X127160000Y-99529999D02*
X127160000Y-100830001D01*
G75*
G02*
X126910001Y-101080000I-249999J0D01*
G01*
X126259999Y-101080000D01*
G75*
G02*
X126010000Y-100830001I0J249999D01*
G01*
X126010000Y-99529999D01*
G75*
G02*
X126259999Y-99280000I249999J0D01*
G01*
X126910001Y-99280000D01*
G75*
G02*
X127160000Y-99529999I0J-249999D01*
G01*
G37*
%TD*%
%TO.C,C8*%
G36*
G01*
X122960000Y-94130001D02*
X122960000Y-92829999D01*
G75*
G02*
X123209999Y-92580000I249999J0D01*
G01*
X123860001Y-92580000D01*
G75*
G02*
X124110000Y-92829999I0J-249999D01*
G01*
X124110000Y-94130001D01*
G75*
G02*
X123860001Y-94380000I-249999J0D01*
G01*
X123209999Y-94380000D01*
G75*
G02*
X122960000Y-94130001I0J249999D01*
G01*
G37*
G36*
G01*
X125910000Y-94130001D02*
X125910000Y-92829999D01*
G75*
G02*
X126159999Y-92580000I249999J0D01*
G01*
X126810001Y-92580000D01*
G75*
G02*
X127060000Y-92829999I0J-249999D01*
G01*
X127060000Y-94130001D01*
G75*
G02*
X126810001Y-94380000I-249999J0D01*
G01*
X126159999Y-94380000D01*
G75*
G02*
X125910000Y-94130001I0J249999D01*
G01*
G37*
%TD*%
%TO.C,C9*%
G36*
G01*
X122960000Y-91330001D02*
X122960000Y-90029999D01*
G75*
G02*
X123209999Y-89780000I249999J0D01*
G01*
X123860001Y-89780000D01*
G75*
G02*
X124110000Y-90029999I0J-249999D01*
G01*
X124110000Y-91330001D01*
G75*
G02*
X123860001Y-91580000I-249999J0D01*
G01*
X123209999Y-91580000D01*
G75*
G02*
X122960000Y-91330001I0J249999D01*
G01*
G37*
G36*
G01*
X125910000Y-91330001D02*
X125910000Y-90029999D01*
G75*
G02*
X126159999Y-89780000I249999J0D01*
G01*
X126810001Y-89780000D01*
G75*
G02*
X127060000Y-90029999I0J-249999D01*
G01*
X127060000Y-91330001D01*
G75*
G02*
X126810001Y-91580000I-249999J0D01*
G01*
X126159999Y-91580000D01*
G75*
G02*
X125910000Y-91330001I0J249999D01*
G01*
G37*
%TD*%
%TO.C,C10*%
G36*
G01*
X124210000Y-102379999D02*
X124210000Y-103680001D01*
G75*
G02*
X123960001Y-103930000I-249999J0D01*
G01*
X123309999Y-103930000D01*
G75*
G02*
X123060000Y-103680001I0J249999D01*
G01*
X123060000Y-102379999D01*
G75*
G02*
X123309999Y-102130000I249999J0D01*
G01*
X123960001Y-102130000D01*
G75*
G02*
X124210000Y-102379999I0J-249999D01*
G01*
G37*
G36*
G01*
X127160000Y-102379999D02*
X127160000Y-103680001D01*
G75*
G02*
X126910001Y-103930000I-249999J0D01*
G01*
X126259999Y-103930000D01*
G75*
G02*
X126010000Y-103680001I0J249999D01*
G01*
X126010000Y-102379999D01*
G75*
G02*
X126259999Y-102130000I249999J0D01*
G01*
X126910001Y-102130000D01*
G75*
G02*
X127160000Y-102379999I0J-249999D01*
G01*
G37*
%TD*%
%TO.C,ACT*%
G36*
G01*
X49859000Y-85109000D02*
X49859000Y-86359000D01*
G75*
G02*
X49609000Y-86609000I-250000J0D01*
G01*
X48859000Y-86609000D01*
G75*
G02*
X48609000Y-86359000I0J250000D01*
G01*
X48609000Y-85109000D01*
G75*
G02*
X48859000Y-84859000I250000J0D01*
G01*
X49609000Y-84859000D01*
G75*
G02*
X49859000Y-85109000I0J-250000D01*
G01*
G37*
G36*
G01*
X47059000Y-85109000D02*
X47059000Y-86359000D01*
G75*
G02*
X46809000Y-86609000I-250000J0D01*
G01*
X46059000Y-86609000D01*
G75*
G02*
X45809000Y-86359000I0J250000D01*
G01*
X45809000Y-85109000D01*
G75*
G02*
X46059000Y-84859000I250000J0D01*
G01*
X46809000Y-84859000D01*
G75*
G02*
X47059000Y-85109000I0J-250000D01*
G01*
G37*
%TD*%
%TO.C,PWR*%
G36*
G01*
X47089000Y-88189000D02*
X47089000Y-89439000D01*
G75*
G02*
X46839000Y-89689000I-250000J0D01*
G01*
X46089000Y-89689000D01*
G75*
G02*
X45839000Y-89439000I0J250000D01*
G01*
X45839000Y-88189000D01*
G75*
G02*
X46089000Y-87939000I250000J0D01*
G01*
X46839000Y-87939000D01*
G75*
G02*
X47089000Y-88189000I0J-250000D01*
G01*
G37*
G36*
G01*
X49889000Y-88189000D02*
X49889000Y-89439000D01*
G75*
G02*
X49639000Y-89689000I-250000J0D01*
G01*
X48889000Y-89689000D01*
G75*
G02*
X48639000Y-89439000I0J250000D01*
G01*
X48639000Y-88189000D01*
G75*
G02*
X48889000Y-87939000I250000J0D01*
G01*
X49639000Y-87939000D01*
G75*
G02*
X49889000Y-88189000I0J-250000D01*
G01*
G37*
%TD*%
%TO.C,INT*%
G36*
G01*
X113205000Y-112627000D02*
X113205000Y-111377000D01*
G75*
G02*
X113455000Y-111127000I250000J0D01*
G01*
X114205000Y-111127000D01*
G75*
G02*
X114455000Y-111377000I0J-250000D01*
G01*
X114455000Y-112627000D01*
G75*
G02*
X114205000Y-112877000I-250000J0D01*
G01*
X113455000Y-112877000D01*
G75*
G02*
X113205000Y-112627000I0J250000D01*
G01*
G37*
G36*
G01*
X110405000Y-112627000D02*
X110405000Y-111377000D01*
G75*
G02*
X110655000Y-111127000I250000J0D01*
G01*
X111405000Y-111127000D01*
G75*
G02*
X111655000Y-111377000I0J-250000D01*
G01*
X111655000Y-112627000D01*
G75*
G02*
X111405000Y-112877000I-250000J0D01*
G01*
X110655000Y-112877000D01*
G75*
G02*
X110405000Y-112627000I0J250000D01*
G01*
G37*
%TD*%
%TO.C,R1*%
G36*
G01*
X102385000Y-70985002D02*
X102385000Y-69734998D01*
G75*
G02*
X102634998Y-69485000I249998J0D01*
G01*
X103260002Y-69485000D01*
G75*
G02*
X103510000Y-69734998I0J-249998D01*
G01*
X103510000Y-70985002D01*
G75*
G02*
X103260002Y-71235000I-249998J0D01*
G01*
X102634998Y-71235000D01*
G75*
G02*
X102385000Y-70985002I0J249998D01*
G01*
G37*
G36*
G01*
X105310000Y-70985002D02*
X105310000Y-69734998D01*
G75*
G02*
X105559998Y-69485000I249998J0D01*
G01*
X106185002Y-69485000D01*
G75*
G02*
X106435000Y-69734998I0J-249998D01*
G01*
X106435000Y-70985002D01*
G75*
G02*
X106185002Y-71235000I-249998J0D01*
G01*
X105559998Y-71235000D01*
G75*
G02*
X105310000Y-70985002I0J249998D01*
G01*
G37*
%TD*%
%TO.C,R2*%
G36*
G01*
X103355000Y-51515002D02*
X103355000Y-50264998D01*
G75*
G02*
X103604998Y-50015000I249998J0D01*
G01*
X104230002Y-50015000D01*
G75*
G02*
X104480000Y-50264998I0J-249998D01*
G01*
X104480000Y-51515002D01*
G75*
G02*
X104230002Y-51765000I-249998J0D01*
G01*
X103604998Y-51765000D01*
G75*
G02*
X103355000Y-51515002I0J249998D01*
G01*
G37*
G36*
G01*
X106280000Y-51515002D02*
X106280000Y-50264998D01*
G75*
G02*
X106529998Y-50015000I249998J0D01*
G01*
X107155002Y-50015000D01*
G75*
G02*
X107405000Y-50264998I0J-249998D01*
G01*
X107405000Y-51515002D01*
G75*
G02*
X107155002Y-51765000I-249998J0D01*
G01*
X106529998Y-51765000D01*
G75*
G02*
X106280000Y-51515002I0J249998D01*
G01*
G37*
%TD*%
%TO.C,R3*%
G36*
G01*
X105330000Y-67455002D02*
X105330000Y-66204998D01*
G75*
G02*
X105579998Y-65955000I249998J0D01*
G01*
X106205002Y-65955000D01*
G75*
G02*
X106455000Y-66204998I0J-249998D01*
G01*
X106455000Y-67455002D01*
G75*
G02*
X106205002Y-67705000I-249998J0D01*
G01*
X105579998Y-67705000D01*
G75*
G02*
X105330000Y-67455002I0J249998D01*
G01*
G37*
G36*
G01*
X102405000Y-67455002D02*
X102405000Y-66204998D01*
G75*
G02*
X102654998Y-65955000I249998J0D01*
G01*
X103280002Y-65955000D01*
G75*
G02*
X103530000Y-66204998I0J-249998D01*
G01*
X103530000Y-67455002D01*
G75*
G02*
X103280002Y-67705000I-249998J0D01*
G01*
X102654998Y-67705000D01*
G75*
G02*
X102405000Y-67455002I0J249998D01*
G01*
G37*
%TD*%
%TO.C,R4*%
G36*
G01*
X106280000Y-48745002D02*
X106280000Y-47494998D01*
G75*
G02*
X106529998Y-47245000I249998J0D01*
G01*
X107155002Y-47245000D01*
G75*
G02*
X107405000Y-47494998I0J-249998D01*
G01*
X107405000Y-48745002D01*
G75*
G02*
X107155002Y-48995000I-249998J0D01*
G01*
X106529998Y-48995000D01*
G75*
G02*
X106280000Y-48745002I0J249998D01*
G01*
G37*
G36*
G01*
X103355000Y-48745002D02*
X103355000Y-47494998D01*
G75*
G02*
X103604998Y-47245000I249998J0D01*
G01*
X104230002Y-47245000D01*
G75*
G02*
X104480000Y-47494998I0J-249998D01*
G01*
X104480000Y-48745002D01*
G75*
G02*
X104230002Y-48995000I-249998J0D01*
G01*
X103604998Y-48995000D01*
G75*
G02*
X103355000Y-48745002I0J249998D01*
G01*
G37*
%TD*%
%TO.C,R6*%
G36*
G01*
X51605000Y-86375002D02*
X51605000Y-85124998D01*
G75*
G02*
X51854998Y-84875000I249998J0D01*
G01*
X52480002Y-84875000D01*
G75*
G02*
X52730000Y-85124998I0J-249998D01*
G01*
X52730000Y-86375002D01*
G75*
G02*
X52480002Y-86625000I-249998J0D01*
G01*
X51854998Y-86625000D01*
G75*
G02*
X51605000Y-86375002I0J249998D01*
G01*
G37*
G36*
G01*
X54530000Y-86375002D02*
X54530000Y-85124998D01*
G75*
G02*
X54779998Y-84875000I249998J0D01*
G01*
X55405002Y-84875000D01*
G75*
G02*
X55655000Y-85124998I0J-249998D01*
G01*
X55655000Y-86375002D01*
G75*
G02*
X55405002Y-86625000I-249998J0D01*
G01*
X54779998Y-86625000D01*
G75*
G02*
X54530000Y-86375002I0J249998D01*
G01*
G37*
%TD*%
%TO.C,R7*%
G36*
G01*
X51575000Y-89455002D02*
X51575000Y-88204998D01*
G75*
G02*
X51824998Y-87955000I249998J0D01*
G01*
X52450002Y-87955000D01*
G75*
G02*
X52700000Y-88204998I0J-249998D01*
G01*
X52700000Y-89455002D01*
G75*
G02*
X52450002Y-89705000I-249998J0D01*
G01*
X51824998Y-89705000D01*
G75*
G02*
X51575000Y-89455002I0J249998D01*
G01*
G37*
G36*
G01*
X54500000Y-89455002D02*
X54500000Y-88204998D01*
G75*
G02*
X54749998Y-87955000I249998J0D01*
G01*
X55375002Y-87955000D01*
G75*
G02*
X55625000Y-88204998I0J-249998D01*
G01*
X55625000Y-89455002D01*
G75*
G02*
X55375002Y-89705000I-249998J0D01*
G01*
X54749998Y-89705000D01*
G75*
G02*
X54500000Y-89455002I0J249998D01*
G01*
G37*
%TD*%
%TO.C,R8*%
G36*
G01*
X68972000Y-110861002D02*
X68972000Y-109610998D01*
G75*
G02*
X69221998Y-109361000I249998J0D01*
G01*
X69847002Y-109361000D01*
G75*
G02*
X70097000Y-109610998I0J-249998D01*
G01*
X70097000Y-110861002D01*
G75*
G02*
X69847002Y-111111000I-249998J0D01*
G01*
X69221998Y-111111000D01*
G75*
G02*
X68972000Y-110861002I0J249998D01*
G01*
G37*
G36*
G01*
X66047000Y-110861002D02*
X66047000Y-109610998D01*
G75*
G02*
X66296998Y-109361000I249998J0D01*
G01*
X66922002Y-109361000D01*
G75*
G02*
X67172000Y-109610998I0J-249998D01*
G01*
X67172000Y-110861002D01*
G75*
G02*
X66922002Y-111111000I-249998J0D01*
G01*
X66296998Y-111111000D01*
G75*
G02*
X66047000Y-110861002I0J249998D01*
G01*
G37*
%TD*%
%TO.C,R9*%
G36*
G01*
X108719000Y-111410998D02*
X108719000Y-112661002D01*
G75*
G02*
X108469002Y-112911000I-249998J0D01*
G01*
X107843998Y-112911000D01*
G75*
G02*
X107594000Y-112661002I0J249998D01*
G01*
X107594000Y-111410998D01*
G75*
G02*
X107843998Y-111161000I249998J0D01*
G01*
X108469002Y-111161000D01*
G75*
G02*
X108719000Y-111410998I0J-249998D01*
G01*
G37*
G36*
G01*
X105794000Y-111410998D02*
X105794000Y-112661002D01*
G75*
G02*
X105544002Y-112911000I-249998J0D01*
G01*
X104918998Y-112911000D01*
G75*
G02*
X104669000Y-112661002I0J249998D01*
G01*
X104669000Y-111410998D01*
G75*
G02*
X104918998Y-111161000I249998J0D01*
G01*
X105544002Y-111161000D01*
G75*
G02*
X105794000Y-111410998I0J-249998D01*
G01*
G37*
%TD*%
%TO.C,R10*%
G36*
G01*
X114594998Y-63100000D02*
X115845002Y-63100000D01*
G75*
G02*
X116095000Y-63349998I0J-249998D01*
G01*
X116095000Y-63975002D01*
G75*
G02*
X115845002Y-64225000I-249998J0D01*
G01*
X114594998Y-64225000D01*
G75*
G02*
X114345000Y-63975002I0J249998D01*
G01*
X114345000Y-63349998D01*
G75*
G02*
X114594998Y-63100000I249998J0D01*
G01*
G37*
G36*
G01*
X114594998Y-60175000D02*
X115845002Y-60175000D01*
G75*
G02*
X116095000Y-60424998I0J-249998D01*
G01*
X116095000Y-61050002D01*
G75*
G02*
X115845002Y-61300000I-249998J0D01*
G01*
X114594998Y-61300000D01*
G75*
G02*
X114345000Y-61050002I0J249998D01*
G01*
X114345000Y-60424998D01*
G75*
G02*
X114594998Y-60175000I249998J0D01*
G01*
G37*
%TD*%
%TO.C,R11*%
G36*
G01*
X118034998Y-60165000D02*
X119285002Y-60165000D01*
G75*
G02*
X119535000Y-60414998I0J-249998D01*
G01*
X119535000Y-61040002D01*
G75*
G02*
X119285002Y-61290000I-249998J0D01*
G01*
X118034998Y-61290000D01*
G75*
G02*
X117785000Y-61040002I0J249998D01*
G01*
X117785000Y-60414998D01*
G75*
G02*
X118034998Y-60165000I249998J0D01*
G01*
G37*
G36*
G01*
X118034998Y-63090000D02*
X119285002Y-63090000D01*
G75*
G02*
X119535000Y-63339998I0J-249998D01*
G01*
X119535000Y-63965002D01*
G75*
G02*
X119285002Y-64215000I-249998J0D01*
G01*
X118034998Y-64215000D01*
G75*
G02*
X117785000Y-63965002I0J249998D01*
G01*
X117785000Y-63339998D01*
G75*
G02*
X118034998Y-63090000I249998J0D01*
G01*
G37*
%TD*%
%TO.C,R12*%
G36*
G01*
X116374998Y-100280000D02*
X117625002Y-100280000D01*
G75*
G02*
X117875000Y-100529998I0J-249998D01*
G01*
X117875000Y-101155002D01*
G75*
G02*
X117625002Y-101405000I-249998J0D01*
G01*
X116374998Y-101405000D01*
G75*
G02*
X116125000Y-101155002I0J249998D01*
G01*
X116125000Y-100529998D01*
G75*
G02*
X116374998Y-100280000I249998J0D01*
G01*
G37*
G36*
G01*
X116374998Y-97355000D02*
X117625002Y-97355000D01*
G75*
G02*
X117875000Y-97604998I0J-249998D01*
G01*
X117875000Y-98230002D01*
G75*
G02*
X117625002Y-98480000I-249998J0D01*
G01*
X116374998Y-98480000D01*
G75*
G02*
X116125000Y-98230002I0J249998D01*
G01*
X116125000Y-97604998D01*
G75*
G02*
X116374998Y-97355000I249998J0D01*
G01*
G37*
%TD*%
D44*
%TO.C,H1*%
X81452720Y-117236240D03*
D45*
X81452720Y-117236240D03*
%TD*%
D44*
%TO.C,H2*%
X81668620Y-142521940D03*
D45*
X81668620Y-142521940D03*
%TD*%
M02*
