M48
; DRILL file {KiCad (5.1.10)-1} date 07/03/22 20:16:47
; FORMAT={-:-/ absolute / metric / decimal}
; #@! TF.CreationDate,2022-07-03T20:16:47+06:00
; #@! TF.GenerationSoftware,Kicad,Pcbnew,(5.1.10)-1
; #@! TF.FileFunction,Plated,1,2,PTH
FMAT,2
METRIC
T1C0.400
T2C0.500
T3C0.550
T4C0.800
T5C0.950
T6C1.000
T7C1.500
T8C2.300
T9C2.500
%
G90
G05
T1
X60.22Y-47.33
X60.42Y-53.52
X61.04Y-102.96
X61.42Y-46.69
X61.5Y-52.43
X62.3Y-45.85
X63.33Y-45.08
X64.085Y-76.005
X64.28Y-44.36
X64.81Y-59.06
X65.09Y-52.19
X65.19Y-50.46
X65.24Y-48.79
X66.13Y-47.87
X66.17Y-58.42
X66.32Y-69.65
X66.69Y-72.1
X67.09Y-46.96
X67.17Y-67.3
X67.78Y-88.94
X71.59Y-98.6
X71.67Y-72.1
X74.525Y-100.975
X75.37Y-59.33
X75.56Y-57.54
X80.01Y-96.52
X80.64Y-93.78
X80.772Y-99.568
X81.026Y-102.921
X81.13Y-51.85
X81.13Y-55.88
X81.14Y-41.0
X81.382Y-103.734
X82.6Y-97.01
X85.05Y-47.24
X86.36Y-46.88
X87.19Y-100.26
X89.23Y-43.67
X90.243Y-41.275
X91.17Y-39.075
X91.405Y-40.175
X94.59Y-94.51
X113.16Y-90.92
X113.18Y-91.83
X113.86Y-104.73
X114.046Y-59.588
X114.81Y-104.73
X120.8Y-97.2
X121.91Y-94.48
X122.21Y-98.13
X125.729Y-71.271
X127.415Y-95.295
X127.725Y-99.015
X134.58Y-99.78
T4
X47.752Y-97.79
X47.752Y-102.69
T5
X51.308Y-115.316
X51.308Y-117.816
X51.308Y-119.816
X51.308Y-122.316
T6
X47.82Y-36.18
X47.86Y-40.76
X47.86Y-43.3
X47.86Y-45.84
X47.88Y-79.91
X47.9Y-55.3
X47.9Y-57.84
X47.9Y-60.38
X47.9Y-62.92
X47.9Y-65.46
X47.9Y-68.0
X47.9Y-70.54
X47.9Y-73.08
X47.9Y-75.62
X47.92Y-50.49
X50.36Y-36.18
X50.4Y-40.76
X50.4Y-43.3
X50.4Y-45.84
X50.42Y-79.91
X50.44Y-55.3
X50.44Y-57.84
X50.44Y-60.38
X50.44Y-62.92
X50.44Y-65.46
X50.44Y-68.0
X50.44Y-70.54
X50.44Y-73.08
X50.44Y-75.62
X50.46Y-50.49
T7
X46.562Y-142.24
X51.562Y-142.24
T8
X48.598Y-112.246
X48.598Y-125.386
T9
X81.453Y-117.236
X81.669Y-142.522
T2
X135.359Y-103.942G85X136.009Y-103.942
G05
X135.359Y-110.942G85X136.009Y-110.942
G05
T3
X132.984Y-105.092G85X132.984Y-104.792
G05
X132.984Y-110.092G85X132.984Y-109.792
G05
T0
M30
