%TF.GenerationSoftware,KiCad,Pcbnew,(5.1.10)-1*%
%TF.CreationDate,2022-07-02T17:03:19+06:00*%
%TF.ProjectId,CM3_IO_Board,434d335f-494f-45f4-926f-6172642e6b69,rev?*%
%TF.SameCoordinates,Original*%
%TF.FileFunction,Soldermask,Bot*%
%TF.FilePolarity,Negative*%
%FSLAX46Y46*%
G04 Gerber Fmt 4.6, Leading zero omitted, Abs format (unit mm)*
G04 Created by KiCad (PCBNEW (5.1.10)-1) date 2022-07-02 17:03:19*
%MOMM*%
%LPD*%
G01*
G04 APERTURE LIST*
%ADD10C,1.600000*%
%ADD11C,1.100000*%
%ADD12R,1.700000X1.700000*%
%ADD13O,1.700000X1.700000*%
%ADD14O,0.950000X1.250000*%
%ADD15O,1.550000X0.890000*%
%ADD16R,3.000000X3.000000*%
%ADD17C,3.000000*%
%ADD18R,1.500000X1.600000*%
%ADD19C,2.000000*%
%ADD20C,1.500000*%
%ADD21C,5.000000*%
%ADD22C,2.900000*%
G04 APERTURE END LIST*
D10*
%TO.C,J1*%
X129540000Y-142548000D03*
D11*
X129540000Y-117548000D03*
%TD*%
D12*
%TO.C,J4*%
X47900000Y-55300000D03*
D13*
X50440000Y-55300000D03*
X47900000Y-57840000D03*
X50440000Y-57840000D03*
X47900000Y-60380000D03*
X50440000Y-60380000D03*
X47900000Y-62920000D03*
X50440000Y-62920000D03*
X47900000Y-65460000D03*
X50440000Y-65460000D03*
X47900000Y-68000000D03*
X50440000Y-68000000D03*
X47900000Y-70540000D03*
X50440000Y-70540000D03*
X47900000Y-73080000D03*
X50440000Y-73080000D03*
X47900000Y-75620000D03*
X50440000Y-75620000D03*
%TD*%
D12*
%TO.C,J3*%
X47860000Y-40760000D03*
D13*
X50400000Y-40760000D03*
X47860000Y-43300000D03*
X50400000Y-43300000D03*
X47860000Y-45840000D03*
X50400000Y-45840000D03*
%TD*%
D14*
%TO.C,J2*%
X132984000Y-109942000D03*
X132984000Y-104942000D03*
D15*
X135684000Y-110942000D03*
X135684000Y-103942000D03*
%TD*%
D12*
%TO.C,J5*%
X50360000Y-36180000D03*
D13*
X47820000Y-36180000D03*
%TD*%
%TO.C,J6*%
X47920000Y-50490000D03*
D12*
X50460000Y-50490000D03*
%TD*%
D16*
%TO.C,J7*%
X51562000Y-142240000D03*
D17*
X46562000Y-142240000D03*
%TD*%
D10*
%TO.C,J11*%
X51308000Y-122316000D03*
X51308000Y-119816000D03*
X51308000Y-117816000D03*
D18*
X51308000Y-115316000D03*
D17*
X48598000Y-125386000D03*
X48598000Y-112246000D03*
%TD*%
D19*
%TO.C,TP1*%
X130556000Y-102870000D03*
%TD*%
%TO.C,TP2*%
X115230000Y-88700000D03*
%TD*%
%TO.C,TP3*%
X132550000Y-91640000D03*
%TD*%
D20*
%TO.C,Y1*%
X47752000Y-97790000D03*
X47752000Y-102690000D03*
%TD*%
D13*
%TO.C,J9*%
X47880000Y-79910000D03*
D12*
X50420000Y-79910000D03*
%TD*%
D21*
%TO.C,H1*%
X81452720Y-117236240D03*
D22*
X81452720Y-117236240D03*
%TD*%
D21*
%TO.C,H2*%
X81668620Y-142521940D03*
D22*
X81668620Y-142521940D03*
%TD*%
M02*
