%TF.GenerationSoftware,KiCad,Pcbnew,(5.1.10)-1*%
%TF.CreationDate,2022-07-03T20:16:09+06:00*%
%TF.ProjectId,CM3_IO_Board,434d335f-494f-45f4-926f-6172642e6b69,rev?*%
%TF.SameCoordinates,Original*%
%TF.FileFunction,Soldermask,Top*%
%TF.FilePolarity,Negative*%
%FSLAX46Y46*%
G04 Gerber Fmt 4.6, Leading zero omitted, Abs format (unit mm)*
G04 Created by KiCad (PCBNEW (5.1.10)-1) date 2022-07-03 20:16:09*
%MOMM*%
%LPD*%
G01*
G04 APERTURE LIST*
%ADD10R,2.000000X0.600000*%
%ADD11R,3.200000X2.300000*%
%ADD12C,1.600000*%
%ADD13C,1.100000*%
%ADD14R,2.000000X0.350000*%
%ADD15R,4.600000X4.500000*%
%ADD16R,1.700000X1.700000*%
%ADD17O,1.700000X1.700000*%
%ADD18R,4.400000X2.300000*%
%ADD19R,4.000000X2.300000*%
%ADD20R,1.350000X0.400000*%
%ADD21O,0.950000X1.250000*%
%ADD22R,1.550000X1.500000*%
%ADD23R,1.550000X1.200000*%
%ADD24O,1.550000X0.890000*%
%ADD25R,3.000000X3.000000*%
%ADD26C,3.000000*%
%ADD27R,1.200000X0.700000*%
%ADD28R,1.200000X1.000000*%
%ADD29R,0.800000X1.000000*%
%ADD30R,2.800000X1.000000*%
%ADD31R,1.900000X1.300000*%
%ADD32R,1.500000X1.600000*%
%ADD33R,3.600000X1.500000*%
%ADD34R,0.900000X0.800000*%
%ADD35R,0.400000X1.200000*%
%ADD36R,1.700000X2.500000*%
%ADD37C,1.500000*%
%ADD38C,5.000000*%
%ADD39C,2.900000*%
G04 APERTURE END LIST*
D10*
%TO.C,J1*%
X125440000Y-118248000D03*
X133640000Y-118648000D03*
X125440000Y-119048000D03*
X133640000Y-119448000D03*
X125440000Y-119848000D03*
X133640000Y-120248000D03*
X125440000Y-120648000D03*
X133640000Y-121048000D03*
X125440000Y-121448000D03*
X133640000Y-121848000D03*
X125440000Y-122248000D03*
X133640000Y-122648000D03*
X125440000Y-123048000D03*
X133640000Y-123448000D03*
X125440000Y-123848000D03*
X133640000Y-124248000D03*
X125440000Y-124648000D03*
X133640000Y-125048000D03*
X125440000Y-125448000D03*
X133640000Y-125848000D03*
X125440000Y-126248000D03*
X133640000Y-126648000D03*
X125440000Y-127048000D03*
X133640000Y-127448000D03*
X125440000Y-127848000D03*
X133640000Y-128248000D03*
X125440000Y-128648000D03*
X133640000Y-129048000D03*
X125440000Y-129448000D03*
X133640000Y-129848000D03*
X125440000Y-130248000D03*
X133640000Y-130648000D03*
X125440000Y-131048000D03*
X133640000Y-131448000D03*
X125440000Y-131848000D03*
X133640000Y-132248000D03*
X125440000Y-135848000D03*
X133640000Y-136248000D03*
X125440000Y-136648000D03*
X133640000Y-137048000D03*
X125440000Y-137448000D03*
X133640000Y-137848000D03*
X125440000Y-138248000D03*
X133640000Y-138648000D03*
X125440000Y-139048000D03*
X133640000Y-139448000D03*
X125440000Y-139848000D03*
X133640000Y-140248000D03*
X125440000Y-140648000D03*
X133640000Y-141048000D03*
X125440000Y-141448000D03*
X133640000Y-141848000D03*
D11*
X133040000Y-115398000D03*
X133040000Y-144698000D03*
D12*
X129540000Y-142548000D03*
D13*
X129540000Y-117548000D03*
%TD*%
%TO.C,C12*%
G36*
G01*
X50980000Y-133637000D02*
X50980000Y-134587000D01*
G75*
G02*
X50730000Y-134837000I-250000J0D01*
G01*
X50230000Y-134837000D01*
G75*
G02*
X49980000Y-134587000I0J250000D01*
G01*
X49980000Y-133637000D01*
G75*
G02*
X50230000Y-133387000I250000J0D01*
G01*
X50730000Y-133387000D01*
G75*
G02*
X50980000Y-133637000I0J-250000D01*
G01*
G37*
G36*
G01*
X49080000Y-133637000D02*
X49080000Y-134587000D01*
G75*
G02*
X48830000Y-134837000I-250000J0D01*
G01*
X48330000Y-134837000D01*
G75*
G02*
X48080000Y-134587000I0J250000D01*
G01*
X48080000Y-133637000D01*
G75*
G02*
X48330000Y-133387000I250000J0D01*
G01*
X48830000Y-133387000D01*
G75*
G02*
X49080000Y-133637000I0J-250000D01*
G01*
G37*
%TD*%
D14*
%TO.C,MD1*%
X69835001Y-55675001D03*
X69835001Y-40075001D03*
D15*
X85935001Y-39175001D03*
X85935001Y-104275001D03*
D14*
X78035000Y-40375001D03*
X69835001Y-40675001D03*
X78035000Y-40975001D03*
X69835001Y-41275001D03*
X78035000Y-41575001D03*
X69835001Y-41875001D03*
X78035000Y-42175001D03*
X69835001Y-42475001D03*
X78035000Y-42775001D03*
X69835001Y-43075001D03*
X78035000Y-43375001D03*
X69835001Y-43675001D03*
X78035000Y-43975001D03*
X69835001Y-44275001D03*
X78035000Y-44575001D03*
X69835001Y-44875001D03*
X78035000Y-45175001D03*
X69835001Y-45475001D03*
X78035000Y-45775001D03*
X69835001Y-46075001D03*
X78035000Y-46375001D03*
X69835001Y-46675001D03*
X78035000Y-46975001D03*
X69835001Y-47275001D03*
X78035000Y-47575001D03*
X69835001Y-47875001D03*
X78035000Y-48175001D03*
X69835001Y-48475001D03*
X78035000Y-48775001D03*
X69835001Y-49075001D03*
X78035000Y-49375001D03*
X69835001Y-49675001D03*
X78035000Y-49975001D03*
X69835001Y-50275001D03*
X78035000Y-50575001D03*
X69835001Y-50875001D03*
X78035000Y-51175001D03*
X69835001Y-51475001D03*
X78035000Y-51775001D03*
X78035000Y-55975001D03*
X69835001Y-56275001D03*
X78035000Y-56575001D03*
X69835001Y-56875001D03*
X78035000Y-57175001D03*
X69835001Y-57475001D03*
X78035000Y-57775001D03*
X69835001Y-58075001D03*
X78035000Y-58375001D03*
X69835001Y-58675001D03*
X78035000Y-58975001D03*
X69835001Y-59275001D03*
X78035000Y-59575001D03*
X69835001Y-59875001D03*
X78035000Y-60175001D03*
X69835001Y-60475001D03*
X78035000Y-60775001D03*
X69835001Y-61075001D03*
X78035000Y-61375001D03*
X69835001Y-61675001D03*
X78035000Y-61975001D03*
X69835001Y-62275001D03*
X78035000Y-62575001D03*
X69835001Y-62875001D03*
X78035000Y-63175001D03*
X69835001Y-63475001D03*
X78035000Y-63775001D03*
X69835001Y-64075001D03*
X78035000Y-64375001D03*
X69835001Y-64675001D03*
X78035000Y-64975001D03*
X69835001Y-65275001D03*
X78035000Y-65575001D03*
X69835001Y-65875001D03*
X78035000Y-66175001D03*
X69835001Y-66475001D03*
X78035000Y-66775001D03*
X69835001Y-67075001D03*
X78035000Y-67375001D03*
X69835001Y-67675001D03*
X78035000Y-67975001D03*
X69835001Y-68275001D03*
X78035000Y-68575001D03*
X69835001Y-68875001D03*
X78035000Y-69175001D03*
X69835001Y-69475001D03*
X78035000Y-69775001D03*
X69835001Y-70075001D03*
X78035000Y-70375001D03*
X69835001Y-70675001D03*
X78035000Y-70975001D03*
X69835001Y-71275001D03*
X78035000Y-71575001D03*
X69835001Y-71875001D03*
X78035000Y-72175001D03*
X69835001Y-72475001D03*
X78035000Y-72775001D03*
X69835001Y-73075001D03*
X78035000Y-73375001D03*
X69835001Y-73675001D03*
X78035000Y-73975001D03*
X69835001Y-74275001D03*
X78035000Y-74575001D03*
X69835001Y-74875001D03*
X78035000Y-75175001D03*
X69835001Y-75475001D03*
X78035000Y-75775001D03*
X69835001Y-76075001D03*
X78035000Y-76375001D03*
X69835001Y-76675001D03*
X78035000Y-76975001D03*
X69835001Y-77275001D03*
X78035000Y-77575001D03*
X69835001Y-77875001D03*
X78035000Y-78175001D03*
X69835001Y-78475001D03*
X78035000Y-78775001D03*
X69835001Y-79075001D03*
X78035000Y-79375001D03*
X69835001Y-79675001D03*
X78035000Y-79975001D03*
X69835001Y-80275001D03*
X78035000Y-80575001D03*
X69835001Y-80875001D03*
X78035000Y-81175001D03*
X69835001Y-81475001D03*
X78035000Y-81775001D03*
X69835001Y-82075001D03*
X78035000Y-82375001D03*
X69835001Y-82675001D03*
X78035000Y-82975001D03*
X69835001Y-83275001D03*
X78035000Y-83575001D03*
X69835001Y-83875001D03*
X78035000Y-84175001D03*
X69835001Y-84475001D03*
X78035000Y-84775001D03*
X69835001Y-85075001D03*
X78035000Y-85375001D03*
X69835001Y-85675001D03*
X78035000Y-85975001D03*
X69835001Y-86275001D03*
X78035000Y-86575001D03*
X69835001Y-86875001D03*
X78035000Y-87175001D03*
X69835001Y-87475001D03*
X78035000Y-87775001D03*
X69835001Y-88075001D03*
X78035000Y-88375001D03*
X69835001Y-88675001D03*
X78035000Y-88975001D03*
X69835001Y-89275001D03*
X78035000Y-89575001D03*
X69835001Y-89875001D03*
X78035000Y-90175001D03*
X69835001Y-90475001D03*
X78035000Y-90775001D03*
X69835001Y-91075001D03*
X78035000Y-91375001D03*
X69835001Y-91675001D03*
X78035000Y-91975001D03*
X69835001Y-92275001D03*
X78035000Y-92575001D03*
X69835001Y-92875001D03*
X78035000Y-93175001D03*
X69835001Y-93475001D03*
X78035000Y-93775001D03*
X69835001Y-94075001D03*
X78035000Y-94375001D03*
X69835001Y-94675001D03*
X78035000Y-94975001D03*
X69835001Y-95275001D03*
X78035000Y-95575001D03*
X69835001Y-95875001D03*
X78035000Y-96175001D03*
X69835001Y-96475001D03*
X78035000Y-96775001D03*
X69835001Y-97075001D03*
X78035000Y-97375001D03*
X69835001Y-97675001D03*
X78035000Y-97975001D03*
X69835001Y-98275001D03*
X78035000Y-98575001D03*
X69835001Y-98875001D03*
X78035000Y-99175001D03*
X69835001Y-99475001D03*
X78035000Y-99775001D03*
X69835001Y-100075001D03*
X78035000Y-100375001D03*
X69835001Y-100675001D03*
X78035000Y-100975001D03*
X69835001Y-101275001D03*
X78035000Y-101575001D03*
X69835001Y-101875001D03*
X78035000Y-102175001D03*
X69835001Y-102475001D03*
X78035000Y-102775001D03*
X69835001Y-103075001D03*
X78035000Y-103375001D03*
%TD*%
D16*
%TO.C,J4*%
X47900000Y-55300000D03*
D17*
X50440000Y-55300000D03*
X47900000Y-57840000D03*
X50440000Y-57840000D03*
X47900000Y-60380000D03*
X50440000Y-60380000D03*
X47900000Y-62920000D03*
X50440000Y-62920000D03*
X47900000Y-65460000D03*
X50440000Y-65460000D03*
X47900000Y-68000000D03*
X50440000Y-68000000D03*
X47900000Y-70540000D03*
X50440000Y-70540000D03*
X47900000Y-73080000D03*
X50440000Y-73080000D03*
X47900000Y-75620000D03*
X50440000Y-75620000D03*
%TD*%
%TO.C,R5*%
G36*
G01*
X58580000Y-91544998D02*
X58580000Y-92795002D01*
G75*
G02*
X58330002Y-93045000I-249998J0D01*
G01*
X57704998Y-93045000D01*
G75*
G02*
X57455000Y-92795002I0J249998D01*
G01*
X57455000Y-91544998D01*
G75*
G02*
X57704998Y-91295000I249998J0D01*
G01*
X58330002Y-91295000D01*
G75*
G02*
X58580000Y-91544998I0J-249998D01*
G01*
G37*
G36*
G01*
X61505000Y-91544998D02*
X61505000Y-92795002D01*
G75*
G02*
X61255002Y-93045000I-249998J0D01*
G01*
X60629998Y-93045000D01*
G75*
G02*
X60380000Y-92795002I0J249998D01*
G01*
X60380000Y-91544998D01*
G75*
G02*
X60629998Y-91295000I249998J0D01*
G01*
X61255002Y-91295000D01*
G75*
G02*
X61505000Y-91544998I0J-249998D01*
G01*
G37*
%TD*%
D16*
%TO.C,J3*%
X47860000Y-40760000D03*
D17*
X50400000Y-40760000D03*
X47860000Y-43300000D03*
X50400000Y-43300000D03*
X47860000Y-45840000D03*
X50400000Y-45840000D03*
%TD*%
D18*
%TO.C,BT1*%
X133650000Y-73980000D03*
D19*
X117650000Y-73980000D03*
%TD*%
%TO.C,C3*%
G36*
G01*
X62035000Y-101050000D02*
X61085000Y-101050000D01*
G75*
G02*
X60835000Y-100800000I0J250000D01*
G01*
X60835000Y-100300000D01*
G75*
G02*
X61085000Y-100050000I250000J0D01*
G01*
X62035000Y-100050000D01*
G75*
G02*
X62285000Y-100300000I0J-250000D01*
G01*
X62285000Y-100800000D01*
G75*
G02*
X62035000Y-101050000I-250000J0D01*
G01*
G37*
G36*
G01*
X62035000Y-99150000D02*
X61085000Y-99150000D01*
G75*
G02*
X60835000Y-98900000I0J250000D01*
G01*
X60835000Y-98400000D01*
G75*
G02*
X61085000Y-98150000I250000J0D01*
G01*
X62035000Y-98150000D01*
G75*
G02*
X62285000Y-98400000I0J-250000D01*
G01*
X62285000Y-98900000D01*
G75*
G02*
X62035000Y-99150000I-250000J0D01*
G01*
G37*
%TD*%
%TO.C,C4*%
G36*
G01*
X136105000Y-63730000D02*
X135155000Y-63730000D01*
G75*
G02*
X134905000Y-63480000I0J250000D01*
G01*
X134905000Y-62980000D01*
G75*
G02*
X135155000Y-62730000I250000J0D01*
G01*
X136105000Y-62730000D01*
G75*
G02*
X136355000Y-62980000I0J-250000D01*
G01*
X136355000Y-63480000D01*
G75*
G02*
X136105000Y-63730000I-250000J0D01*
G01*
G37*
G36*
G01*
X136105000Y-61830000D02*
X135155000Y-61830000D01*
G75*
G02*
X134905000Y-61580000I0J250000D01*
G01*
X134905000Y-61080000D01*
G75*
G02*
X135155000Y-60830000I250000J0D01*
G01*
X136105000Y-60830000D01*
G75*
G02*
X136355000Y-61080000I0J-250000D01*
G01*
X136355000Y-61580000D01*
G75*
G02*
X136105000Y-61830000I-250000J0D01*
G01*
G37*
%TD*%
%TO.C,C5*%
G36*
G01*
X119285000Y-107640000D02*
X118335000Y-107640000D01*
G75*
G02*
X118085000Y-107390000I0J250000D01*
G01*
X118085000Y-106890000D01*
G75*
G02*
X118335000Y-106640000I250000J0D01*
G01*
X119285000Y-106640000D01*
G75*
G02*
X119535000Y-106890000I0J-250000D01*
G01*
X119535000Y-107390000D01*
G75*
G02*
X119285000Y-107640000I-250000J0D01*
G01*
G37*
G36*
G01*
X119285000Y-109540000D02*
X118335000Y-109540000D01*
G75*
G02*
X118085000Y-109290000I0J250000D01*
G01*
X118085000Y-108790000D01*
G75*
G02*
X118335000Y-108540000I250000J0D01*
G01*
X119285000Y-108540000D01*
G75*
G02*
X119535000Y-108790000I0J-250000D01*
G01*
X119535000Y-109290000D01*
G75*
G02*
X119285000Y-109540000I-250000J0D01*
G01*
G37*
%TD*%
%TO.C,C7*%
G36*
G01*
X118925000Y-97350000D02*
X119875000Y-97350000D01*
G75*
G02*
X120125000Y-97600000I0J-250000D01*
G01*
X120125000Y-98100000D01*
G75*
G02*
X119875000Y-98350000I-250000J0D01*
G01*
X118925000Y-98350000D01*
G75*
G02*
X118675000Y-98100000I0J250000D01*
G01*
X118675000Y-97600000D01*
G75*
G02*
X118925000Y-97350000I250000J0D01*
G01*
G37*
G36*
G01*
X118925000Y-99250000D02*
X119875000Y-99250000D01*
G75*
G02*
X120125000Y-99500000I0J-250000D01*
G01*
X120125000Y-100000000D01*
G75*
G02*
X119875000Y-100250000I-250000J0D01*
G01*
X118925000Y-100250000D01*
G75*
G02*
X118675000Y-100000000I0J250000D01*
G01*
X118675000Y-99500000D01*
G75*
G02*
X118925000Y-99250000I250000J0D01*
G01*
G37*
%TD*%
%TO.C,C11*%
G36*
G01*
X123950000Y-33375000D02*
X123950000Y-32425000D01*
G75*
G02*
X124200000Y-32175000I250000J0D01*
G01*
X124700000Y-32175000D01*
G75*
G02*
X124950000Y-32425000I0J-250000D01*
G01*
X124950000Y-33375000D01*
G75*
G02*
X124700000Y-33625000I-250000J0D01*
G01*
X124200000Y-33625000D01*
G75*
G02*
X123950000Y-33375000I0J250000D01*
G01*
G37*
G36*
G01*
X122050000Y-33375000D02*
X122050000Y-32425000D01*
G75*
G02*
X122300000Y-32175000I250000J0D01*
G01*
X122800000Y-32175000D01*
G75*
G02*
X123050000Y-32425000I0J-250000D01*
G01*
X123050000Y-33375000D01*
G75*
G02*
X122800000Y-33625000I-250000J0D01*
G01*
X122300000Y-33625000D01*
G75*
G02*
X122050000Y-33375000I0J250000D01*
G01*
G37*
%TD*%
%TO.C,C13*%
G36*
G01*
X50604000Y-107983000D02*
X50604000Y-108933000D01*
G75*
G02*
X50354000Y-109183000I-250000J0D01*
G01*
X49854000Y-109183000D01*
G75*
G02*
X49604000Y-108933000I0J250000D01*
G01*
X49604000Y-107983000D01*
G75*
G02*
X49854000Y-107733000I250000J0D01*
G01*
X50354000Y-107733000D01*
G75*
G02*
X50604000Y-107983000I0J-250000D01*
G01*
G37*
G36*
G01*
X52504000Y-107983000D02*
X52504000Y-108933000D01*
G75*
G02*
X52254000Y-109183000I-250000J0D01*
G01*
X51754000Y-109183000D01*
G75*
G02*
X51504000Y-108933000I0J250000D01*
G01*
X51504000Y-107983000D01*
G75*
G02*
X51754000Y-107733000I250000J0D01*
G01*
X52254000Y-107733000D01*
G75*
G02*
X52504000Y-107983000I0J-250000D01*
G01*
G37*
%TD*%
%TO.C,F1*%
G36*
G01*
X124760000Y-109650002D02*
X124760000Y-106749998D01*
G75*
G02*
X125009998Y-106500000I249998J0D01*
G01*
X125635002Y-106500000D01*
G75*
G02*
X125885000Y-106749998I0J-249998D01*
G01*
X125885000Y-109650002D01*
G75*
G02*
X125635002Y-109900000I-249998J0D01*
G01*
X125009998Y-109900000D01*
G75*
G02*
X124760000Y-109650002I0J249998D01*
G01*
G37*
G36*
G01*
X129035000Y-109650002D02*
X129035000Y-106749998D01*
G75*
G02*
X129284998Y-106500000I249998J0D01*
G01*
X129910002Y-106500000D01*
G75*
G02*
X130160000Y-106749998I0J-249998D01*
G01*
X130160000Y-109650002D01*
G75*
G02*
X129910002Y-109900000I-249998J0D01*
G01*
X129284998Y-109900000D01*
G75*
G02*
X129035000Y-109650002I0J249998D01*
G01*
G37*
%TD*%
D20*
%TO.C,J2*%
X132984000Y-108742000D03*
X132984000Y-108092000D03*
X132984000Y-107442000D03*
X132984000Y-106792000D03*
X132984000Y-106142000D03*
D21*
X132984000Y-109942000D03*
X132984000Y-104942000D03*
D22*
X135684000Y-108442000D03*
X135684000Y-106442000D03*
D23*
X135684000Y-110342000D03*
X135684000Y-104542000D03*
D24*
X135684000Y-110942000D03*
X135684000Y-103942000D03*
%TD*%
D16*
%TO.C,J5*%
X50360000Y-36180000D03*
D17*
X47820000Y-36180000D03*
%TD*%
%TO.C,J6*%
X47920000Y-50490000D03*
D16*
X50460000Y-50490000D03*
%TD*%
D25*
%TO.C,J7*%
X51562000Y-142240000D03*
D26*
X46562000Y-142240000D03*
%TD*%
D27*
%TO.C,J8*%
X119095000Y-47725000D03*
X119095000Y-46775000D03*
X119095000Y-39075000D03*
X119095000Y-40175000D03*
X119095000Y-41275000D03*
X119095000Y-42375000D03*
X119095000Y-43475000D03*
X119095000Y-44575000D03*
X119095000Y-45675000D03*
D28*
X119095000Y-37525000D03*
X123395000Y-48675000D03*
D29*
X129595000Y-48675000D03*
D30*
X133745000Y-48675000D03*
D31*
X134195000Y-35175000D03*
%TD*%
D12*
%TO.C,J11*%
X51308000Y-122316000D03*
X51308000Y-119816000D03*
X51308000Y-117816000D03*
D32*
X51308000Y-115316000D03*
D26*
X48598000Y-125386000D03*
X48598000Y-112246000D03*
%TD*%
D33*
%TO.C,L1*%
X131160000Y-100655000D03*
X131160000Y-97605000D03*
%TD*%
%TO.C,L2*%
X117860000Y-94355000D03*
X117860000Y-91305000D03*
%TD*%
D34*
%TO.C,Q1*%
X58210000Y-85730000D03*
X60210000Y-84780000D03*
X60210000Y-86680000D03*
%TD*%
%TO.C,Q2*%
X121310000Y-107240000D03*
X121310000Y-109140000D03*
X123310000Y-108190000D03*
%TD*%
D35*
%TO.C,U1*%
X55932500Y-109800000D03*
X56567500Y-109800000D03*
X57202500Y-109800000D03*
X57837500Y-109800000D03*
X58472500Y-109800000D03*
X59107500Y-109800000D03*
X59742500Y-109800000D03*
X60377500Y-109800000D03*
X61012500Y-109800000D03*
X61647500Y-109800000D03*
X62282500Y-109800000D03*
X62917500Y-109800000D03*
X63552500Y-109800000D03*
X64187500Y-109800000D03*
X64187500Y-104600000D03*
X63552500Y-104600000D03*
X62917500Y-104600000D03*
X62282500Y-104600000D03*
X61647500Y-104600000D03*
X61012500Y-104600000D03*
X60377500Y-104600000D03*
X59742500Y-104600000D03*
X59107500Y-104600000D03*
X58472500Y-104600000D03*
X57837500Y-104600000D03*
X57202500Y-104600000D03*
X56567500Y-104600000D03*
X55932500Y-104600000D03*
%TD*%
%TO.C,U2*%
G36*
G01*
X132805000Y-64815000D02*
X132805000Y-65115000D01*
G75*
G02*
X132655000Y-65265000I-150000J0D01*
G01*
X130905000Y-65265000D01*
G75*
G02*
X130755000Y-65115000I0J150000D01*
G01*
X130755000Y-64815000D01*
G75*
G02*
X130905000Y-64665000I150000J0D01*
G01*
X132655000Y-64665000D01*
G75*
G02*
X132805000Y-64815000I0J-150000D01*
G01*
G37*
G36*
G01*
X132805000Y-63545000D02*
X132805000Y-63845000D01*
G75*
G02*
X132655000Y-63995000I-150000J0D01*
G01*
X130905000Y-63995000D01*
G75*
G02*
X130755000Y-63845000I0J150000D01*
G01*
X130755000Y-63545000D01*
G75*
G02*
X130905000Y-63395000I150000J0D01*
G01*
X132655000Y-63395000D01*
G75*
G02*
X132805000Y-63545000I0J-150000D01*
G01*
G37*
G36*
G01*
X132805000Y-62275000D02*
X132805000Y-62575000D01*
G75*
G02*
X132655000Y-62725000I-150000J0D01*
G01*
X130905000Y-62725000D01*
G75*
G02*
X130755000Y-62575000I0J150000D01*
G01*
X130755000Y-62275000D01*
G75*
G02*
X130905000Y-62125000I150000J0D01*
G01*
X132655000Y-62125000D01*
G75*
G02*
X132805000Y-62275000I0J-150000D01*
G01*
G37*
G36*
G01*
X132805000Y-61005000D02*
X132805000Y-61305000D01*
G75*
G02*
X132655000Y-61455000I-150000J0D01*
G01*
X130905000Y-61455000D01*
G75*
G02*
X130755000Y-61305000I0J150000D01*
G01*
X130755000Y-61005000D01*
G75*
G02*
X130905000Y-60855000I150000J0D01*
G01*
X132655000Y-60855000D01*
G75*
G02*
X132805000Y-61005000I0J-150000D01*
G01*
G37*
G36*
G01*
X132805000Y-59735000D02*
X132805000Y-60035000D01*
G75*
G02*
X132655000Y-60185000I-150000J0D01*
G01*
X130905000Y-60185000D01*
G75*
G02*
X130755000Y-60035000I0J150000D01*
G01*
X130755000Y-59735000D01*
G75*
G02*
X130905000Y-59585000I150000J0D01*
G01*
X132655000Y-59585000D01*
G75*
G02*
X132805000Y-59735000I0J-150000D01*
G01*
G37*
G36*
G01*
X132805000Y-58465000D02*
X132805000Y-58765000D01*
G75*
G02*
X132655000Y-58915000I-150000J0D01*
G01*
X130905000Y-58915000D01*
G75*
G02*
X130755000Y-58765000I0J150000D01*
G01*
X130755000Y-58465000D01*
G75*
G02*
X130905000Y-58315000I150000J0D01*
G01*
X132655000Y-58315000D01*
G75*
G02*
X132805000Y-58465000I0J-150000D01*
G01*
G37*
G36*
G01*
X132805000Y-57195000D02*
X132805000Y-57495000D01*
G75*
G02*
X132655000Y-57645000I-150000J0D01*
G01*
X130905000Y-57645000D01*
G75*
G02*
X130755000Y-57495000I0J150000D01*
G01*
X130755000Y-57195000D01*
G75*
G02*
X130905000Y-57045000I150000J0D01*
G01*
X132655000Y-57045000D01*
G75*
G02*
X132805000Y-57195000I0J-150000D01*
G01*
G37*
G36*
G01*
X132805000Y-55925000D02*
X132805000Y-56225000D01*
G75*
G02*
X132655000Y-56375000I-150000J0D01*
G01*
X130905000Y-56375000D01*
G75*
G02*
X130755000Y-56225000I0J150000D01*
G01*
X130755000Y-55925000D01*
G75*
G02*
X130905000Y-55775000I150000J0D01*
G01*
X132655000Y-55775000D01*
G75*
G02*
X132805000Y-55925000I0J-150000D01*
G01*
G37*
G36*
G01*
X123505000Y-55925000D02*
X123505000Y-56225000D01*
G75*
G02*
X123355000Y-56375000I-150000J0D01*
G01*
X121605000Y-56375000D01*
G75*
G02*
X121455000Y-56225000I0J150000D01*
G01*
X121455000Y-55925000D01*
G75*
G02*
X121605000Y-55775000I150000J0D01*
G01*
X123355000Y-55775000D01*
G75*
G02*
X123505000Y-55925000I0J-150000D01*
G01*
G37*
G36*
G01*
X123505000Y-57195000D02*
X123505000Y-57495000D01*
G75*
G02*
X123355000Y-57645000I-150000J0D01*
G01*
X121605000Y-57645000D01*
G75*
G02*
X121455000Y-57495000I0J150000D01*
G01*
X121455000Y-57195000D01*
G75*
G02*
X121605000Y-57045000I150000J0D01*
G01*
X123355000Y-57045000D01*
G75*
G02*
X123505000Y-57195000I0J-150000D01*
G01*
G37*
G36*
G01*
X123505000Y-58465000D02*
X123505000Y-58765000D01*
G75*
G02*
X123355000Y-58915000I-150000J0D01*
G01*
X121605000Y-58915000D01*
G75*
G02*
X121455000Y-58765000I0J150000D01*
G01*
X121455000Y-58465000D01*
G75*
G02*
X121605000Y-58315000I150000J0D01*
G01*
X123355000Y-58315000D01*
G75*
G02*
X123505000Y-58465000I0J-150000D01*
G01*
G37*
G36*
G01*
X123505000Y-59735000D02*
X123505000Y-60035000D01*
G75*
G02*
X123355000Y-60185000I-150000J0D01*
G01*
X121605000Y-60185000D01*
G75*
G02*
X121455000Y-60035000I0J150000D01*
G01*
X121455000Y-59735000D01*
G75*
G02*
X121605000Y-59585000I150000J0D01*
G01*
X123355000Y-59585000D01*
G75*
G02*
X123505000Y-59735000I0J-150000D01*
G01*
G37*
G36*
G01*
X123505000Y-61005000D02*
X123505000Y-61305000D01*
G75*
G02*
X123355000Y-61455000I-150000J0D01*
G01*
X121605000Y-61455000D01*
G75*
G02*
X121455000Y-61305000I0J150000D01*
G01*
X121455000Y-61005000D01*
G75*
G02*
X121605000Y-60855000I150000J0D01*
G01*
X123355000Y-60855000D01*
G75*
G02*
X123505000Y-61005000I0J-150000D01*
G01*
G37*
G36*
G01*
X123505000Y-62275000D02*
X123505000Y-62575000D01*
G75*
G02*
X123355000Y-62725000I-150000J0D01*
G01*
X121605000Y-62725000D01*
G75*
G02*
X121455000Y-62575000I0J150000D01*
G01*
X121455000Y-62275000D01*
G75*
G02*
X121605000Y-62125000I150000J0D01*
G01*
X123355000Y-62125000D01*
G75*
G02*
X123505000Y-62275000I0J-150000D01*
G01*
G37*
G36*
G01*
X123505000Y-63545000D02*
X123505000Y-63845000D01*
G75*
G02*
X123355000Y-63995000I-150000J0D01*
G01*
X121605000Y-63995000D01*
G75*
G02*
X121455000Y-63845000I0J150000D01*
G01*
X121455000Y-63545000D01*
G75*
G02*
X121605000Y-63395000I150000J0D01*
G01*
X123355000Y-63395000D01*
G75*
G02*
X123505000Y-63545000I0J-150000D01*
G01*
G37*
G36*
G01*
X123505000Y-64815000D02*
X123505000Y-65115000D01*
G75*
G02*
X123355000Y-65265000I-150000J0D01*
G01*
X121605000Y-65265000D01*
G75*
G02*
X121455000Y-65115000I0J150000D01*
G01*
X121455000Y-64815000D01*
G75*
G02*
X121605000Y-64665000I150000J0D01*
G01*
X123355000Y-64665000D01*
G75*
G02*
X123505000Y-64815000I0J-150000D01*
G01*
G37*
%TD*%
%TO.C,U3*%
G36*
G01*
X126760000Y-97955000D02*
X126760000Y-98055000D01*
G75*
G02*
X126710000Y-98105000I-50000J0D01*
G01*
X126010000Y-98105000D01*
G75*
G02*
X125960000Y-98055000I0J50000D01*
G01*
X125960000Y-97955000D01*
G75*
G02*
X126010000Y-97905000I50000J0D01*
G01*
X126710000Y-97905000D01*
G75*
G02*
X126760000Y-97955000I0J-50000D01*
G01*
G37*
G36*
G01*
X126760000Y-97505000D02*
X126760000Y-97605000D01*
G75*
G02*
X126710000Y-97655000I-50000J0D01*
G01*
X126010000Y-97655000D01*
G75*
G02*
X125960000Y-97605000I0J50000D01*
G01*
X125960000Y-97505000D01*
G75*
G02*
X126010000Y-97455000I50000J0D01*
G01*
X126710000Y-97455000D01*
G75*
G02*
X126760000Y-97505000I0J-50000D01*
G01*
G37*
G36*
G01*
X126760000Y-97055000D02*
X126760000Y-97155000D01*
G75*
G02*
X126710000Y-97205000I-50000J0D01*
G01*
X126010000Y-97205000D01*
G75*
G02*
X125960000Y-97155000I0J50000D01*
G01*
X125960000Y-97055000D01*
G75*
G02*
X126010000Y-97005000I50000J0D01*
G01*
X126710000Y-97005000D01*
G75*
G02*
X126760000Y-97055000I0J-50000D01*
G01*
G37*
G36*
G01*
X126760000Y-96605000D02*
X126760000Y-96705000D01*
G75*
G02*
X126710000Y-96755000I-50000J0D01*
G01*
X126010000Y-96755000D01*
G75*
G02*
X125960000Y-96705000I0J50000D01*
G01*
X125960000Y-96605000D01*
G75*
G02*
X126010000Y-96555000I50000J0D01*
G01*
X126710000Y-96555000D01*
G75*
G02*
X126760000Y-96605000I0J-50000D01*
G01*
G37*
G36*
G01*
X126760000Y-96155000D02*
X126760000Y-96255000D01*
G75*
G02*
X126710000Y-96305000I-50000J0D01*
G01*
X126010000Y-96305000D01*
G75*
G02*
X125960000Y-96255000I0J50000D01*
G01*
X125960000Y-96155000D01*
G75*
G02*
X126010000Y-96105000I50000J0D01*
G01*
X126710000Y-96105000D01*
G75*
G02*
X126760000Y-96155000I0J-50000D01*
G01*
G37*
G36*
G01*
X126760000Y-95705000D02*
X126760000Y-95805000D01*
G75*
G02*
X126710000Y-95855000I-50000J0D01*
G01*
X126010000Y-95855000D01*
G75*
G02*
X125960000Y-95805000I0J50000D01*
G01*
X125960000Y-95705000D01*
G75*
G02*
X126010000Y-95655000I50000J0D01*
G01*
X126710000Y-95655000D01*
G75*
G02*
X126760000Y-95705000I0J-50000D01*
G01*
G37*
G36*
G01*
X123860000Y-95705000D02*
X123860000Y-95805000D01*
G75*
G02*
X123810000Y-95855000I-50000J0D01*
G01*
X123110000Y-95855000D01*
G75*
G02*
X123060000Y-95805000I0J50000D01*
G01*
X123060000Y-95705000D01*
G75*
G02*
X123110000Y-95655000I50000J0D01*
G01*
X123810000Y-95655000D01*
G75*
G02*
X123860000Y-95705000I0J-50000D01*
G01*
G37*
G36*
G01*
X123860000Y-96155000D02*
X123860000Y-96255000D01*
G75*
G02*
X123810000Y-96305000I-50000J0D01*
G01*
X123110000Y-96305000D01*
G75*
G02*
X123060000Y-96255000I0J50000D01*
G01*
X123060000Y-96155000D01*
G75*
G02*
X123110000Y-96105000I50000J0D01*
G01*
X123810000Y-96105000D01*
G75*
G02*
X123860000Y-96155000I0J-50000D01*
G01*
G37*
G36*
G01*
X123860000Y-96605000D02*
X123860000Y-96705000D01*
G75*
G02*
X123810000Y-96755000I-50000J0D01*
G01*
X123110000Y-96755000D01*
G75*
G02*
X123060000Y-96705000I0J50000D01*
G01*
X123060000Y-96605000D01*
G75*
G02*
X123110000Y-96555000I50000J0D01*
G01*
X123810000Y-96555000D01*
G75*
G02*
X123860000Y-96605000I0J-50000D01*
G01*
G37*
G36*
G01*
X123860000Y-97055000D02*
X123860000Y-97155000D01*
G75*
G02*
X123810000Y-97205000I-50000J0D01*
G01*
X123110000Y-97205000D01*
G75*
G02*
X123060000Y-97155000I0J50000D01*
G01*
X123060000Y-97055000D01*
G75*
G02*
X123110000Y-97005000I50000J0D01*
G01*
X123810000Y-97005000D01*
G75*
G02*
X123860000Y-97055000I0J-50000D01*
G01*
G37*
G36*
G01*
X123860000Y-97505000D02*
X123860000Y-97605000D01*
G75*
G02*
X123810000Y-97655000I-50000J0D01*
G01*
X123110000Y-97655000D01*
G75*
G02*
X123060000Y-97605000I0J50000D01*
G01*
X123060000Y-97505000D01*
G75*
G02*
X123110000Y-97455000I50000J0D01*
G01*
X123810000Y-97455000D01*
G75*
G02*
X123860000Y-97505000I0J-50000D01*
G01*
G37*
G36*
G01*
X123860000Y-97955000D02*
X123860000Y-98055000D01*
G75*
G02*
X123810000Y-98105000I-50000J0D01*
G01*
X123110000Y-98105000D01*
G75*
G02*
X123060000Y-98055000I0J50000D01*
G01*
X123060000Y-97955000D01*
G75*
G02*
X123110000Y-97905000I50000J0D01*
G01*
X123810000Y-97905000D01*
G75*
G02*
X123860000Y-97955000I0J-50000D01*
G01*
G37*
D36*
X124910000Y-96880000D03*
%TD*%
D37*
%TO.C,Y1*%
X47752000Y-97790000D03*
X47752000Y-102690000D03*
%TD*%
D17*
%TO.C,J9*%
X47880000Y-79910000D03*
D16*
X50420000Y-79910000D03*
%TD*%
%TO.C,C1*%
G36*
G01*
X59670001Y-102220000D02*
X58369999Y-102220000D01*
G75*
G02*
X58120000Y-101970001I0J249999D01*
G01*
X58120000Y-101319999D01*
G75*
G02*
X58369999Y-101070000I249999J0D01*
G01*
X59670001Y-101070000D01*
G75*
G02*
X59920000Y-101319999I0J-249999D01*
G01*
X59920000Y-101970001D01*
G75*
G02*
X59670001Y-102220000I-249999J0D01*
G01*
G37*
G36*
G01*
X59670001Y-99270000D02*
X58369999Y-99270000D01*
G75*
G02*
X58120000Y-99020001I0J249999D01*
G01*
X58120000Y-98369999D01*
G75*
G02*
X58369999Y-98120000I249999J0D01*
G01*
X59670001Y-98120000D01*
G75*
G02*
X59920000Y-98369999I0J-249999D01*
G01*
X59920000Y-99020001D01*
G75*
G02*
X59670001Y-99270000I-249999J0D01*
G01*
G37*
%TD*%
%TO.C,C2*%
G36*
G01*
X56640001Y-99300000D02*
X55339999Y-99300000D01*
G75*
G02*
X55090000Y-99050001I0J249999D01*
G01*
X55090000Y-98399999D01*
G75*
G02*
X55339999Y-98150000I249999J0D01*
G01*
X56640001Y-98150000D01*
G75*
G02*
X56890000Y-98399999I0J-249999D01*
G01*
X56890000Y-99050001D01*
G75*
G02*
X56640001Y-99300000I-249999J0D01*
G01*
G37*
G36*
G01*
X56640001Y-102250000D02*
X55339999Y-102250000D01*
G75*
G02*
X55090000Y-102000001I0J249999D01*
G01*
X55090000Y-101349999D01*
G75*
G02*
X55339999Y-101100000I249999J0D01*
G01*
X56640001Y-101100000D01*
G75*
G02*
X56890000Y-101349999I0J-249999D01*
G01*
X56890000Y-102000001D01*
G75*
G02*
X56640001Y-102250000I-249999J0D01*
G01*
G37*
%TD*%
%TO.C,C6*%
G36*
G01*
X124210000Y-99529999D02*
X124210000Y-100830001D01*
G75*
G02*
X123960001Y-101080000I-249999J0D01*
G01*
X123309999Y-101080000D01*
G75*
G02*
X123060000Y-100830001I0J249999D01*
G01*
X123060000Y-99529999D01*
G75*
G02*
X123309999Y-99280000I249999J0D01*
G01*
X123960001Y-99280000D01*
G75*
G02*
X124210000Y-99529999I0J-249999D01*
G01*
G37*
G36*
G01*
X127160000Y-99529999D02*
X127160000Y-100830001D01*
G75*
G02*
X126910001Y-101080000I-249999J0D01*
G01*
X126259999Y-101080000D01*
G75*
G02*
X126010000Y-100830001I0J249999D01*
G01*
X126010000Y-99529999D01*
G75*
G02*
X126259999Y-99280000I249999J0D01*
G01*
X126910001Y-99280000D01*
G75*
G02*
X127160000Y-99529999I0J-249999D01*
G01*
G37*
%TD*%
%TO.C,C8*%
G36*
G01*
X122960000Y-94130001D02*
X122960000Y-92829999D01*
G75*
G02*
X123209999Y-92580000I249999J0D01*
G01*
X123860001Y-92580000D01*
G75*
G02*
X124110000Y-92829999I0J-249999D01*
G01*
X124110000Y-94130001D01*
G75*
G02*
X123860001Y-94380000I-249999J0D01*
G01*
X123209999Y-94380000D01*
G75*
G02*
X122960000Y-94130001I0J249999D01*
G01*
G37*
G36*
G01*
X125910000Y-94130001D02*
X125910000Y-92829999D01*
G75*
G02*
X126159999Y-92580000I249999J0D01*
G01*
X126810001Y-92580000D01*
G75*
G02*
X127060000Y-92829999I0J-249999D01*
G01*
X127060000Y-94130001D01*
G75*
G02*
X126810001Y-94380000I-249999J0D01*
G01*
X126159999Y-94380000D01*
G75*
G02*
X125910000Y-94130001I0J249999D01*
G01*
G37*
%TD*%
%TO.C,C9*%
G36*
G01*
X122960000Y-91330001D02*
X122960000Y-90029999D01*
G75*
G02*
X123209999Y-89780000I249999J0D01*
G01*
X123860001Y-89780000D01*
G75*
G02*
X124110000Y-90029999I0J-249999D01*
G01*
X124110000Y-91330001D01*
G75*
G02*
X123860001Y-91580000I-249999J0D01*
G01*
X123209999Y-91580000D01*
G75*
G02*
X122960000Y-91330001I0J249999D01*
G01*
G37*
G36*
G01*
X125910000Y-91330001D02*
X125910000Y-90029999D01*
G75*
G02*
X126159999Y-89780000I249999J0D01*
G01*
X126810001Y-89780000D01*
G75*
G02*
X127060000Y-90029999I0J-249999D01*
G01*
X127060000Y-91330001D01*
G75*
G02*
X126810001Y-91580000I-249999J0D01*
G01*
X126159999Y-91580000D01*
G75*
G02*
X125910000Y-91330001I0J249999D01*
G01*
G37*
%TD*%
%TO.C,C10*%
G36*
G01*
X124210000Y-102379999D02*
X124210000Y-103680001D01*
G75*
G02*
X123960001Y-103930000I-249999J0D01*
G01*
X123309999Y-103930000D01*
G75*
G02*
X123060000Y-103680001I0J249999D01*
G01*
X123060000Y-102379999D01*
G75*
G02*
X123309999Y-102130000I249999J0D01*
G01*
X123960001Y-102130000D01*
G75*
G02*
X124210000Y-102379999I0J-249999D01*
G01*
G37*
G36*
G01*
X127160000Y-102379999D02*
X127160000Y-103680001D01*
G75*
G02*
X126910001Y-103930000I-249999J0D01*
G01*
X126259999Y-103930000D01*
G75*
G02*
X126010000Y-103680001I0J249999D01*
G01*
X126010000Y-102379999D01*
G75*
G02*
X126259999Y-102130000I249999J0D01*
G01*
X126910001Y-102130000D01*
G75*
G02*
X127160000Y-102379999I0J-249999D01*
G01*
G37*
%TD*%
%TO.C,ACT*%
G36*
G01*
X49859000Y-85109000D02*
X49859000Y-86359000D01*
G75*
G02*
X49609000Y-86609000I-250000J0D01*
G01*
X48859000Y-86609000D01*
G75*
G02*
X48609000Y-86359000I0J250000D01*
G01*
X48609000Y-85109000D01*
G75*
G02*
X48859000Y-84859000I250000J0D01*
G01*
X49609000Y-84859000D01*
G75*
G02*
X49859000Y-85109000I0J-250000D01*
G01*
G37*
G36*
G01*
X47059000Y-85109000D02*
X47059000Y-86359000D01*
G75*
G02*
X46809000Y-86609000I-250000J0D01*
G01*
X46059000Y-86609000D01*
G75*
G02*
X45809000Y-86359000I0J250000D01*
G01*
X45809000Y-85109000D01*
G75*
G02*
X46059000Y-84859000I250000J0D01*
G01*
X46809000Y-84859000D01*
G75*
G02*
X47059000Y-85109000I0J-250000D01*
G01*
G37*
%TD*%
%TO.C,PWR*%
G36*
G01*
X47089000Y-88189000D02*
X47089000Y-89439000D01*
G75*
G02*
X46839000Y-89689000I-250000J0D01*
G01*
X46089000Y-89689000D01*
G75*
G02*
X45839000Y-89439000I0J250000D01*
G01*
X45839000Y-88189000D01*
G75*
G02*
X46089000Y-87939000I250000J0D01*
G01*
X46839000Y-87939000D01*
G75*
G02*
X47089000Y-88189000I0J-250000D01*
G01*
G37*
G36*
G01*
X49889000Y-88189000D02*
X49889000Y-89439000D01*
G75*
G02*
X49639000Y-89689000I-250000J0D01*
G01*
X48889000Y-89689000D01*
G75*
G02*
X48639000Y-89439000I0J250000D01*
G01*
X48639000Y-88189000D01*
G75*
G02*
X48889000Y-87939000I250000J0D01*
G01*
X49639000Y-87939000D01*
G75*
G02*
X49889000Y-88189000I0J-250000D01*
G01*
G37*
%TD*%
%TO.C,INT*%
G36*
G01*
X113205000Y-112627000D02*
X113205000Y-111377000D01*
G75*
G02*
X113455000Y-111127000I250000J0D01*
G01*
X114205000Y-111127000D01*
G75*
G02*
X114455000Y-111377000I0J-250000D01*
G01*
X114455000Y-112627000D01*
G75*
G02*
X114205000Y-112877000I-250000J0D01*
G01*
X113455000Y-112877000D01*
G75*
G02*
X113205000Y-112627000I0J250000D01*
G01*
G37*
G36*
G01*
X110405000Y-112627000D02*
X110405000Y-111377000D01*
G75*
G02*
X110655000Y-111127000I250000J0D01*
G01*
X111405000Y-111127000D01*
G75*
G02*
X111655000Y-111377000I0J-250000D01*
G01*
X111655000Y-112627000D01*
G75*
G02*
X111405000Y-112877000I-250000J0D01*
G01*
X110655000Y-112877000D01*
G75*
G02*
X110405000Y-112627000I0J250000D01*
G01*
G37*
%TD*%
%TO.C,R1*%
G36*
G01*
X102385000Y-70985002D02*
X102385000Y-69734998D01*
G75*
G02*
X102634998Y-69485000I249998J0D01*
G01*
X103260002Y-69485000D01*
G75*
G02*
X103510000Y-69734998I0J-249998D01*
G01*
X103510000Y-70985002D01*
G75*
G02*
X103260002Y-71235000I-249998J0D01*
G01*
X102634998Y-71235000D01*
G75*
G02*
X102385000Y-70985002I0J249998D01*
G01*
G37*
G36*
G01*
X105310000Y-70985002D02*
X105310000Y-69734998D01*
G75*
G02*
X105559998Y-69485000I249998J0D01*
G01*
X106185002Y-69485000D01*
G75*
G02*
X106435000Y-69734998I0J-249998D01*
G01*
X106435000Y-70985002D01*
G75*
G02*
X106185002Y-71235000I-249998J0D01*
G01*
X105559998Y-71235000D01*
G75*
G02*
X105310000Y-70985002I0J249998D01*
G01*
G37*
%TD*%
%TO.C,R2*%
G36*
G01*
X103355000Y-51515002D02*
X103355000Y-50264998D01*
G75*
G02*
X103604998Y-50015000I249998J0D01*
G01*
X104230002Y-50015000D01*
G75*
G02*
X104480000Y-50264998I0J-249998D01*
G01*
X104480000Y-51515002D01*
G75*
G02*
X104230002Y-51765000I-249998J0D01*
G01*
X103604998Y-51765000D01*
G75*
G02*
X103355000Y-51515002I0J249998D01*
G01*
G37*
G36*
G01*
X106280000Y-51515002D02*
X106280000Y-50264998D01*
G75*
G02*
X106529998Y-50015000I249998J0D01*
G01*
X107155002Y-50015000D01*
G75*
G02*
X107405000Y-50264998I0J-249998D01*
G01*
X107405000Y-51515002D01*
G75*
G02*
X107155002Y-51765000I-249998J0D01*
G01*
X106529998Y-51765000D01*
G75*
G02*
X106280000Y-51515002I0J249998D01*
G01*
G37*
%TD*%
%TO.C,R3*%
G36*
G01*
X105330000Y-67455002D02*
X105330000Y-66204998D01*
G75*
G02*
X105579998Y-65955000I249998J0D01*
G01*
X106205002Y-65955000D01*
G75*
G02*
X106455000Y-66204998I0J-249998D01*
G01*
X106455000Y-67455002D01*
G75*
G02*
X106205002Y-67705000I-249998J0D01*
G01*
X105579998Y-67705000D01*
G75*
G02*
X105330000Y-67455002I0J249998D01*
G01*
G37*
G36*
G01*
X102405000Y-67455002D02*
X102405000Y-66204998D01*
G75*
G02*
X102654998Y-65955000I249998J0D01*
G01*
X103280002Y-65955000D01*
G75*
G02*
X103530000Y-66204998I0J-249998D01*
G01*
X103530000Y-67455002D01*
G75*
G02*
X103280002Y-67705000I-249998J0D01*
G01*
X102654998Y-67705000D01*
G75*
G02*
X102405000Y-67455002I0J249998D01*
G01*
G37*
%TD*%
%TO.C,R4*%
G36*
G01*
X106280000Y-48745002D02*
X106280000Y-47494998D01*
G75*
G02*
X106529998Y-47245000I249998J0D01*
G01*
X107155002Y-47245000D01*
G75*
G02*
X107405000Y-47494998I0J-249998D01*
G01*
X107405000Y-48745002D01*
G75*
G02*
X107155002Y-48995000I-249998J0D01*
G01*
X106529998Y-48995000D01*
G75*
G02*
X106280000Y-48745002I0J249998D01*
G01*
G37*
G36*
G01*
X103355000Y-48745002D02*
X103355000Y-47494998D01*
G75*
G02*
X103604998Y-47245000I249998J0D01*
G01*
X104230002Y-47245000D01*
G75*
G02*
X104480000Y-47494998I0J-249998D01*
G01*
X104480000Y-48745002D01*
G75*
G02*
X104230002Y-48995000I-249998J0D01*
G01*
X103604998Y-48995000D01*
G75*
G02*
X103355000Y-48745002I0J249998D01*
G01*
G37*
%TD*%
%TO.C,R6*%
G36*
G01*
X51605000Y-86375002D02*
X51605000Y-85124998D01*
G75*
G02*
X51854998Y-84875000I249998J0D01*
G01*
X52480002Y-84875000D01*
G75*
G02*
X52730000Y-85124998I0J-249998D01*
G01*
X52730000Y-86375002D01*
G75*
G02*
X52480002Y-86625000I-249998J0D01*
G01*
X51854998Y-86625000D01*
G75*
G02*
X51605000Y-86375002I0J249998D01*
G01*
G37*
G36*
G01*
X54530000Y-86375002D02*
X54530000Y-85124998D01*
G75*
G02*
X54779998Y-84875000I249998J0D01*
G01*
X55405002Y-84875000D01*
G75*
G02*
X55655000Y-85124998I0J-249998D01*
G01*
X55655000Y-86375002D01*
G75*
G02*
X55405002Y-86625000I-249998J0D01*
G01*
X54779998Y-86625000D01*
G75*
G02*
X54530000Y-86375002I0J249998D01*
G01*
G37*
%TD*%
%TO.C,R7*%
G36*
G01*
X51575000Y-89455002D02*
X51575000Y-88204998D01*
G75*
G02*
X51824998Y-87955000I249998J0D01*
G01*
X52450002Y-87955000D01*
G75*
G02*
X52700000Y-88204998I0J-249998D01*
G01*
X52700000Y-89455002D01*
G75*
G02*
X52450002Y-89705000I-249998J0D01*
G01*
X51824998Y-89705000D01*
G75*
G02*
X51575000Y-89455002I0J249998D01*
G01*
G37*
G36*
G01*
X54500000Y-89455002D02*
X54500000Y-88204998D01*
G75*
G02*
X54749998Y-87955000I249998J0D01*
G01*
X55375002Y-87955000D01*
G75*
G02*
X55625000Y-88204998I0J-249998D01*
G01*
X55625000Y-89455002D01*
G75*
G02*
X55375002Y-89705000I-249998J0D01*
G01*
X54749998Y-89705000D01*
G75*
G02*
X54500000Y-89455002I0J249998D01*
G01*
G37*
%TD*%
%TO.C,R8*%
G36*
G01*
X68972000Y-110861002D02*
X68972000Y-109610998D01*
G75*
G02*
X69221998Y-109361000I249998J0D01*
G01*
X69847002Y-109361000D01*
G75*
G02*
X70097000Y-109610998I0J-249998D01*
G01*
X70097000Y-110861002D01*
G75*
G02*
X69847002Y-111111000I-249998J0D01*
G01*
X69221998Y-111111000D01*
G75*
G02*
X68972000Y-110861002I0J249998D01*
G01*
G37*
G36*
G01*
X66047000Y-110861002D02*
X66047000Y-109610998D01*
G75*
G02*
X66296998Y-109361000I249998J0D01*
G01*
X66922002Y-109361000D01*
G75*
G02*
X67172000Y-109610998I0J-249998D01*
G01*
X67172000Y-110861002D01*
G75*
G02*
X66922002Y-111111000I-249998J0D01*
G01*
X66296998Y-111111000D01*
G75*
G02*
X66047000Y-110861002I0J249998D01*
G01*
G37*
%TD*%
%TO.C,R9*%
G36*
G01*
X108719000Y-111410998D02*
X108719000Y-112661002D01*
G75*
G02*
X108469002Y-112911000I-249998J0D01*
G01*
X107843998Y-112911000D01*
G75*
G02*
X107594000Y-112661002I0J249998D01*
G01*
X107594000Y-111410998D01*
G75*
G02*
X107843998Y-111161000I249998J0D01*
G01*
X108469002Y-111161000D01*
G75*
G02*
X108719000Y-111410998I0J-249998D01*
G01*
G37*
G36*
G01*
X105794000Y-111410998D02*
X105794000Y-112661002D01*
G75*
G02*
X105544002Y-112911000I-249998J0D01*
G01*
X104918998Y-112911000D01*
G75*
G02*
X104669000Y-112661002I0J249998D01*
G01*
X104669000Y-111410998D01*
G75*
G02*
X104918998Y-111161000I249998J0D01*
G01*
X105544002Y-111161000D01*
G75*
G02*
X105794000Y-111410998I0J-249998D01*
G01*
G37*
%TD*%
%TO.C,R10*%
G36*
G01*
X114594998Y-63100000D02*
X115845002Y-63100000D01*
G75*
G02*
X116095000Y-63349998I0J-249998D01*
G01*
X116095000Y-63975002D01*
G75*
G02*
X115845002Y-64225000I-249998J0D01*
G01*
X114594998Y-64225000D01*
G75*
G02*
X114345000Y-63975002I0J249998D01*
G01*
X114345000Y-63349998D01*
G75*
G02*
X114594998Y-63100000I249998J0D01*
G01*
G37*
G36*
G01*
X114594998Y-60175000D02*
X115845002Y-60175000D01*
G75*
G02*
X116095000Y-60424998I0J-249998D01*
G01*
X116095000Y-61050002D01*
G75*
G02*
X115845002Y-61300000I-249998J0D01*
G01*
X114594998Y-61300000D01*
G75*
G02*
X114345000Y-61050002I0J249998D01*
G01*
X114345000Y-60424998D01*
G75*
G02*
X114594998Y-60175000I249998J0D01*
G01*
G37*
%TD*%
%TO.C,R11*%
G36*
G01*
X118034998Y-60165000D02*
X119285002Y-60165000D01*
G75*
G02*
X119535000Y-60414998I0J-249998D01*
G01*
X119535000Y-61040002D01*
G75*
G02*
X119285002Y-61290000I-249998J0D01*
G01*
X118034998Y-61290000D01*
G75*
G02*
X117785000Y-61040002I0J249998D01*
G01*
X117785000Y-60414998D01*
G75*
G02*
X118034998Y-60165000I249998J0D01*
G01*
G37*
G36*
G01*
X118034998Y-63090000D02*
X119285002Y-63090000D01*
G75*
G02*
X119535000Y-63339998I0J-249998D01*
G01*
X119535000Y-63965002D01*
G75*
G02*
X119285002Y-64215000I-249998J0D01*
G01*
X118034998Y-64215000D01*
G75*
G02*
X117785000Y-63965002I0J249998D01*
G01*
X117785000Y-63339998D01*
G75*
G02*
X118034998Y-63090000I249998J0D01*
G01*
G37*
%TD*%
%TO.C,R12*%
G36*
G01*
X116374998Y-100280000D02*
X117625002Y-100280000D01*
G75*
G02*
X117875000Y-100529998I0J-249998D01*
G01*
X117875000Y-101155002D01*
G75*
G02*
X117625002Y-101405000I-249998J0D01*
G01*
X116374998Y-101405000D01*
G75*
G02*
X116125000Y-101155002I0J249998D01*
G01*
X116125000Y-100529998D01*
G75*
G02*
X116374998Y-100280000I249998J0D01*
G01*
G37*
G36*
G01*
X116374998Y-97355000D02*
X117625002Y-97355000D01*
G75*
G02*
X117875000Y-97604998I0J-249998D01*
G01*
X117875000Y-98230002D01*
G75*
G02*
X117625002Y-98480000I-249998J0D01*
G01*
X116374998Y-98480000D01*
G75*
G02*
X116125000Y-98230002I0J249998D01*
G01*
X116125000Y-97604998D01*
G75*
G02*
X116374998Y-97355000I249998J0D01*
G01*
G37*
%TD*%
D38*
%TO.C,H1*%
X81452720Y-117236240D03*
D39*
X81452720Y-117236240D03*
%TD*%
D38*
%TO.C,H2*%
X81668620Y-142521940D03*
D39*
X81668620Y-142521940D03*
%TD*%
M02*
