M48
; DRILL file {KiCad (5.1.10)-1} date 07/02/22 17:03:31
; FORMAT={-:-/ absolute / inch / decimal}
; #@! TF.CreationDate,2022-07-02T17:03:31+06:00
; #@! TF.GenerationSoftware,Kicad,Pcbnew,(5.1.10)-1
; #@! TF.FileFunction,Plated,1,2,PTH
FMAT,2
INCH
T1C0.0157
T2C0.0197
T3C0.0217
T4C0.0315
T5C0.0374
T6C0.0394
T7C0.0591
T8C0.0906
T9C0.0984
%
G90
G05
T1
X2.3709Y-1.8634
X2.3787Y-2.1071
X2.4031Y-4.0535
X2.4181Y-1.8382
X2.4213Y-2.0642
X2.4528Y-1.8051
X2.4933Y-1.7748
X2.523Y-2.9923
X2.5307Y-1.7465
X2.5516Y-2.3252
X2.5626Y-2.0547
X2.5665Y-1.9866
X2.5685Y-1.9209
X2.6035Y-1.8846
X2.6051Y-2.3
X2.611Y-2.7421
X2.6256Y-2.8386
X2.6413Y-1.8488
X2.6445Y-2.6496
X2.6685Y-3.5016
X2.8185Y-3.8819
X2.8217Y-2.8386
X2.9341Y-3.9754
X2.9673Y-2.3358
X2.9748Y-2.2654
X3.15Y-3.8
X3.1748Y-3.6921
X3.18Y-3.92
X3.19Y-4.052
X3.1941Y-2.0413
X3.1941Y-2.2
X3.1945Y-1.6142
X3.204Y-4.084
X3.252Y-3.8193
X3.3484Y-1.8598
X3.4Y-1.8457
X3.4327Y-3.9472
X3.513Y-1.7193
X3.5529Y-1.625
X3.5894Y-1.5384
X3.5986Y-1.5817
X3.724Y-3.7209
X4.4551Y-3.5795
X4.4559Y-3.6154
X4.4827Y-4.1232
X4.49Y-2.346
X4.5201Y-4.1232
X4.7559Y-3.8268
X4.7996Y-3.7197
X4.8114Y-3.8634
X4.95Y-2.806
X5.0163Y-3.7518
X5.0285Y-3.8982
X5.2984Y-3.9283
T4
X1.88Y-3.85
X1.88Y-4.0429
T5
X2.02Y-4.54
X2.02Y-4.6384
X2.02Y-4.7172
X2.02Y-4.8156
T6
X1.8827Y-1.4244
X1.8843Y-1.6047
X1.8843Y-1.7047
X1.8843Y-1.8047
X1.885Y-3.1461
X1.8858Y-2.1772
X1.8858Y-2.2772
X1.8858Y-2.3772
X1.8858Y-2.4772
X1.8858Y-2.5772
X1.8858Y-2.6772
X1.8858Y-2.7772
X1.8858Y-2.8772
X1.8858Y-2.9772
X1.8866Y-1.9878
X1.9827Y-1.4244
X1.9843Y-1.6047
X1.9843Y-1.7047
X1.9843Y-1.8047
X1.985Y-3.1461
X1.9858Y-2.1772
X1.9858Y-2.2772
X1.9858Y-2.3772
X1.9858Y-2.4772
X1.9858Y-2.5772
X1.9858Y-2.6772
X1.9858Y-2.7772
X1.9858Y-2.8772
X1.9858Y-2.9772
X1.9866Y-1.9878
T7
X1.8331Y-5.6
X2.03Y-5.6
T8
X1.9133Y-4.4191
X1.9133Y-4.9365
T9
X3.2068Y-4.6156
X3.2153Y-5.6111
T2
G00X5.3291Y-4.0922
M15
G01X5.3547Y-4.0922
M16
G05
G00X5.3291Y-4.3678
M15
G01X5.3547Y-4.3678
M16
G05
T3
G00X5.2356Y-4.1375
M15
G01X5.2356Y-4.1257
M16
G05
G00X5.2356Y-4.3343
M15
G01X5.2356Y-4.3225
M16
G05
T0
M30
